<svg xmlns="http://www.w3.org/2000/svg" xmlns:xlink="http://www.w3.org/1999/xlink" contentStyleType="text/css" data-diagram-type="CLASS" height="589px" preserveAspectRatio="none" style="width:1656px;height:589px;background:#FAFAFA;" version="1.1" viewBox="0 0 1656 589" width="1656px" zoomAndPan="magnify"><title>Diagrama IE - Modelo de datos principal (MySQL) - FitTrack</title><defs/><g><rect fill="#FAFAFA" height="589" style="stroke:none;stroke-width:1;" width="1656" x="0" y="0"/><g class="title" data-source-line="1"><text fill="#000000" font-family="sans-serif" font-size="14" font-weight="bold" lengthAdjust="spacing" textLength="468.0293" x="587.4392" y="22.9951">Diagrama IE - Modelo de datos principal (MySQL) - FitTrack</text></g><!--class usuarios--><g class="entity" data-entity="usuarios" data-source-line="13" data-uid="ent0002" id="entity_usuarios"><rect fill="#FFFFFF" height="243.5625" rx="2.5" ry="2.5" style="stroke:#FF7849;stroke-width:0.5;" width="459.6582" x="544.5" y="44.2969"/><ellipse cx="739.8301" cy="60.2969" fill="#ADD1B2" rx="11" ry="11" style="stroke:#181818;stroke-width:1;"/><path d="M743.9395,66.2969 L736.2207,66.2969 L736.2207,53.9063 L743.9395,53.9063 L743.9395,56.0625 L738.6738,56.0625 L738.6738,58.7344 L743.4395,58.7344 L743.4395,60.8906 L738.6738,60.8906 L738.6738,64.1406 L743.9395,64.1406 L743.9395,66.2969 Z " fill="#000000"/><text fill="#000000" font-family="sans-serif" font-size="14" lengthAdjust="spacing" textLength="60.498" x="760.3301" y="65.1436">Usuarios</text><line style="stroke:#FF7849;stroke-width:0.5;" x1="545.5" x2="1003.1582" y1="76.2969" y2="76.2969"/><ellipse cx="555.5" cy="89.9453" fill="#000000" rx="3" ry="3" style="stroke:#000000;stroke-width:1;"/><text fill="#000000" font-family="sans-serif" font-size="14" lengthAdjust="spacing" textLength="147.5811" x="564.5" y="93.292">id_usuario : INT &#171;PK&#187;</text><line style="stroke:#FF7849;stroke-width:1;" x1="545.5" x2="1003.1582" y1="100.5938" y2="100.5938"/><text fill="#000000" font-family="sans-serif" font-size="14" lengthAdjust="spacing" textLength="174.084" x="550.5" y="117.5889">nombre : VARCHAR(100)</text><text fill="#000000" font-family="sans-serif" font-size="14" lengthAdjust="spacing" textLength="234.9033" x="550.5" y="133.8857">email : VARCHAR(150) &#171;UNIQUE&#187;</text><text fill="#000000" font-family="sans-serif" font-size="14" lengthAdjust="spacing" textLength="227.083" x="550.5" y="150.1826">password_hash : VARCHAR(255)</text><text fill="#000000" font-family="sans-serif" font-size="14" lengthAdjust="spacing" textLength="175.1709" x="550.5" y="166.4795">fecha_nacimiento : DATE</text><text fill="#000000" font-family="sans-serif" font-size="14" lengthAdjust="spacing" textLength="178.6367" x="550.5" y="182.7764">genero : ENUM('M','F','O')</text><text fill="#000000" font-family="sans-serif" font-size="14" lengthAdjust="spacing" textLength="106.2715" x="550.5" y="199.0732">altura_cm : INT</text><text fill="#000000" font-family="sans-serif" font-size="14" lengthAdjust="spacing" textLength="167.1455" x="550.5" y="215.3701">peso_kg : DECIMAL(5,2)</text><text fill="#000000" font-family="sans-serif" font-size="14" lengthAdjust="spacing" textLength="447.6582" x="550.5" y="231.667">nivel_experiencia : ENUM('principiante','intermedio','avanzado')</text><text fill="#000000" font-family="sans-serif" font-size="14" lengthAdjust="spacing" textLength="243.2842" x="550.5" y="247.9639">objetivo_principal : VARCHAR(255)</text><text fill="#000000" font-family="sans-serif" font-size="14" lengthAdjust="spacing" textLength="239.4561" x="550.5" y="264.2607">onboarding_pendiente : BOOLEAN</text><text fill="#000000" font-family="sans-serif" font-size="14" lengthAdjust="spacing" textLength="184.9189" x="550.5" y="280.5576">fecha_registro : DATETIME</text></g><!--class ejercicios--><g class="entity" data-entity="ejercicios" data-source-line="29" data-uid="ent0003" id="entity_ejercicios"><rect fill="#FFFFFF" height="162.0781" rx="2.5" ry="2.5" style="stroke:#FF7849;stroke-width:0.5;" width="370.9619" x="1046.52" y="84.7569"/><ellipse cx="1194.6821" cy="100.7569" fill="#ADD1B2" rx="11" ry="11" style="stroke:#181818;stroke-width:1;"/><path d="M1198.7915,106.7569 L1191.0727,106.7569 L1191.0727,94.3662 L1198.7915,94.3662 L1198.7915,96.5225 L1193.5259,96.5225 L1193.5259,99.1944 L1198.2915,99.1944 L1198.2915,101.3506 L1193.5259,101.3506 L1193.5259,104.6006 L1198.7915,104.6006 L1198.7915,106.7569 Z " fill="#000000"/><text fill="#000000" font-family="sans-serif" font-size="14" lengthAdjust="spacing" textLength="66.1377" x="1215.1821" y="105.6036">Ejercicios</text><line style="stroke:#FF7849;stroke-width:0.5;" x1="1047.52" x2="1416.4819" y1="116.7569" y2="116.7569"/><ellipse cx="1057.52" cy="130.4053" fill="#000000" rx="3" ry="3" style="stroke:#000000;stroke-width:1;"/><text fill="#000000" font-family="sans-serif" font-size="14" lengthAdjust="spacing" textLength="154.3623" x="1066.52" y="133.752">id_ejercicio : INT &#171;PK&#187;</text><line style="stroke:#FF7849;stroke-width:1;" x1="1047.52" x2="1416.4819" y1="141.0537" y2="141.0537"/><text fill="#000000" font-family="sans-serif" font-size="14" lengthAdjust="spacing" textLength="174.084" x="1052.52" y="158.0489">nombre : VARCHAR(100)</text><text fill="#000000" font-family="sans-serif" font-size="14" lengthAdjust="spacing" textLength="232.3193" x="1052.52" y="174.3457">grupo_muscular : VARCHAR(100)</text><text fill="#000000" font-family="sans-serif" font-size="14" lengthAdjust="spacing" textLength="129.2061" x="1052.52" y="190.6426">descripcion : TEXT</text><text fill="#000000" font-family="sans-serif" font-size="14" lengthAdjust="spacing" textLength="216.5488" x="1052.52" y="206.9395">equipamiento : VARCHAR(100)</text><text fill="#000000" font-family="sans-serif" font-size="14" lengthAdjust="spacing" textLength="358.9619" x="1052.52" y="223.2364">nivel : ENUM('principiante','intermedio','avanzado')</text><text fill="#000000" font-family="sans-serif" font-size="14" lengthAdjust="spacing" textLength="124.4619" x="1052.52" y="239.5332">activo : BOOLEAN</text></g><!--class logros--><g class="entity" data-entity="logros" data-source-line="40" data-uid="ent0004" id="entity_logros"><rect fill="#FFFFFF" height="162.0781" rx="2.5" ry="2.5" style="stroke:#FF7849;stroke-width:0.5;" width="486.4277" x="7" y="84.7969"/><ellipse cx="222.5303" cy="100.7969" fill="#ADD1B2" rx="11" ry="11" style="stroke:#181818;stroke-width:1;"/><path d="M226.6396,106.7969 L218.9209,106.7969 L218.9209,94.4063 L226.6396,94.4063 L226.6396,96.5625 L221.374,96.5625 L221.374,99.2344 L226.1396,99.2344 L226.1396,101.3906 L221.374,101.3906 L221.374,104.6406 L226.6396,104.6406 L226.6396,106.7969 Z " fill="#000000"/><text fill="#000000" font-family="sans-serif" font-size="14" lengthAdjust="spacing" textLength="46.8672" x="243.0303" y="105.6436">Logros</text><line style="stroke:#FF7849;stroke-width:0.5;" x1="8" x2="492.4277" y1="116.7969" y2="116.7969"/><ellipse cx="18" cy="130.4453" fill="#000000" rx="3" ry="3" style="stroke:#000000;stroke-width:1;"/><text fill="#000000" font-family="sans-serif" font-size="14" lengthAdjust="spacing" textLength="131.4141" x="27" y="133.792">id_logro : INT &#171;PK&#187;</text><line style="stroke:#FF7849;stroke-width:1;" x1="8" x2="492.4277" y1="141.0938" y2="141.0938"/><text fill="#000000" font-family="sans-serif" font-size="14" lengthAdjust="spacing" textLength="174.084" x="13" y="158.0889">nombre : VARCHAR(100)</text><text fill="#000000" font-family="sans-serif" font-size="14" lengthAdjust="spacing" textLength="129.2061" x="13" y="174.3857">descripcion : TEXT</text><text fill="#000000" font-family="sans-serif" font-size="14" lengthAdjust="spacing" textLength="474.4277" x="13" y="190.6826">codigo_condicion : VARCHAR(100)  'identificador interno de la regla</text><text fill="#000000" font-family="sans-serif" font-size="14" lengthAdjust="spacing" textLength="453.9951" x="13" y="206.9795">tipo : VARCHAR(50)              'ej: "dias_seguidos", "volumen", etc.</text><text fill="#000000" font-family="sans-serif" font-size="14" lengthAdjust="spacing" textLength="429.0781" x="13" y="223.2764">umbral : INT                     'cantidad m&#237;nima para desbloquear</text><text fill="#000000" font-family="sans-serif" font-size="14" lengthAdjust="spacing" textLength="124.4619" x="13" y="239.5732">activo : BOOLEAN</text></g><!--class usuario_logro--><g class="entity" data-entity="usuario_logro" data-source-line="51" data-uid="ent0005" id="entity_usuario_logro"><rect fill="#FFFFFF" height="113.1875" rx="2.5" ry="2.5" style="stroke:#FF7849;stroke-width:0.5;" width="223.7432" x="206.5" y="412.2969"/><ellipse cx="264.2329" cy="428.2969" fill="#ADD1B2" rx="11" ry="11" style="stroke:#181818;stroke-width:1;"/><path d="M268.3423,434.2969 L260.6235,434.2969 L260.6235,421.9063 L268.3423,421.9063 L268.3423,424.0625 L263.0767,424.0625 L263.0767,426.7344 L267.8423,426.7344 L267.8423,428.8906 L263.0767,428.8906 L263.0767,432.1406 L268.3423,432.1406 L268.3423,434.2969 Z " fill="#000000"/><text fill="#000000" font-family="sans-serif" font-size="14" lengthAdjust="spacing" textLength="99.7773" x="284.7329" y="433.1436">Usuario_Logro</text><line style="stroke:#FF7849;stroke-width:0.5;" x1="207.5" x2="429.2432" y1="444.2969" y2="444.2969"/><ellipse cx="217.5" cy="457.9453" fill="#000000" rx="3" ry="3" style="stroke:#000000;stroke-width:1;"/><text fill="#000000" font-family="sans-serif" font-size="14" lengthAdjust="spacing" textLength="190.2441" x="226.5" y="461.292">id_usuario_logro : INT &#171;PK&#187;</text><line style="stroke:#FF7849;stroke-width:1;" x1="207.5" x2="429.2432" y1="468.5938" y2="468.5938"/><text fill="#000000" font-family="sans-serif" font-size="14" lengthAdjust="spacing" textLength="147.1914" x="212.5" y="485.5889">usuario_id : INT &#171;FK&#187;</text><text fill="#000000" font-family="sans-serif" font-size="14" lengthAdjust="spacing" textLength="131.0244" x="212.5" y="501.8857">logro_id : INT &#171;FK&#187;</text><text fill="#000000" font-family="sans-serif" font-size="14" lengthAdjust="spacing" textLength="211.7432" x="212.5" y="518.1826">fecha_desbloqueo : DATETIME</text></g><!--class objetivos_usuario--><g class="entity" data-entity="objetivos_usuario" data-source-line="59" data-uid="ent0006" id="entity_objetivos_usuario"><rect fill="#FFFFFF" height="227.2656" rx="2.5" ry="2.5" style="stroke:#FF7849;stroke-width:0.5;" width="448.4336" x="515" y="355.2969"/><ellipse cx="671.8984" cy="371.2969" fill="#ADD1B2" rx="11" ry="11" style="stroke:#181818;stroke-width:1;"/><path d="M676.0078,377.2969 L668.2891,377.2969 L668.2891,364.9063 L676.0078,364.9063 L676.0078,367.0625 L670.7422,367.0625 L670.7422,369.7344 L675.5078,369.7344 L675.5078,371.8906 L670.7422,371.8906 L670.7422,375.1406 L676.0078,375.1406 L676.0078,377.2969 Z " fill="#000000"/><text fill="#000000" font-family="sans-serif" font-size="14" lengthAdjust="spacing" textLength="126.1367" x="692.3984" y="376.1436">Objetivos_Usuario</text><line style="stroke:#FF7849;stroke-width:0.5;" x1="516" x2="962.4336" y1="387.2969" y2="387.2969"/><ellipse cx="526" cy="400.9453" fill="#000000" rx="3" ry="3" style="stroke:#000000;stroke-width:1;"/><text fill="#000000" font-family="sans-serif" font-size="14" lengthAdjust="spacing" textLength="151.9355" x="535" y="404.292">id_objetivo : INT &#171;PK&#187;</text><line style="stroke:#FF7849;stroke-width:1;" x1="516" x2="962.4336" y1="411.5938" y2="411.5938"/><text fill="#000000" font-family="sans-serif" font-size="14" lengthAdjust="spacing" textLength="147.1914" x="521" y="428.5889">usuario_id : INT &#171;FK&#187;</text><text fill="#000000" font-family="sans-serif" font-size="14" lengthAdjust="spacing" textLength="432.9131" x="521" y="444.8857">tipo : VARCHAR(50)              'ej: "peso", "fuerza", "frecuencia"</text><text fill="#000000" font-family="sans-serif" font-size="14" lengthAdjust="spacing" textLength="199.8008" x="521" y="461.1826">descripcion : VARCHAR(255)</text><text fill="#000000" font-family="sans-serif" font-size="14" lengthAdjust="spacing" textLength="192.5752" x="521" y="477.4795">valor_inicial : DECIMAL(7,2)</text><text fill="#000000" font-family="sans-serif" font-size="14" lengthAdjust="spacing" textLength="208.0518" x="521" y="493.7764">valor_objetivo : DECIMAL(7,2)</text><text fill="#000000" font-family="sans-serif" font-size="14" lengthAdjust="spacing" textLength="194.9746" x="521" y="510.0732">valor_actual : DECIMAL(7,2)</text><text fill="#000000" font-family="sans-serif" font-size="14" lengthAdjust="spacing" textLength="436.4336" x="521" y="526.3701">unidad : VARCHAR(20)            'ej: "kg", "reps", "sesiones/sem"</text><text fill="#000000" font-family="sans-serif" font-size="14" lengthAdjust="spacing" textLength="386.6064" x="521" y="542.667">estado : ENUM('en_progreso','completado','cancelado')</text><text fill="#000000" font-family="sans-serif" font-size="14" lengthAdjust="spacing" textLength="190.3398" x="521" y="558.9639">fecha_creacion : DATETIME</text><text fill="#000000" font-family="sans-serif" font-size="14" lengthAdjust="spacing" textLength="136.4727" x="521" y="575.2607">fecha_limite : DATE</text></g><!--class faqs--><g class="entity" data-entity="faqs" data-source-line="74" data-uid="ent0007" id="entity_faqs"><rect fill="#FFFFFF" height="145.7813" rx="2.5" ry="2.5" style="stroke:#FF7849;stroke-width:0.5;" width="197.8076" x="1452.1" y="92.9069"/><ellipse cx="1528.7821" cy="108.9069" fill="#ADD1B2" rx="11" ry="11" style="stroke:#181818;stroke-width:1;"/><path d="M1532.8915,114.9069 L1525.1728,114.9069 L1525.1728,102.5163 L1532.8915,102.5163 L1532.8915,104.6725 L1527.6259,104.6725 L1527.6259,107.3444 L1532.3915,107.3444 L1532.3915,109.5006 L1527.6259,109.5006 L1527.6259,112.7506 L1532.8915,112.7506 L1532.8915,114.9069 Z " fill="#000000"/><text fill="#000000" font-family="sans-serif" font-size="14" lengthAdjust="spacing" textLength="35.9434" x="1549.2821" y="113.7536">FAQs</text><line style="stroke:#FF7849;stroke-width:0.5;" x1="1453.1" x2="1648.9076" y1="124.9069" y2="124.9069"/><ellipse cx="1463.1" cy="138.5553" fill="#000000" rx="3" ry="3" style="stroke:#000000;stroke-width:1;"/><text fill="#000000" font-family="sans-serif" font-size="14" lengthAdjust="spacing" textLength="118.1455" x="1472.1" y="141.902">id_faq : INT &#171;PK&#187;</text><line style="stroke:#FF7849;stroke-width:1;" x1="1453.1" x2="1648.9076" y1="149.2038" y2="149.2038"/><text fill="#000000" font-family="sans-serif" font-size="14" lengthAdjust="spacing" textLength="183.709" x="1458.1" y="166.1989">pregunta : VARCHAR(255)</text><text fill="#000000" font-family="sans-serif" font-size="14" lengthAdjust="spacing" textLength="118.5557" x="1458.1" y="182.4957">respuesta : TEXT</text><text fill="#000000" font-family="sans-serif" font-size="14" lengthAdjust="spacing" textLength="185.8076" x="1458.1" y="198.7926">categoria : VARCHAR(100)</text><text fill="#000000" font-family="sans-serif" font-size="14" lengthAdjust="spacing" textLength="77.4648" x="1458.1" y="215.0895">orden : INT</text><text fill="#000000" font-family="sans-serif" font-size="14" lengthAdjust="spacing" textLength="124.4619" x="1458.1" y="231.3864">activo : BOOLEAN</text></g><!--class mensajes_contacto--><g class="entity" data-entity="mensajes_contacto" data-source-line="84" data-uid="ent0008" id="entity_mensajes_contacto"><rect fill="#FFFFFF" height="162.0781" rx="2.5" ry="2.5" style="stroke:#FF7849;stroke-width:0.5;" width="472.2227" x="1014" y="387.7969"/><ellipse cx="1178.2266" cy="403.7969" fill="#ADD1B2" rx="11" ry="11" style="stroke:#181818;stroke-width:1;"/><path d="M1182.3359,409.7969 L1174.6172,409.7969 L1174.6172,397.4063 L1182.3359,397.4063 L1182.3359,399.5625 L1177.0703,399.5625 L1177.0703,402.2344 L1181.8359,402.2344 L1181.8359,404.3906 L1177.0703,404.3906 L1177.0703,407.6406 L1182.3359,407.6406 L1182.3359,409.7969 Z " fill="#000000"/><text fill="#000000" font-family="sans-serif" font-size="14" lengthAdjust="spacing" textLength="135.2695" x="1198.7266" y="408.6436">Mensajes_Contacto</text><line style="stroke:#FF7849;stroke-width:0.5;" x1="1015" x2="1485.2227" y1="419.7969" y2="419.7969"/><ellipse cx="1025" cy="433.4453" fill="#000000" rx="3" ry="3" style="stroke:#000000;stroke-width:1;"/><text fill="#000000" font-family="sans-serif" font-size="14" lengthAdjust="spacing" textLength="155.251" x="1034" y="436.792">id_mensaje : INT &#171;PK&#187;</text><line style="stroke:#FF7849;stroke-width:1;" x1="1015" x2="1485.2227" y1="444.0938" y2="444.0938"/><text fill="#000000" font-family="sans-serif" font-size="14" lengthAdjust="spacing" textLength="460.2227" x="1020" y="461.0889">usuario_id : INT &#171;FK&#187;        'nullable si escribe alguien no logueado</text><text fill="#000000" font-family="sans-serif" font-size="14" lengthAdjust="spacing" textLength="158.3613" x="1020" y="477.3857">email : VARCHAR(150)</text><text fill="#000000" font-family="sans-serif" font-size="14" lengthAdjust="spacing" textLength="167.4258" x="1020" y="493.6826">asunto : VARCHAR(150)</text><text fill="#000000" font-family="sans-serif" font-size="14" lengthAdjust="spacing" textLength="108.6572" x="1020" y="509.9795">mensaje : TEXT</text><text fill="#000000" font-family="sans-serif" font-size="14" lengthAdjust="spacing" textLength="168.8955" x="1020" y="526.2764">fecha_envio : DATETIME</text><text fill="#000000" font-family="sans-serif" font-size="14" lengthAdjust="spacing" textLength="353.3018" x="1020" y="542.5732">estado : ENUM('pendiente','en_proceso','resuelto')</text></g><!--link usuarios to objetivos_usuario--><g class="link" data-entity-1="usuarios" data-entity-2="objetivos_usuario" data-source-line="100" data-uid="lnk9" id="link_usuarios_objetivos_usuario"><path codeLine="100" d="M535.5,88.2969 C512.94,88.2969 529.68,274.2869 544.5,291.2969 C667.93,432.9769 838.94,210.1769 963,351.2969 C984.13,375.3369 1014,423.2969 982,423.2969" fill="none" id="usuarios-objetivos_usuario" style="stroke:#181818;stroke-width:1;"/><line style="stroke:#181818;stroke-width:1;" x1="539.5" x2="539.5" y1="84.2969" y2="92.2969"/><line style="stroke:#181818;stroke-width:1;" x1="536.5" x2="536.5" y1="84.2969" y2="92.2969"/><line style="stroke:#181818;stroke-width:1;" x1="535.5" x2="543.5" y1="88.2969" y2="88.2969"/><line style="stroke:#181818;stroke-width:1;" x1="972" x2="964" y1="423.2969" y2="429.2969"/><line style="stroke:#181818;stroke-width:1;" x1="972" x2="964" y1="423.2969" y2="417.2969"/><line style="stroke:#181818;stroke-width:1;" x1="972" x2="964" y1="423.2969" y2="423.2969"/><ellipse cx="978" cy="423.2969" fill="none" rx="4" ry="4" style="stroke:#181818;stroke-width:1;"/></g><!--link usuarios to usuario_logro--><g class="link" data-entity-1="usuarios" data-entity-2="usuario_logro" data-source-line="103" data-uid="lnk10" id="link_usuarios_usuario_logro"><path codeLine="103" d="M535.5,88.2969 C512.78,88.2969 525.39,269.4969 519,291.2969 C510.67,319.7169 502.65,324.5169 490,351.2969 C463.04,408.3869 511.64,480.2969 448.5,480.2969" fill="none" id="usuarios-usuario_logro" style="stroke:#181818;stroke-width:1;"/><line style="stroke:#181818;stroke-width:1;" x1="539.5" x2="539.5" y1="84.2969" y2="92.2969"/><line style="stroke:#181818;stroke-width:1;" x1="536.5" x2="536.5" y1="84.2969" y2="92.2969"/><line style="stroke:#181818;stroke-width:1;" x1="535.5" x2="543.5" y1="88.2969" y2="88.2969"/><line style="stroke:#181818;stroke-width:1;" x1="438.5" x2="430.5" y1="480.2969" y2="486.2969"/><line style="stroke:#181818;stroke-width:1;" x1="438.5" x2="430.5" y1="480.2969" y2="474.2969"/><line style="stroke:#181818;stroke-width:1;" x1="438.5" x2="430.5" y1="480.2969" y2="480.2969"/><ellipse cx="444.5" cy="480.2969" fill="none" rx="4" ry="4" style="stroke:#181818;stroke-width:1;"/></g><!--link logros to usuario_logro--><g class="link" data-entity-1="logros" data-entity-2="usuario_logro" data-source-line="104" data-uid="lnk11" id="link_logros_usuario_logro"><path codeLine="104" d="M502,128.7969 C529.11,128.7969 506.9,227.5169 493,250.7969 C418.52,375.5669 281.18,283.6469 206.5,408.2969 C186.4,441.8469 148.39,496.2969 187.5,496.2969" fill="none" id="logros-usuario_logro" style="stroke:#181818;stroke-width:1;"/><line style="stroke:#181818;stroke-width:1;" x1="498" x2="498" y1="132.7969" y2="124.7969"/><line style="stroke:#181818;stroke-width:1;" x1="501" x2="501" y1="132.7969" y2="124.7969"/><line style="stroke:#181818;stroke-width:1;" x1="502" x2="494" y1="128.7969" y2="128.7969"/><line style="stroke:#181818;stroke-width:1;" x1="197.5" x2="205.5" y1="496.2969" y2="490.2969"/><line style="stroke:#181818;stroke-width:1;" x1="197.5" x2="205.5" y1="496.2969" y2="502.2969"/><line style="stroke:#181818;stroke-width:1;" x1="197.5" x2="205.5" y1="496.2969" y2="496.2969"/><ellipse cx="191.5" cy="496.2969" fill="none" rx="4" ry="4" style="stroke:#181818;stroke-width:1;"/></g><!--link usuarios to mensajes_contacto--><g class="link" data-entity-1="usuarios" data-entity-2="mensajes_contacto" data-source-line="107" data-uid="lnk12" id="link_usuarios_mensajes_contacto"><path codeLine="107" d="M1012.5,88.2969 C1053.34,88.2969 954.16,455.7969 995,455.7969" fill="none" id="usuarios-mensajes_contacto" style="stroke:#181818;stroke-width:1;"/><line style="stroke:#181818;stroke-width:1;" x1="1008.5" x2="1008.5" y1="92.2969" y2="84.2969"/><line style="stroke:#181818;stroke-width:1;" x1="1011.5" x2="1011.5" y1="92.2969" y2="84.2969"/><line style="stroke:#181818;stroke-width:1;" x1="1012.5" x2="1004.5" y1="88.2969" y2="88.2969"/><line style="stroke:#181818;stroke-width:1;" x1="1005" x2="1013" y1="455.7969" y2="449.7969"/><line style="stroke:#181818;stroke-width:1;" x1="1005" x2="1013" y1="455.7969" y2="461.7969"/><line style="stroke:#181818;stroke-width:1;" x1="1005" x2="1013" y1="455.7969" y2="455.7969"/><ellipse cx="999" cy="455.7969" fill="none" rx="4" ry="4" style="stroke:#181818;stroke-width:1;"/></g><!--SRC=[bLRRRXit47tNLn3kWwJ2RjsWHbeX3Q38QrI89D_aec-B4NUqfiqbr-HIQIxzc7n0dl89_h4EkHUj9KMfPTWMEHpop9oPGnQYaCXE1QG6Cc3ZY1sngKvGQfOWIw3GbkL6A2voaAmtVNzzEUdJcZDHp0tm-qx7tWkL0tcp1OrJevrAHbfgmtvOWlzfhU0Ih6KVEuozsLZxxbOKwEUrIT3K_ikNl_twU-VVJgVB_jZz8KiqcuzFXwVHDRku6iz6uulX9BhUuz51LOZYFJkuiGwCqFQ0WMMk6WHqFpAHnDKC6x3nRCvUlRfu-_ersOwEw8_IsS8WcVuQNet-75xrVZa-xjCyPY1aU_hak4-kDxFnvKqKt7FAm3iAChu5UzjQ-UBan6-mH7uBiG8kCa4u_Ucdmtb4bXGL6Z-EPZVJNdVQFUoUqUzvrxk1B9o1c6SbMdyEMXtVfzu_6esdmqdlvF25Nwh42cMC_-Hew0GkeDcoubc0Af1s5lJFP9W8JGDOWVe0YGwdwSKT5cAbutLbR0MYrKA3IOHAunnLueFn-NfpVZw9XhCcKeEfi8MfuvoFfv7dkwOekaF31Qz9mcQufgcPUnPHgN6vZZDdkPDWjkq9Mcv4JjigCiwZltrEyS5Hi0qn6ouXiSzF9d2VobPgMk5FDFL86ReCNzTXX_6pGjuP4jU9I7NCDL5KMTfkZ7L5uj4i1IV0XeKuL1072OpOaq2x529l9yGN_PDF5-y6x20HO6EBgHC91NN83bPQkWmLVSM2_qJxE48UYib7jUlJvPHFaK32iiSlIf1YUM7neIsaVd08vZiPhNe-3fbjDtwLqCtktvFdUeL86lDPQGu-E-RBac_0Vglepwlsid65Dk3KpMmjJ0tMslHCcF-FDIyadgobG_C1mZU3t0NfEDWggmqLM049UImKrLRWjTQYbwKMbUOM_9rsujFjydOgL4BhqASHbFZlKu_PO1vApg8be6X_jfXvz6WBgkkcQr6HfX5x53FrATTPBj4ly0DG76NTjIMLt21KWJT4rZP92XuaB-XtYzwpuMNPqajuQ3KqZNRobrEJELN0Td89PUvy0ArsXW9JRGHijx-_M5LpFUphaIag2tTeuv6cStbHrbzMp_9gTWszCZsd_1gEb9CI5lG6iOA5IbeWtMQa4GIMT8PQYRewqT-uMtqarct8SJc_1bNbfgG5rKheftnjr41pNH7fPJtmiXmetmvbuGlWEq-IgsWo78tFP_lV8Lrse-hyC6AIDBNmbppB7B_LhOxlr8-JmQ3rBldqwUX8VzpMXS5WdVETXxJKiZwgkbrwiy6KhQXw2gA4j9MsBR2_z_WdEldaw7BFu5EAw6wFMYntGlLihL7M9UXldxeAzuBRgjdDtApV5ymYdGtAPuUsdsgLQjQxhkIYVyZWmJr-OPIrX1QHCcZVR8-V2Rvc6Q1_nD26FIiKEtjBIRI2gfgUBChN5_gNTQuDkPVtfYJTUFpgRGogbmET2hcaUpPO-ly1]--></g></svg>