<svg xmlns="http://www.w3.org/2000/svg" xmlns:xlink="http://www.w3.org/1999/xlink" contentStyleType="text/css" data-diagram-type="JSON" height="298px" preserveAspectRatio="none" style="width:1011px;height:298px;background:#FFFFFF;" version="1.1" viewBox="0 0 1011 298" width="1011px" zoomAndPan="magnify"><defs/><g><rect fill="#F1F1F1" height="101.4844" rx="5" ry="5" style="stroke:#F1F1F1;stroke-width:1.5;" width="413.1758" x="10" y="47.7578"/><text fill="#000000" font-family="sans-serif" font-size="14" font-weight="bold" lengthAdjust="spacing" textLength="80.8555" x="15" y="62.7529">usuario_id</text><text fill="#000000" font-family="sans-serif" font-size="14" lengthAdjust="spacing" textLength="26.7217" x="187.8525" y="62.7529">123</text><line style="stroke:#000000;stroke-width:1;" x1="182.8525" x2="182.8525" y1="47.7578" y2="68.0547"/><line style="stroke:#000000;stroke-width:1;" x1="10" x2="423.1758" y1="68.0547" y2="68.0547"/><text fill="#000000" font-family="sans-serif" font-size="14" font-weight="bold" lengthAdjust="spacing" textLength="43.2988" x="15" y="83.0498">fecha</text><text fill="#000000" font-family="sans-serif" font-size="14" lengthAdjust="spacing" textLength="81.3613" x="187.8525" y="83.0498">2025-11-28</text><line style="stroke:#000000;stroke-width:1;" x1="182.8525" x2="182.8525" y1="68.0547" y2="88.3516"/><line style="stroke:#000000;stroke-width:1;" x1="10" x2="423.1758" y1="88.3516" y2="88.3516"/><text fill="#000000" font-family="sans-serif" font-size="14" font-weight="bold" lengthAdjust="spacing" textLength="31.1309" x="15" y="103.3467">tipo</text><text fill="#000000" font-family="sans-serif" font-size="14" lengthAdjust="spacing" textLength="103.3662" x="187.8525" y="103.3467">Fuerza - Pecho</text><line style="stroke:#000000;stroke-width:1;" x1="182.8525" x2="182.8525" y1="88.3516" y2="108.6484"/><line style="stroke:#000000;stroke-width:1;" x1="10" x2="423.1758" y1="108.6484" y2="108.6484"/><text fill="#000000" font-family="sans-serif" font-size="14" font-weight="bold" lengthAdjust="spacing" textLength="44.0576" x="15" y="123.6436">notas</text><text fill="#000000" font-family="sans-serif" font-size="14" lengthAdjust="spacing" textLength="230.3232" x="187.8525" y="123.6436">Hoy me he encontrado muy bien</text><line style="stroke:#000000;stroke-width:1;" x1="182.8525" x2="182.8525" y1="108.6484" y2="128.9453"/><line style="stroke:#000000;stroke-width:1;" x1="10" x2="423.1758" y1="128.9453" y2="128.9453"/><text fill="#000000" font-family="sans-serif" font-size="14" font-weight="bold" lengthAdjust="spacing" textLength="162.8525" x="15" y="143.9404">ejercicios_realizados</text><text fill="#000000" font-family="sans-serif" font-size="14" lengthAdjust="spacing" textLength="13.3506" x="187.8525" y="143.9404">&#160;&#160;&#160;</text><line style="stroke:#000000;stroke-width:1;" x1="182.8525" x2="182.8525" y1="128.9453" y2="149.2422"/><rect fill="none" height="101.4844" rx="5" ry="5" style="stroke:#000000;stroke-width:1.5;" width="413.1758" x="10" y="47.7578"/><rect fill="#F1F1F1" height="40.5938" rx="5" ry="5" style="stroke:#F1F1F1;stroke-width:1.5;" width="23.3506" x="460" y="119"/><text fill="#000000" font-family="sans-serif" font-size="14" lengthAdjust="spacing" textLength="13.3506" x="465" y="133.9951">&#160;&#160;&#160;</text><line style="stroke:#000000;stroke-width:1;" x1="460" x2="483.3506" y1="139.2969" y2="139.2969"/><text fill="#000000" font-family="sans-serif" font-size="14" lengthAdjust="spacing" textLength="13.3506" x="465" y="154.292">&#160;&#160;&#160;</text><rect fill="none" height="40.5938" rx="5" ry="5" style="stroke:#000000;stroke-width:1.5;" width="23.3506" x="460" y="119"/><rect fill="#F1F1F1" height="60.8906" rx="5" ry="5" style="stroke:#F1F1F1;stroke-width:1.5;" width="231.6338" x="557.5" y="58"/><text fill="#000000" font-family="sans-serif" font-size="14" font-weight="bold" lengthAdjust="spacing" textLength="88.3271" x="562.5" y="72.9951">ejercicio_id</text><text fill="#000000" font-family="sans-serif" font-size="14" lengthAdjust="spacing" textLength="17.8145" x="699.6689" y="72.9951">10</text><line style="stroke:#000000;stroke-width:1;" x1="694.6689" x2="694.6689" y1="58" y2="78.2969"/><line style="stroke:#000000;stroke-width:1;" x1="557.5" x2="789.1338" y1="78.2969" y2="78.2969"/><text fill="#000000" font-family="sans-serif" font-size="14" font-weight="bold" lengthAdjust="spacing" textLength="127.1689" x="562.5" y="93.292">nombreEjercicio</text><text fill="#000000" font-family="sans-serif" font-size="14" lengthAdjust="spacing" textLength="84.4648" x="699.6689" y="93.292">Press banca</text><line style="stroke:#000000;stroke-width:1;" x1="694.6689" x2="694.6689" y1="78.2969" y2="98.5938"/><line style="stroke:#000000;stroke-width:1;" x1="557.5" x2="789.1338" y1="98.5938" y2="98.5938"/><text fill="#000000" font-family="sans-serif" font-size="14" font-weight="bold" lengthAdjust="spacing" textLength="32.8535" x="562.5" y="113.5889">sets</text><text fill="#000000" font-family="sans-serif" font-size="14" lengthAdjust="spacing" textLength="13.3506" x="699.6689" y="113.5889">&#160;&#160;&#160;</text><line style="stroke:#000000;stroke-width:1;" x1="694.6689" x2="694.6689" y1="98.5938" y2="118.8906"/><rect fill="none" height="60.8906" rx="5" ry="5" style="stroke:#000000;stroke-width:1.5;" width="231.6338" x="557.5" y="58"/><rect fill="#F1F1F1" height="60.8906" rx="5" ry="5" style="stroke:#F1F1F1;stroke-width:1.5;" width="23.3506" x="864" y="71"/><text fill="#000000" font-family="sans-serif" font-size="14" lengthAdjust="spacing" textLength="13.3506" x="869" y="85.9951">&#160;&#160;&#160;</text><line style="stroke:#000000;stroke-width:1;" x1="864" x2="887.3506" y1="91.2969" y2="91.2969"/><text fill="#000000" font-family="sans-serif" font-size="14" lengthAdjust="spacing" textLength="13.3506" x="869" y="106.292">&#160;&#160;&#160;</text><line style="stroke:#000000;stroke-width:1;" x1="864" x2="887.3506" y1="111.5938" y2="111.5938"/><text fill="#000000" font-family="sans-serif" font-size="14" lengthAdjust="spacing" textLength="13.3506" x="869" y="126.5889">&#160;&#160;&#160;</text><rect fill="none" height="60.8906" rx="5" ry="5" style="stroke:#000000;stroke-width:1.5;" width="23.3506" x="864" y="71"/><rect fill="#F1F1F1" height="40.5938" rx="5" ry="5" style="stroke:#F1F1F1;stroke-width:1.5;" width="75.2822" x="924" y="10"/><text fill="#000000" font-family="sans-serif" font-size="14" font-weight="bold" lengthAdjust="spacing" textLength="34.7539" x="929" y="24.9951">reps</text><text fill="#000000" font-family="sans-serif" font-size="14" lengthAdjust="spacing" textLength="17.8145" x="976.4678" y="24.9951">10</text><line style="stroke:#000000;stroke-width:1;" x1="971.4678" x2="971.4678" y1="10" y2="30.2969"/><line style="stroke:#000000;stroke-width:1;" x1="924" x2="999.2822" y1="30.2969" y2="30.2969"/><text fill="#000000" font-family="sans-serif" font-size="14" font-weight="bold" lengthAdjust="spacing" textLength="37.4678" x="929" y="45.292">peso</text><text fill="#000000" font-family="sans-serif" font-size="14" lengthAdjust="spacing" textLength="17.8145" x="976.4678" y="45.292">60</text><line style="stroke:#000000;stroke-width:1;" x1="971.4678" x2="971.4678" y1="30.2969" y2="50.5938"/><rect fill="none" height="40.5938" rx="5" ry="5" style="stroke:#000000;stroke-width:1.5;" width="75.2822" x="924" y="10"/><rect fill="#F1F1F1" height="40.5938" rx="5" ry="5" style="stroke:#F1F1F1;stroke-width:1.5;" width="75.2822" x="924" y="69"/><text fill="#000000" font-family="sans-serif" font-size="14" font-weight="bold" lengthAdjust="spacing" textLength="34.7539" x="929" y="83.9951">reps</text><text fill="#000000" font-family="sans-serif" font-size="14" lengthAdjust="spacing" textLength="8.9072" x="976.4678" y="83.9951">8</text><line style="stroke:#000000;stroke-width:1;" x1="971.4678" x2="971.4678" y1="69" y2="89.2969"/><line style="stroke:#000000;stroke-width:1;" x1="924" x2="999.2822" y1="89.2969" y2="89.2969"/><text fill="#000000" font-family="sans-serif" font-size="14" font-weight="bold" lengthAdjust="spacing" textLength="37.4678" x="929" y="104.292">peso</text><text fill="#000000" font-family="sans-serif" font-size="14" lengthAdjust="spacing" textLength="17.8145" x="976.4678" y="104.292">70</text><line style="stroke:#000000;stroke-width:1;" x1="971.4678" x2="971.4678" y1="89.2969" y2="109.5938"/><rect fill="none" height="40.5938" rx="5" ry="5" style="stroke:#000000;stroke-width:1.5;" width="75.2822" x="924" y="69"/><rect fill="#F1F1F1" height="40.5938" rx="5" ry="5" style="stroke:#F1F1F1;stroke-width:1.5;" width="75.2822" x="924" y="128"/><text fill="#000000" font-family="sans-serif" font-size="14" font-weight="bold" lengthAdjust="spacing" textLength="34.7539" x="929" y="142.9951">reps</text><text fill="#000000" font-family="sans-serif" font-size="14" lengthAdjust="spacing" textLength="8.9072" x="976.4678" y="142.9951">5</text><line style="stroke:#000000;stroke-width:1;" x1="971.4678" x2="971.4678" y1="128" y2="148.2969"/><line style="stroke:#000000;stroke-width:1;" x1="924" x2="999.2822" y1="148.2969" y2="148.2969"/><text fill="#000000" font-family="sans-serif" font-size="14" font-weight="bold" lengthAdjust="spacing" textLength="37.4678" x="929" y="163.292">peso</text><text fill="#000000" font-family="sans-serif" font-size="14" lengthAdjust="spacing" textLength="17.8145" x="976.4678" y="163.292">80</text><line style="stroke:#000000;stroke-width:1;" x1="971.4678" x2="971.4678" y1="148.2969" y2="168.5938"/><rect fill="none" height="40.5938" rx="5" ry="5" style="stroke:#000000;stroke-width:1.5;" width="75.2822" x="924" y="128"/><rect fill="#F1F1F1" height="60.8906" rx="5" ry="5" style="stroke:#F1F1F1;stroke-width:1.5;" width="307.2188" x="520" y="161"/><text fill="#000000" font-family="sans-serif" font-size="14" font-weight="bold" lengthAdjust="spacing" textLength="88.3271" x="525" y="175.9951">ejercicio_id</text><text fill="#000000" font-family="sans-serif" font-size="14" lengthAdjust="spacing" textLength="17.8145" x="662.1689" y="175.9951">22</text><line style="stroke:#000000;stroke-width:1;" x1="657.1689" x2="657.1689" y1="161" y2="181.2969"/><line style="stroke:#000000;stroke-width:1;" x1="520" x2="827.2188" y1="181.2969" y2="181.2969"/><text fill="#000000" font-family="sans-serif" font-size="14" font-weight="bold" lengthAdjust="spacing" textLength="127.1689" x="525" y="196.292">nombreEjercicio</text><text fill="#000000" font-family="sans-serif" font-size="14" lengthAdjust="spacing" textLength="160.0498" x="662.1689" y="196.292">Aperturas mancuernas</text><line style="stroke:#000000;stroke-width:1;" x1="657.1689" x2="657.1689" y1="181.2969" y2="201.5938"/><line style="stroke:#000000;stroke-width:1;" x1="520" x2="827.2188" y1="201.5938" y2="201.5938"/><text fill="#000000" font-family="sans-serif" font-size="14" font-weight="bold" lengthAdjust="spacing" textLength="32.8535" x="525" y="216.5889">sets</text><text fill="#000000" font-family="sans-serif" font-size="14" lengthAdjust="spacing" textLength="13.3506" x="662.1689" y="216.5889">&#160;&#160;&#160;</text><line style="stroke:#000000;stroke-width:1;" x1="657.1689" x2="657.1689" y1="201.5938" y2="221.8906"/><rect fill="none" height="60.8906" rx="5" ry="5" style="stroke:#000000;stroke-width:1.5;" width="307.2188" x="520" y="161"/><rect fill="#F1F1F1" height="40.5938" rx="5" ry="5" style="stroke:#F1F1F1;stroke-width:1.5;" width="23.3506" x="864" y="197"/><text fill="#000000" font-family="sans-serif" font-size="14" lengthAdjust="spacing" textLength="13.3506" x="869" y="211.9951">&#160;&#160;&#160;</text><line style="stroke:#000000;stroke-width:1;" x1="864" x2="887.3506" y1="217.2969" y2="217.2969"/><text fill="#000000" font-family="sans-serif" font-size="14" lengthAdjust="spacing" textLength="13.3506" x="869" y="232.292">&#160;&#160;&#160;</text><rect fill="none" height="40.5938" rx="5" ry="5" style="stroke:#000000;stroke-width:1.5;" width="23.3506" x="864" y="197"/><rect fill="#F1F1F1" height="40.5938" rx="5" ry="5" style="stroke:#F1F1F1;stroke-width:1.5;" width="75.2822" x="924" y="187"/><text fill="#000000" font-family="sans-serif" font-size="14" font-weight="bold" lengthAdjust="spacing" textLength="34.7539" x="929" y="201.9951">reps</text><text fill="#000000" font-family="sans-serif" font-size="14" lengthAdjust="spacing" textLength="17.8145" x="976.4678" y="201.9951">12</text><line style="stroke:#000000;stroke-width:1;" x1="971.4678" x2="971.4678" y1="187" y2="207.2969"/><line style="stroke:#000000;stroke-width:1;" x1="924" x2="999.2822" y1="207.2969" y2="207.2969"/><text fill="#000000" font-family="sans-serif" font-size="14" font-weight="bold" lengthAdjust="spacing" textLength="37.4678" x="929" y="222.292">peso</text><text fill="#000000" font-family="sans-serif" font-size="14" lengthAdjust="spacing" textLength="17.8145" x="976.4678" y="222.292">16</text><line style="stroke:#000000;stroke-width:1;" x1="971.4678" x2="971.4678" y1="207.2969" y2="227.5938"/><rect fill="none" height="40.5938" rx="5" ry="5" style="stroke:#000000;stroke-width:1.5;" width="75.2822" x="924" y="187"/><rect fill="#F1F1F1" height="40.5938" rx="5" ry="5" style="stroke:#F1F1F1;stroke-width:1.5;" width="75.2822" x="924" y="246"/><text fill="#000000" font-family="sans-serif" font-size="14" font-weight="bold" lengthAdjust="spacing" textLength="34.7539" x="929" y="260.9951">reps</text><text fill="#000000" font-family="sans-serif" font-size="14" lengthAdjust="spacing" textLength="17.8145" x="976.4678" y="260.9951">12</text><line style="stroke:#000000;stroke-width:1;" x1="971.4678" x2="971.4678" y1="246" y2="266.2969"/><line style="stroke:#000000;stroke-width:1;" x1="924" x2="999.2822" y1="266.2969" y2="266.2969"/><text fill="#000000" font-family="sans-serif" font-size="14" font-weight="bold" lengthAdjust="spacing" textLength="37.4678" x="929" y="281.292">peso</text><text fill="#000000" font-family="sans-serif" font-size="14" lengthAdjust="spacing" textLength="17.8145" x="976.4678" y="281.292">16</text><line style="stroke:#000000;stroke-width:1;" x1="971.4678" x2="971.4678" y1="266.2969" y2="286.5938"/><rect fill="none" height="40.5938" rx="5" ry="5" style="stroke:#000000;stroke-width:1.5;" width="75.2822" x="924" y="246"/><path d="M875,81.5 L888,81.5 C892.9569,81.5 911.2686,68.7001 928.3101,55.9253" fill="none" style="stroke:#000000;stroke-width:1;stroke-dasharray:3,3;"/><path d="M930.1828,58.4029 L930.1683,54.5208 L926.4375,53.4477 L934.504,51.2437 L930.1828,58.4029" fill="#000000"/><ellipse cx="875" cy="81.5" fill="#000000" rx="3" ry="3" style="stroke:#000000;stroke-width:1;"/><path d="M875,101.5 L888,101.5 C897.4251,101.5 907.4451,100.514 916.9445,99.1072" fill="none" style="stroke:#000000;stroke-width:1;stroke-dasharray:3,3;"/><path d="M917.4275,102.1014 L919.1901,98.7449 L916.4614,96.113 L924.4299,97.8996 L917.4275,102.1014" fill="#000000"/><ellipse cx="875" cy="101.5" fill="#000000" rx="3" ry="3" style="stroke:#000000;stroke-width:1;"/><path d="M875,121.5 L888,121.5 C897.7988,121.5 907.9037,123.6664 917.3551,126.772" fill="none" style="stroke:#000000;stroke-width:1;stroke-dasharray:3,3;"/><path d="M916.3401,129.6057 L919.4804,127.5332 L918.3701,123.9383 L924.4394,129.3095 L916.3401,129.6057" fill="#000000"/><ellipse cx="875" cy="121.5" fill="#000000" rx="3" ry="3" style="stroke:#000000;stroke-width:1;"/><path d="M778,108.5 L791,108.5 C813.7625,108.5 839.8753,105.9157 856.8634,103.8876" fill="none" style="stroke:#000000;stroke-width:1;stroke-dasharray:3,3;"/><path d="M857.2383,106.9084 L859.129,103.6064 L856.4885,100.8668 L864.4154,102.9504 L857.2383,106.9084" fill="#000000"/><ellipse cx="778" cy="108.5" fill="#000000" rx="3" ry="3" style="stroke:#000000;stroke-width:1;"/><path d="M471,129.5 L484,129.5 C509.8225,129.5 537.1876,125.7996 562.8379,120.6222" fill="none" style="stroke:#000000;stroke-width:1;stroke-dasharray:3,3;"/><path d="M563.4676,123.6393 L565.1007,120.1499 L562.2082,117.6051 L570.3806,119.0479 L563.4676,123.6393" fill="#000000"/><ellipse cx="471" cy="129.5" fill="#000000" rx="3" ry="3" style="stroke:#000000;stroke-width:1;"/><path d="M875,207.5 L888,207.5 C897.2082,207.5 907.0697,207.5 916.472,207.5" fill="none" style="stroke:#000000;stroke-width:1;stroke-dasharray:3,3;"/><path d="M916.472,210.6062 L918.8016,207.5 L916.472,204.3938 L924.2375,207.5 L916.472,210.6062" fill="#000000"/><ellipse cx="875" cy="207.5" fill="#000000" rx="3" ry="3" style="stroke:#000000;stroke-width:1;"/><path d="M875,227.5 L888,227.5 C902.9122,227.5 917.7309,233.9095 930.0813,241.5317" fill="none" style="stroke:#000000;stroke-width:1;stroke-dasharray:3,3;"/><path d="M928.3507,244.1686 L932.0589,242.8296 L931.8118,238.8948 L936.6735,245.858 L928.3507,244.1686" fill="#000000"/><ellipse cx="875" cy="227.5" fill="#000000" rx="3" ry="3" style="stroke:#000000;stroke-width:1;"/><path d="M815,211.5 L828,211.5 C837.4753,211.5 847.9391,212.7147 856.5837,214.0511" fill="none" style="stroke:#000000;stroke-width:1;stroke-dasharray:3,3;"/><path d="M856.0705,217.1066 L858.8753,214.4359 L857.0968,210.9955 L864.2226,215.3339 L856.0705,217.1066" fill="#000000"/><ellipse cx="815" cy="211.5" fill="#000000" rx="3" ry="3" style="stroke:#000000;stroke-width:1;"/><path d="M471,149.5 L484,149.5 C511.0374,149.5 539.7435,153.6465 566.4002,159.3339" fill="none" style="stroke:#000000;stroke-width:1;stroke-dasharray:3,3;"/><path d="M565.7431,162.3183 L568.6386,159.8267 L567.0574,156.3494 L573.8614,160.9767 L565.7431,162.3183" fill="#000000"/><ellipse cx="471" cy="149.5" fill="#000000" rx="3" ry="3" style="stroke:#000000;stroke-width:1;"/><path d="M411,139.5 L424,139.5 C433.399,139.5 443.8552,139.5 452.5144,139.5" fill="none" style="stroke:#000000;stroke-width:1;stroke-dasharray:3,3;"/><path d="M452.5144,142.5633 L454.8119,139.5 L452.5144,136.4367 L460.1727,139.5 L452.5144,142.5633" fill="#000000"/><ellipse cx="411" cy="139.5" fill="#000000" rx="3" ry="3" style="stroke:#000000;stroke-width:1;"/><!--SRC=[ZP9FJ-Cm4CNl_XIZd41gK19AAJcn_5TfsMgXND0AkSbGZ9fnDBOhbOhlldRQRjWL82wEC-ytpsyi7nihsRuOJM8b029dd6Ib7rKPvP1c-vrGVCBYMVh_A4koWpXDuwmVDO9LjGxr2uVyAY66iIVrMYDjfGdYbLv2XV2CW5HeiYnB3PLRmbGXhLbyGIvKeRHvP9HpzUgHqFlWHO1Lixx7Dl6IpbOXNKqPpxTwE7RCQ0nC9HKo-iiPjArlumqHOstMRX3LQ49pBu6tpWTClqKEFq4EMgJlaGtnk_bk6ZwR9yk-ckT7ZMmTImELdybVEFdh_TPWMHifxNsS-d_ctzWYxDx4CLBPl1Gndakoaz4G5iX6QO9qBpoDlJJPkNC8Dte1IHVImpnBykuHJEvE8UYxOkToF0IZ7HS8fJAMrTHPRx0h1d8XuPSZgohCuMUDD3YxtXRWd1QADLL8LWpkHotGwyOdoi8jiey2zoDnXa_IpQtlA7IfQ9Rxqo_YlXXAcZavyzv8ubHxNrvwxVOF]--></g></svg>