<svg xmlns="http://www.w3.org/2000/svg" xmlns:xlink="http://www.w3.org/1999/xlink" contentStyleType="text/css" data-diagram-type="SEQUENCE" height="877px" preserveAspectRatio="none" style="width:838px;height:877px;background:#FAFAFA;" version="1.1" viewBox="0 0 838 877" width="838px" zoomAndPan="magnify"><title>SD10 - Dar/Quitar like en publicaci&#243;n</title><defs/><g><rect fill="#FAFAFA" height="877" style="stroke:none;stroke-width:1;" width="838" x="0" y="0"/><text fill="#000000" font-family="sans-serif" font-size="14" font-weight="bold" lengthAdjust="spacing" textLength="292.0654" x="274.0085" y="27.9951">SD10 - Dar/Quitar like en publicaci&#243;n</text><rect fill="none" height="557.5938" style="stroke:#000000;stroke-width:1.5;" width="821.0825" x="10" y="221.9922"/><g><title>Usuario</title><rect fill="#000000" fill-opacity="0.00000" height="677.9922" width="8" x="45.6021" y="118.5938"/><line style="stroke:#FF7849;stroke-width:0.5;stroke-dasharray:5,5;" x1="49" x2="49" y1="118.5938" y2="796.5859"/></g><g><title>Frontend .React.</title><rect fill="#000000" fill-opacity="0.00000" height="677.9922" width="8" x="279.7349" y="118.5938"/><line style="stroke:#FF7849;stroke-width:0.5;stroke-dasharray:5,5;" x1="283.4399" x2="283.4399" y1="118.5938" y2="796.5859"/></g><g><title>Backend API .Node.Express.</title><rect fill="#000000" fill-opacity="0.00000" height="677.9922" width="8" x="529.7622" y="118.5938"/><line style="stroke:#FF7849;stroke-width:0.5;stroke-dasharray:5,5;" x1="533.4805" x2="533.4805" y1="118.5938" y2="796.5859"/></g><g><title>MongoDB</title><rect fill="#000000" fill-opacity="0.00000" height="677.9922" width="8" x="780.4053" y="118.5938"/><line style="stroke:#FF7849;stroke-width:0.5;stroke-dasharray:5,5;" x1="783.728" x2="783.728" y1="118.5938" y2="796.5859"/></g><g class="participant participant-head" data-participant="U"><text fill="#000000" font-family="sans-serif" font-size="14" lengthAdjust="spacing" textLength="53.2041" x="20" y="115.292">Usuario</text><ellipse cx="49.6021" cy="50.7969" fill="#E2E2F0" rx="8" ry="8" style="stroke:#181818;stroke-width:0.5;"/><path d="M49.6021,58.7969 L49.6021,85.7969 M36.6021,66.7969 L62.6021,66.7969 M49.6021,85.7969 L36.6021,100.7969 M49.6021,85.7969 L62.6021,100.7969" fill="none" style="stroke:#181818;stroke-width:0.5;"/></g><g class="participant participant-tail" data-participant="U"><text fill="#000000" font-family="sans-serif" font-size="14" lengthAdjust="spacing" textLength="53.2041" x="20" y="808.5811">Usuario</text><ellipse cx="49.6021" cy="820.3828" fill="#E2E2F0" rx="8" ry="8" style="stroke:#181818;stroke-width:0.5;"/><path d="M49.6021,828.3828 L49.6021,855.3828 M36.6021,836.3828 L62.6021,836.3828 M49.6021,855.3828 L36.6021,870.3828 M49.6021,855.3828 L62.6021,870.3828" fill="none" style="stroke:#181818;stroke-width:0.5;"/></g><g class="participant participant-head" data-participant="FE"><rect fill="#E2E2F0" height="30.2969" rx="2.5" ry="2.5" style="stroke:#181818;stroke-width:0.5;" width="132.5898" x="217.4399" y="87.2969"/><text fill="#000000" font-family="sans-serif" font-size="14" lengthAdjust="spacing" textLength="118.5898" x="224.4399" y="107.292">Frontend (React)</text></g><g class="participant participant-tail" data-participant="FE"><rect fill="#E2E2F0" height="30.2969" rx="2.5" ry="2.5" style="stroke:#181818;stroke-width:0.5;" width="132.5898" x="217.4399" y="795.5859"/><text fill="#000000" font-family="sans-serif" font-size="14" lengthAdjust="spacing" textLength="118.5898" x="224.4399" y="815.5811">Frontend (React)</text></g><g class="participant participant-head" data-participant="API"><rect fill="#E2E2F0" height="30.2969" rx="2.5" ry="2.5" style="stroke:#181818;stroke-width:0.5;" width="212.5635" x="427.4805" y="87.2969"/><text fill="#000000" font-family="sans-serif" font-size="14" lengthAdjust="spacing" textLength="198.5635" x="434.4805" y="107.292">Backend API (Node/Express)</text></g><g class="participant participant-tail" data-participant="API"><rect fill="#E2E2F0" height="30.2969" rx="2.5" ry="2.5" style="stroke:#181818;stroke-width:0.5;" width="212.5635" x="427.4805" y="795.5859"/><text fill="#000000" font-family="sans-serif" font-size="14" lengthAdjust="spacing" textLength="198.5635" x="434.4805" y="815.5811">Backend API (Node/Express)</text></g><g class="participant participant-head" data-participant="MDB"><text fill="#000000" font-family="sans-serif" font-size="14" lengthAdjust="spacing" textLength="67.3545" x="747.728" y="115.292">MongoDB</text><path d="M766.4053,66.2969 C766.4053,56.2969 784.4053,56.2969 784.4053,56.2969 C784.4053,56.2969 802.4053,56.2969 802.4053,66.2969 L802.4053,92.2969 C802.4053,102.2969 784.4053,102.2969 784.4053,102.2969 C784.4053,102.2969 766.4053,102.2969 766.4053,92.2969 L766.4053,66.2969" fill="#E2E2F0" style="stroke:#181818;stroke-width:0.5;"/><path d="M766.4053,66.2969 C766.4053,76.2969 784.4053,76.2969 784.4053,76.2969 C784.4053,76.2969 802.4053,76.2969 802.4053,66.2969" fill="none" style="stroke:#181818;stroke-width:0.5;"/></g><g class="participant participant-tail" data-participant="MDB"><text fill="#000000" font-family="sans-serif" font-size="14" lengthAdjust="spacing" textLength="67.3545" x="747.728" y="808.5811">MongoDB</text><path d="M766.4053,821.8828 C766.4053,811.8828 784.4053,811.8828 784.4053,811.8828 C784.4053,811.8828 802.4053,811.8828 802.4053,821.8828 L802.4053,847.8828 C802.4053,857.8828 784.4053,857.8828 784.4053,857.8828 C784.4053,857.8828 766.4053,857.8828 766.4053,847.8828 L766.4053,821.8828" fill="#E2E2F0" style="stroke:#181818;stroke-width:0.5;"/><path d="M766.4053,821.8828 C766.4053,831.8828 784.4053,831.8828 784.4053,831.8828 C784.4053,831.8828 802.4053,831.8828 802.4053,821.8828" fill="none" style="stroke:#181818;stroke-width:0.5;"/></g><g class="message" data-participant-1="U" data-participant-2="FE"><polygon fill="#FF7849" points="271.7349,160.8594,281.7349,164.8594,271.7349,168.8594,275.7349,164.8594" style="stroke:#FF7849;stroke-width:1;"/><line style="stroke:#FF7849;stroke-width:1;" x1="49.6021" x2="277.7349" y1="164.8594" y2="164.8594"/><text fill="#000000" font-family="sans-serif" font-size="13" lengthAdjust="spacing" textLength="120.7324" x="56.6021" y="144.6606">Pulsa icono de like</text><text fill="#000000" font-family="sans-serif" font-size="13" lengthAdjust="spacing" textLength="143.0635" x="56.6021" y="159.7935">sobre una publicaci&#243;n</text></g><g class="message" data-participant-1="FE" data-participant-2="FE"><line style="stroke:#FF7849;stroke-width:1;" x1="283.7349" x2="325.7349" y1="193.9922" y2="193.9922"/><line style="stroke:#FF7849;stroke-width:1;" x1="325.7349" x2="325.7349" y1="193.9922" y2="206.9922"/><line style="stroke:#FF7849;stroke-width:1;" x1="284.7349" x2="325.7349" y1="206.9922" y2="206.9922"/><polygon fill="#FF7849" points="294.7349,202.9922,284.7349,206.9922,294.7349,210.9922,290.7349,206.9922" style="stroke:#FF7849;stroke-width:1;"/><text fill="#000000" font-family="sans-serif" font-size="13" lengthAdjust="spacing" textLength="216.1885" x="290.7349" y="188.9263">Determinar si es like o quitar like</text></g><path d="M10,221.9922 L74.4429,221.9922 L74.4429,229.125 L64.4429,239.125 L10,239.125 L10,221.9922" fill="#EEEEEE" style="stroke:#000000;stroke-width:1.5;"/><rect fill="none" height="557.5938" style="stroke:#000000;stroke-width:1.5;" width="821.0825" x="10" y="221.9922"/><text fill="#000000" font-family="sans-serif" font-size="13" font-weight="bold" lengthAdjust="spacing" textLength="19.4429" x="25" y="235.0591">alt</text><text fill="#000000" font-family="sans-serif" font-size="11" font-weight="bold" lengthAdjust="spacing" textLength="58.1797" x="89.4429" y="234.2026">[Dar like]</text><g class="message" data-participant-1="FE" data-participant-2="API"><polygon fill="#FF7849" points="521.7622,256.2578,531.7622,260.2578,521.7622,264.2578,525.7622,260.2578" style="stroke:#FF7849;stroke-width:1;"/><line style="stroke:#FF7849;stroke-width:1;" x1="283.7349" x2="527.7622" y1="260.2578" y2="260.2578"/><text fill="#000000" font-family="sans-serif" font-size="13" lengthAdjust="spacing" textLength="226.0273" x="290.7349" y="255.1919">POST /reacciones {publicacion_id}</text></g><g class="message" data-participant-1="API" data-participant-2="API"><line style="stroke:#FF7849;stroke-width:1;" x1="533.7622" x2="575.7622" y1="289.3906" y2="289.3906"/><line style="stroke:#FF7849;stroke-width:1;" x1="575.7622" x2="575.7622" y1="289.3906" y2="302.3906"/><line style="stroke:#FF7849;stroke-width:1;" x1="534.7622" x2="575.7622" y1="302.3906" y2="302.3906"/><polygon fill="#FF7849" points="544.7622,298.3906,534.7622,302.3906,544.7622,306.3906,540.7622,302.3906" style="stroke:#FF7849;stroke-width:1;"/><text fill="#000000" font-family="sans-serif" font-size="13" lengthAdjust="spacing" textLength="187.897" x="540.7622" y="284.3247">Validar usuario y publicaci&#243;n</text></g><g class="message" data-participant-1="API" data-participant-2="MDB"><polygon fill="#FF7849" points="772.4053,327.5234,782.4053,331.5234,772.4053,335.5234,776.4053,331.5234" style="stroke:#FF7849;stroke-width:1;"/><line style="stroke:#FF7849;stroke-width:1;" x1="533.7622" x2="778.4053" y1="331.5234" y2="331.5234"/><text fill="#000000" font-family="sans-serif" font-size="13" lengthAdjust="spacing" textLength="226.6431" x="540.7622" y="326.4575">Insertar documento en Reacciones</text></g><g class="message" data-participant-1="MDB" data-participant-2="API"><polygon fill="#FF7849" points="544.7622,356.6563,534.7622,360.6563,544.7622,364.6563,540.7622,360.6563" style="stroke:#FF7849;stroke-width:1;"/><line style="stroke:#FF7849;stroke-width:1;stroke-dasharray:2,2;" x1="538.7622" x2="783.4053" y1="360.6563" y2="360.6563"/><text fill="#000000" font-family="sans-serif" font-size="13" lengthAdjust="spacing" textLength="18.7573" x="550.7622" y="355.5903">OK</text></g><g class="message" data-participant-1="API" data-participant-2="MDB"><polygon fill="#FF7849" points="772.4053,400.9219,782.4053,404.9219,772.4053,408.9219,776.4053,404.9219" style="stroke:#FF7849;stroke-width:1;"/><line style="stroke:#FF7849;stroke-width:1;" x1="533.7622" x2="778.4053" y1="404.9219" y2="404.9219"/><text fill="#000000" font-family="sans-serif" font-size="13" lengthAdjust="spacing" textLength="160.4434" x="540.7622" y="384.7231">Actualizar contador likes</text><text fill="#000000" font-family="sans-serif" font-size="13" lengthAdjust="spacing" textLength="108.7607" x="540.7622" y="399.856">en Publicaciones</text></g><g class="message" data-participant-1="MDB" data-participant-2="API"><polygon fill="#FF7849" points="544.7622,430.0547,534.7622,434.0547,544.7622,438.0547,540.7622,434.0547" style="stroke:#FF7849;stroke-width:1;"/><line style="stroke:#FF7849;stroke-width:1;stroke-dasharray:2,2;" x1="538.7622" x2="783.4053" y1="434.0547" y2="434.0547"/><text fill="#000000" font-family="sans-serif" font-size="13" lengthAdjust="spacing" textLength="18.7573" x="550.7622" y="428.9888">OK</text></g><g class="message" data-participant-1="API" data-participant-2="FE"><polygon fill="#FF7849" points="294.7349,459.1875,284.7349,463.1875,294.7349,467.1875,290.7349,463.1875" style="stroke:#FF7849;stroke-width:1;"/><line style="stroke:#FF7849;stroke-width:1;stroke-dasharray:2,2;" x1="288.7349" x2="532.7622" y1="463.1875" y2="463.1875"/><text fill="#000000" font-family="sans-serif" font-size="13" lengthAdjust="spacing" textLength="180.7495" x="300.7349" y="458.1216">200 OK {nuevo_total_likes}</text></g><g class="message" data-participant-1="FE" data-participant-2="U"><polygon fill="#FF7849" points="60.6021,503.4531,50.6021,507.4531,60.6021,511.4531,56.6021,507.4531" style="stroke:#FF7849;stroke-width:1;"/><line style="stroke:#FF7849;stroke-width:1;" x1="54.6021" x2="282.7349" y1="507.4531" y2="507.4531"/><text fill="#000000" font-family="sans-serif" font-size="13" lengthAdjust="spacing" textLength="198.2817" x="66.6021" y="487.2544">Actualizar icono a "like activo"</text><text fill="#000000" font-family="sans-serif" font-size="13" lengthAdjust="spacing" textLength="103.4351" x="66.6021" y="502.3872">y contador likes</text></g><line style="stroke:#000000;stroke-width:1;stroke-dasharray:2,2;" x1="10" x2="831.0825" y1="516.4531" y2="516.4531"/><text fill="#000000" font-family="sans-serif" font-size="11" font-weight="bold" lengthAdjust="spacing" textLength="75.2598" x="15" y="526.6636">[Quitar like]</text><g class="message" data-participant-1="FE" data-participant-2="API"><polygon fill="#FF7849" points="521.7622,562.5234,531.7622,566.5234,521.7622,570.5234,525.7622,566.5234" style="stroke:#FF7849;stroke-width:1;"/><line style="stroke:#FF7849;stroke-width:1;" x1="283.7349" x2="527.7622" y1="566.5234" y2="566.5234"/><text fill="#000000" font-family="sans-serif" font-size="13" lengthAdjust="spacing" textLength="223.2217" x="290.7349" y="546.3247">DELETE /reacciones/{id_reaccion}</text><text fill="#000000" font-family="sans-serif" font-size="13" lengthAdjust="spacing" textLength="55.6689" x="290.7349" y="561.4575">o similar</text></g><g class="message" data-participant-1="API" data-participant-2="MDB"><polygon fill="#FF7849" points="772.4053,591.6563,782.4053,595.6563,772.4053,599.6563,776.4053,595.6563" style="stroke:#FF7849;stroke-width:1;"/><line style="stroke:#FF7849;stroke-width:1;" x1="533.7622" x2="778.4053" y1="595.6563" y2="595.6563"/><text fill="#000000" font-family="sans-serif" font-size="13" lengthAdjust="spacing" textLength="211.1738" x="540.7622" y="590.5903">Eliminar reacci&#243;n en Reacciones</text></g><g class="message" data-participant-1="MDB" data-participant-2="API"><polygon fill="#FF7849" points="544.7622,620.7891,534.7622,624.7891,544.7622,628.7891,540.7622,624.7891" style="stroke:#FF7849;stroke-width:1;"/><line style="stroke:#FF7849;stroke-width:1;stroke-dasharray:2,2;" x1="538.7622" x2="783.4053" y1="624.7891" y2="624.7891"/><text fill="#000000" font-family="sans-serif" font-size="13" lengthAdjust="spacing" textLength="18.7573" x="550.7622" y="619.7231">OK</text></g><g class="message" data-participant-1="API" data-participant-2="MDB"><polygon fill="#FF7849" points="772.4053,665.0547,782.4053,669.0547,772.4053,673.0547,776.4053,669.0547" style="stroke:#FF7849;stroke-width:1;"/><line style="stroke:#FF7849;stroke-width:1;" x1="533.7622" x2="778.4053" y1="669.0547" y2="669.0547"/><text fill="#000000" font-family="sans-serif" font-size="13" lengthAdjust="spacing" textLength="181.5493" x="540.7622" y="648.856">Decrementar contador likes</text><text fill="#000000" font-family="sans-serif" font-size="13" lengthAdjust="spacing" textLength="108.7607" x="540.7622" y="663.9888">en Publicaciones</text></g><g class="message" data-participant-1="MDB" data-participant-2="API"><polygon fill="#FF7849" points="544.7622,694.1875,534.7622,698.1875,544.7622,702.1875,540.7622,698.1875" style="stroke:#FF7849;stroke-width:1;"/><line style="stroke:#FF7849;stroke-width:1;stroke-dasharray:2,2;" x1="538.7622" x2="783.4053" y1="698.1875" y2="698.1875"/><text fill="#000000" font-family="sans-serif" font-size="13" lengthAdjust="spacing" textLength="18.7573" x="550.7622" y="693.1216">OK</text></g><g class="message" data-participant-1="API" data-participant-2="FE"><polygon fill="#FF7849" points="294.7349,723.3203,284.7349,727.3203,294.7349,731.3203,290.7349,727.3203" style="stroke:#FF7849;stroke-width:1;"/><line style="stroke:#FF7849;stroke-width:1;stroke-dasharray:2,2;" x1="288.7349" x2="532.7622" y1="727.3203" y2="727.3203"/><text fill="#000000" font-family="sans-serif" font-size="13" lengthAdjust="spacing" textLength="180.7495" x="300.7349" y="722.2544">200 OK {nuevo_total_likes}</text></g><g class="message" data-participant-1="FE" data-participant-2="U"><polygon fill="#FF7849" points="60.6021,767.5859,50.6021,771.5859,60.6021,775.5859,56.6021,771.5859" style="stroke:#FF7849;stroke-width:1;"/><line style="stroke:#FF7849;stroke-width:1;" x1="54.6021" x2="282.7349" y1="771.5859" y2="771.5859"/><text fill="#000000" font-family="sans-serif" font-size="13" lengthAdjust="spacing" textLength="210.1328" x="66.6021" y="751.3872">Actualizar icono a "like inactivo"</text><text fill="#000000" font-family="sans-serif" font-size="13" lengthAdjust="spacing" textLength="103.4351" x="66.6021" y="766.52">y contador likes</text></g><!--SRC=[pPB1RXCn48RlVefHk9H3bO2GW1wG4dOZLQGqj0sdI95ZJwfHd9dKzXPAbAVY4NWnPhDDcWGLYHkx9zk__t_c6sVA0U6wUDM1KoXiR7-fADi8WUO8oB2ife6STVJh9nkJviHB6-q2fjRDRwDKx3zAa0WlPhR-znG9xofaXx0o0DqOvTjMENlxxirxtHpG30V4s9FeCJvx-aVIvZDhOwpBkZ5AbOqaO1ECZ6PdShIqdA7LZy8PsSF95QhsPQlMzCj3KUrVQxh3SpZvB1xRvVTbn9GQkMuRRxETseJGkX2-bQAtERaeUiQCuFI3Mfx1i0h90ZbX0OyRVcDECeq85Tj3ZlroUwl0Z751hCGJ0QQ6ky3TqnIqpP3hqJGhWEQsrgMXbzStq8xQd2DXlRxQvGXFoAzhzDhNLl_L1lBgL3qYUpYiQoVMrixWd1F6kWelhbeWPwaVnDKkJEMgWzEj-UMd8uEkovK6_b0BnPAjbwQ7D6Or6ZvL-ZUlHr2lEntTX1LNU2-JBDc6oSPhlICoEaXi9c6XjI6gqwTxQOtvuQWKWq7dklVe3m4NvQ2yAVSHjrVa9zlbUgmPYHOKR3nglWpKpBNHAjv_f5UWYrXZ_m_mQIFF0sJ_6m00]--></g></svg>