<svg xmlns="http://www.w3.org/2000/svg" xmlns:xlink="http://www.w3.org/1999/xlink" contentStyleType="text/css" data-diagram-type="SEQUENCE" height="993px" preserveAspectRatio="none" style="width:838px;height:993px;background:#FAFAFA;" version="1.1" viewBox="0 0 838 993" width="838px" zoomAndPan="magnify"><title>SD11 - Unirse a un reto</title><defs/><g><rect fill="#FAFAFA" height="993" style="stroke:none;stroke-width:1;" width="838" x="0" y="0"/><text fill="#000000" font-family="sans-serif" font-size="14" font-weight="bold" lengthAdjust="spacing" textLength="184.3242" x="328.0188" y="27.9951">SD11 - Unirse a un reto</text><rect fill="none" height="237" style="stroke:#000000;stroke-width:1.5;" width="821.3618" x="10" y="658.9844"/><g><title>Usuario</title><rect fill="#000000" fill-opacity="0.00000" height="794.3906" width="8" x="45.6021" y="118.5938"/><line style="stroke:#FF7849;stroke-width:0.5;stroke-dasharray:5,5;" x1="49" x2="49" y1="118.5938" y2="912.9844"/></g><g><title>Frontend .React.</title><rect fill="#000000" fill-opacity="0.00000" height="794.3906" width="8" x="324.4858" y="118.5938"/><line style="stroke:#FF7849;stroke-width:0.5;stroke-dasharray:5,5;" x1="328.1909" x2="328.1909" y1="118.5938" y2="912.9844"/></g><g><title>Backend API .Node.Express.</title><rect fill="#000000" fill-opacity="0.00000" height="794.3906" width="8" x="552.0107" y="118.5938"/><line style="stroke:#FF7849;stroke-width:0.5;stroke-dasharray:5,5;" x1="555.729" x2="555.729" y1="118.5938" y2="912.9844"/></g><g><title>MongoDB</title><rect fill="#000000" fill-opacity="0.00000" height="794.3906" width="8" x="780.6846" y="118.5938"/><line style="stroke:#FF7849;stroke-width:0.5;stroke-dasharray:5,5;" x1="784.0073" x2="784.0073" y1="118.5938" y2="912.9844"/></g><g class="participant participant-head" data-participant="U"><text fill="#000000" font-family="sans-serif" font-size="14" lengthAdjust="spacing" textLength="53.2041" x="20" y="115.292">Usuario</text><ellipse cx="49.6021" cy="50.7969" fill="#E2E2F0" rx="8" ry="8" style="stroke:#181818;stroke-width:0.5;"/><path d="M49.6021,58.7969 L49.6021,85.7969 M36.6021,66.7969 L62.6021,66.7969 M49.6021,85.7969 L36.6021,100.7969 M49.6021,85.7969 L62.6021,100.7969" fill="none" style="stroke:#181818;stroke-width:0.5;"/></g><g class="participant participant-tail" data-participant="U"><text fill="#000000" font-family="sans-serif" font-size="14" lengthAdjust="spacing" textLength="53.2041" x="20" y="924.9795">Usuario</text><ellipse cx="49.6021" cy="936.7813" fill="#E2E2F0" rx="8" ry="8" style="stroke:#181818;stroke-width:0.5;"/><path d="M49.6021,944.7813 L49.6021,971.7813 M36.6021,952.7813 L62.6021,952.7813 M49.6021,971.7813 L36.6021,986.7813 M49.6021,971.7813 L62.6021,986.7813" fill="none" style="stroke:#181818;stroke-width:0.5;"/></g><g class="participant participant-head" data-participant="FE"><rect fill="#E2E2F0" height="30.2969" rx="2.5" ry="2.5" style="stroke:#181818;stroke-width:0.5;" width="132.5898" x="262.1909" y="87.2969"/><text fill="#000000" font-family="sans-serif" font-size="14" lengthAdjust="spacing" textLength="118.5898" x="269.1909" y="107.292">Frontend (React)</text></g><g class="participant participant-tail" data-participant="FE"><rect fill="#E2E2F0" height="30.2969" rx="2.5" ry="2.5" style="stroke:#181818;stroke-width:0.5;" width="132.5898" x="262.1909" y="911.9844"/><text fill="#000000" font-family="sans-serif" font-size="14" lengthAdjust="spacing" textLength="118.5898" x="269.1909" y="931.9795">Frontend (React)</text></g><g class="participant participant-head" data-participant="API"><rect fill="#E2E2F0" height="30.2969" rx="2.5" ry="2.5" style="stroke:#181818;stroke-width:0.5;" width="212.5635" x="449.729" y="87.2969"/><text fill="#000000" font-family="sans-serif" font-size="14" lengthAdjust="spacing" textLength="198.5635" x="456.729" y="107.292">Backend API (Node/Express)</text></g><g class="participant participant-tail" data-participant="API"><rect fill="#E2E2F0" height="30.2969" rx="2.5" ry="2.5" style="stroke:#181818;stroke-width:0.5;" width="212.5635" x="449.729" y="911.9844"/><text fill="#000000" font-family="sans-serif" font-size="14" lengthAdjust="spacing" textLength="198.5635" x="456.729" y="931.9795">Backend API (Node/Express)</text></g><g class="participant participant-head" data-participant="MDB"><text fill="#000000" font-family="sans-serif" font-size="14" lengthAdjust="spacing" textLength="67.3545" x="748.0073" y="115.292">MongoDB</text><path d="M766.6846,66.2969 C766.6846,56.2969 784.6846,56.2969 784.6846,56.2969 C784.6846,56.2969 802.6846,56.2969 802.6846,66.2969 L802.6846,92.2969 C802.6846,102.2969 784.6846,102.2969 784.6846,102.2969 C784.6846,102.2969 766.6846,102.2969 766.6846,92.2969 L766.6846,66.2969" fill="#E2E2F0" style="stroke:#181818;stroke-width:0.5;"/><path d="M766.6846,66.2969 C766.6846,76.2969 784.6846,76.2969 784.6846,76.2969 C784.6846,76.2969 802.6846,76.2969 802.6846,66.2969" fill="none" style="stroke:#181818;stroke-width:0.5;"/></g><g class="participant participant-tail" data-participant="MDB"><text fill="#000000" font-family="sans-serif" font-size="14" lengthAdjust="spacing" textLength="67.3545" x="748.0073" y="924.9795">MongoDB</text><path d="M766.6846,938.2813 C766.6846,928.2813 784.6846,928.2813 784.6846,928.2813 C784.6846,928.2813 802.6846,928.2813 802.6846,938.2813 L802.6846,964.2813 C802.6846,974.2813 784.6846,974.2813 784.6846,974.2813 C784.6846,974.2813 766.6846,974.2813 766.6846,964.2813 L766.6846,938.2813" fill="#E2E2F0" style="stroke:#181818;stroke-width:0.5;"/><path d="M766.6846,938.2813 C766.6846,948.2813 784.6846,948.2813 784.6846,948.2813 C784.6846,948.2813 802.6846,948.2813 802.6846,938.2813" fill="none" style="stroke:#181818;stroke-width:0.5;"/></g><g class="message" data-participant-1="U" data-participant-2="FE"><polygon fill="#FF7849" points="316.4858,145.7266,326.4858,149.7266,316.4858,153.7266,320.4858,149.7266" style="stroke:#FF7849;stroke-width:1;"/><line style="stroke:#FF7849;stroke-width:1;" x1="49.6021" x2="322.4858" y1="149.7266" y2="149.7266"/><text fill="#000000" font-family="sans-serif" font-size="13" lengthAdjust="spacing" textLength="144.8599" x="56.6021" y="144.6606">Abre secci&#243;n de Retos</text></g><g class="message" data-participant-1="FE" data-participant-2="API"><polygon fill="#FF7849" points="544.0107,174.8594,554.0107,178.8594,544.0107,182.8594,548.0107,178.8594" style="stroke:#FF7849;stroke-width:1;"/><line style="stroke:#FF7849;stroke-width:1;" x1="328.4858" x2="550.0107" y1="178.8594" y2="178.8594"/><text fill="#000000" font-family="sans-serif" font-size="13" lengthAdjust="spacing" textLength="67.9072" x="335.4858" y="173.7935">GET /retos</text></g><g class="message" data-participant-1="API" data-participant-2="MDB"><polygon fill="#FF7849" points="772.6846,203.9922,782.6846,207.9922,772.6846,211.9922,776.6846,207.9922" style="stroke:#FF7849;stroke-width:1;"/><line style="stroke:#FF7849;stroke-width:1;" x1="556.0107" x2="778.6846" y1="207.9922" y2="207.9922"/><text fill="#000000" font-family="sans-serif" font-size="13" lengthAdjust="spacing" textLength="194.6953" x="563.0107" y="202.9263">Buscar todos los retos activos</text></g><g class="message" data-participant-1="MDB" data-participant-2="API"><polygon fill="#FF7849" points="567.0107,233.125,557.0107,237.125,567.0107,241.125,563.0107,237.125" style="stroke:#FF7849;stroke-width:1;"/><line style="stroke:#FF7849;stroke-width:1;stroke-dasharray:2,2;" x1="561.0107" x2="783.6846" y1="237.125" y2="237.125"/><text fill="#000000" font-family="sans-serif" font-size="13" lengthAdjust="spacing" textLength="88.3721" x="573.0107" y="232.0591">Lista de retos</text></g><g class="message" data-participant-1="API" data-participant-2="FE"><polygon fill="#FF7849" points="339.4858,262.2578,329.4858,266.2578,339.4858,270.2578,335.4858,266.2578" style="stroke:#FF7849;stroke-width:1;"/><line style="stroke:#FF7849;stroke-width:1;stroke-dasharray:2,2;" x1="333.4858" x2="555.0107" y1="266.2578" y2="266.2578"/><text fill="#000000" font-family="sans-serif" font-size="13" lengthAdjust="spacing" textLength="101.5435" x="345.4858" y="261.1919">200 OK {retos}</text></g><g class="message" data-participant-1="FE" data-participant-2="U"><polygon fill="#FF7849" points="60.6021,291.3906,50.6021,295.3906,60.6021,299.3906,56.6021,295.3906" style="stroke:#FF7849;stroke-width:1;"/><line style="stroke:#FF7849;stroke-width:1;" x1="54.6021" x2="327.4858" y1="295.3906" y2="295.3906"/><text fill="#000000" font-family="sans-serif" font-size="13" lengthAdjust="spacing" textLength="154.7749" x="66.6021" y="290.3247">Mostrar listado de retos</text></g><g class="message" data-participant-1="U" data-participant-2="FE"><polygon fill="#FF7849" points="316.4858,320.5234,326.4858,324.5234,316.4858,328.5234,320.4858,324.5234" style="stroke:#FF7849;stroke-width:1;"/><line style="stroke:#FF7849;stroke-width:1;" x1="49.6021" x2="322.4858" y1="324.5234" y2="324.5234"/><text fill="#000000" font-family="sans-serif" font-size="13" lengthAdjust="spacing" textLength="121.0625" x="56.6021" y="319.4575">Selecciona un reto</text></g><g class="message" data-participant-1="FE" data-participant-2="API"><polygon fill="#FF7849" points="544.0107,349.6563,554.0107,353.6563,544.0107,357.6563,548.0107,353.6563" style="stroke:#FF7849;stroke-width:1;"/><line style="stroke:#FF7849;stroke-width:1;" x1="328.4858" x2="550.0107" y1="353.6563" y2="353.6563"/><text fill="#000000" font-family="sans-serif" font-size="13" lengthAdjust="spacing" textLength="100.6929" x="335.4858" y="348.5903">GET /retos/{id}</text></g><g class="message" data-participant-1="API" data-participant-2="MDB"><polygon fill="#FF7849" points="772.6846,378.7891,782.6846,382.7891,772.6846,386.7891,776.6846,382.7891" style="stroke:#FF7849;stroke-width:1;"/><line style="stroke:#FF7849;stroke-width:1;" x1="556.0107" x2="778.6846" y1="382.7891" y2="382.7891"/><text fill="#000000" font-family="sans-serif" font-size="13" lengthAdjust="spacing" textLength="116.5938" x="563.0107" y="377.7231">Buscar reto por id</text></g><g class="message" data-participant-1="MDB" data-participant-2="API"><polygon fill="#FF7849" points="567.0107,407.9219,557.0107,411.9219,567.0107,415.9219,563.0107,411.9219" style="stroke:#FF7849;stroke-width:1;"/><line style="stroke:#FF7849;stroke-width:1;stroke-dasharray:2,2;" x1="561.0107" x2="783.6846" y1="411.9219" y2="411.9219"/><text fill="#000000" font-family="sans-serif" font-size="13" lengthAdjust="spacing" textLength="76.8193" x="573.0107" y="406.856">Detalle reto</text></g><g class="message" data-participant-1="API" data-participant-2="FE"><polygon fill="#FF7849" points="339.4858,437.0547,329.4858,441.0547,339.4858,445.0547,335.4858,441.0547" style="stroke:#FF7849;stroke-width:1;"/><line style="stroke:#FF7849;stroke-width:1;stroke-dasharray:2,2;" x1="333.4858" x2="555.0107" y1="441.0547" y2="441.0547"/><text fill="#000000" font-family="sans-serif" font-size="13" lengthAdjust="spacing" textLength="94.7705" x="345.4858" y="435.9888">200 OK {reto}</text></g><g class="message" data-participant-1="FE" data-participant-2="U"><polygon fill="#FF7849" points="60.6021,466.1875,50.6021,470.1875,60.6021,474.1875,56.6021,470.1875" style="stroke:#FF7849;stroke-width:1;"/><line style="stroke:#FF7849;stroke-width:1;" x1="54.6021" x2="327.4858" y1="470.1875" y2="470.1875"/><text fill="#000000" font-family="sans-serif" font-size="13" lengthAdjust="spacing" textLength="152.8833" x="66.6021" y="465.1216">Mostrar detalle del reto</text></g><g class="message" data-participant-1="U" data-participant-2="FE"><polygon fill="#FF7849" points="316.4858,495.3203,326.4858,499.3203,316.4858,503.3203,320.4858,499.3203" style="stroke:#FF7849;stroke-width:1;"/><line style="stroke:#FF7849;stroke-width:1;" x1="49.6021" x2="322.4858" y1="499.3203" y2="499.3203"/><text fill="#000000" font-family="sans-serif" font-size="13" lengthAdjust="spacing" textLength="138.2393" x="56.6021" y="494.2544">Pulsa "Unirse al reto"</text></g><g class="message" data-participant-1="FE" data-participant-2="API"><polygon fill="#FF7849" points="544.0107,524.4531,554.0107,528.4531,544.0107,532.4531,548.0107,528.4531" style="stroke:#FF7849;stroke-width:1;"/><line style="stroke:#FF7849;stroke-width:1;" x1="328.4858" x2="550.0107" y1="528.4531" y2="528.4531"/><text fill="#000000" font-family="sans-serif" font-size="13" lengthAdjust="spacing" textLength="136.5254" x="335.4858" y="523.3872">POST /retos/{id}/join</text></g><g class="message" data-participant-1="API" data-participant-2="API"><line style="stroke:#FF7849;stroke-width:1;" x1="556.0107" x2="598.0107" y1="557.5859" y2="557.5859"/><line style="stroke:#FF7849;stroke-width:1;" x1="598.0107" x2="598.0107" y1="557.5859" y2="570.5859"/><line style="stroke:#FF7849;stroke-width:1;" x1="557.0107" x2="598.0107" y1="570.5859" y2="570.5859"/><polygon fill="#FF7849" points="567.0107,566.5859,557.0107,570.5859,567.0107,574.5859,563.0107,570.5859" style="stroke:#FF7849;stroke-width:1;"/><text fill="#000000" font-family="sans-serif" font-size="13" lengthAdjust="spacing" textLength="140.2578" x="563.0107" y="552.52">Validar usuario y reto</text></g><g class="message" data-participant-1="API" data-participant-2="MDB"><polygon fill="#FF7849" points="772.6846,610.8516,782.6846,614.8516,772.6846,618.8516,776.6846,614.8516" style="stroke:#FF7849;stroke-width:1;"/><line style="stroke:#FF7849;stroke-width:1;" x1="556.0107" x2="778.6846" y1="614.8516" y2="614.8516"/><text fill="#000000" font-family="sans-serif" font-size="13" lengthAdjust="spacing" textLength="150.4204" x="563.0107" y="594.6528">Comprobar si ya existe</text><text fill="#000000" font-family="sans-serif" font-size="13" lengthAdjust="spacing" textLength="149.9443" x="563.0107" y="609.7856">Progreso_Reto_Usuario</text></g><g class="message" data-participant-1="MDB" data-participant-2="API"><polygon fill="#FF7849" points="567.0107,639.9844,557.0107,643.9844,567.0107,647.9844,563.0107,643.9844" style="stroke:#FF7849;stroke-width:1;"/><line style="stroke:#FF7849;stroke-width:1;stroke-dasharray:2,2;" x1="561.0107" x2="783.6846" y1="643.9844" y2="643.9844"/><text fill="#000000" font-family="sans-serif" font-size="13" lengthAdjust="spacing" textLength="64.9238" x="573.0107" y="638.9185">Resultado</text></g><path d="M10,658.9844 L74.4429,658.9844 L74.4429,666.1172 L64.4429,676.1172 L10,676.1172 L10,658.9844" fill="#EEEEEE" style="stroke:#000000;stroke-width:1.5;"/><rect fill="none" height="237" style="stroke:#000000;stroke-width:1.5;" width="821.3618" x="10" y="658.9844"/><text fill="#000000" font-family="sans-serif" font-size="13" font-weight="bold" lengthAdjust="spacing" textLength="19.4429" x="25" y="672.0513">alt</text><text fill="#000000" font-family="sans-serif" font-size="11" font-weight="bold" lengthAdjust="spacing" textLength="109.9517" x="89.4429" y="671.1948">[Ya estaba unido]</text><g class="message" data-participant-1="API" data-participant-2="FE"><polygon fill="#FF7849" points="339.4858,693.25,329.4858,697.25,339.4858,701.25,335.4858,697.25" style="stroke:#FF7849;stroke-width:1;"/><line style="stroke:#FF7849;stroke-width:1;stroke-dasharray:2,2;" x1="333.4858" x2="555.0107" y1="697.25" y2="697.25"/><text fill="#000000" font-family="sans-serif" font-size="13" lengthAdjust="spacing" textLength="147.7861" x="345.4858" y="692.1841">200 OK {ya_participa}</text></g><g class="message" data-participant-1="FE" data-participant-2="U"><polygon fill="#FF7849" points="60.6021,722.3828,50.6021,726.3828,60.6021,730.3828,56.6021,726.3828" style="stroke:#FF7849;stroke-width:1;"/><line style="stroke:#FF7849;stroke-width:1;" x1="54.6021" x2="327.4858" y1="726.3828" y2="726.3828"/><text fill="#000000" font-family="sans-serif" font-size="13" lengthAdjust="spacing" textLength="203.3281" x="66.6021" y="721.3169">Mostrar "Ya est&#225;s en este reto"</text></g><line style="stroke:#000000;stroke-width:1;stroke-dasharray:2,2;" x1="10" x2="831.3618" y1="735.3828" y2="735.3828"/><text fill="#000000" font-family="sans-serif" font-size="11" font-weight="bold" lengthAdjust="spacing" textLength="111.3267" x="15" y="745.5933">[No estaba unido]</text><g class="message" data-participant-1="API" data-participant-2="MDB"><polygon fill="#FF7849" points="772.6846,781.4531,782.6846,785.4531,772.6846,789.4531,776.6846,785.4531" style="stroke:#FF7849;stroke-width:1;"/><line style="stroke:#FF7849;stroke-width:1;" x1="556.0107" x2="778.6846" y1="785.4531" y2="785.4531"/><text fill="#000000" font-family="sans-serif" font-size="13" lengthAdjust="spacing" textLength="204.6738" x="563.0107" y="765.2544">Insertar Progreso_Reto_Usuario</text><text fill="#000000" font-family="sans-serif" font-size="13" lengthAdjust="spacing" textLength="139.7437" x="563.0107" y="780.3872">(progreso_inicial = 0)</text></g><g class="message" data-participant-1="MDB" data-participant-2="API"><polygon fill="#FF7849" points="567.0107,810.5859,557.0107,814.5859,567.0107,818.5859,563.0107,814.5859" style="stroke:#FF7849;stroke-width:1;"/><line style="stroke:#FF7849;stroke-width:1;stroke-dasharray:2,2;" x1="561.0107" x2="783.6846" y1="814.5859" y2="814.5859"/><text fill="#000000" font-family="sans-serif" font-size="13" lengthAdjust="spacing" textLength="18.7573" x="573.0107" y="809.52">OK</text></g><g class="message" data-participant-1="API" data-participant-2="FE"><polygon fill="#FF7849" points="339.4858,839.7188,329.4858,843.7188,339.4858,847.7188,335.4858,843.7188" style="stroke:#FF7849;stroke-width:1;"/><line style="stroke:#FF7849;stroke-width:1;stroke-dasharray:2,2;" x1="333.4858" x2="555.0107" y1="843.7188" y2="843.7188"/><text fill="#000000" font-family="sans-serif" font-size="13" lengthAdjust="spacing" textLength="203.5249" x="345.4858" y="838.6528">201 Created {progreso_inicial}</text></g><g class="message" data-participant-1="FE" data-participant-2="U"><polygon fill="#FF7849" points="60.6021,883.9844,50.6021,887.9844,60.6021,891.9844,56.6021,887.9844" style="stroke:#FF7849;stroke-width:1;"/><line style="stroke:#FF7849;stroke-width:1;" x1="54.6021" x2="327.4858" y1="887.9844" y2="887.9844"/><text fill="#000000" font-family="sans-serif" font-size="13" lengthAdjust="spacing" textLength="254.8838" x="66.6021" y="867.7856">Mostrar mensaje "Te has unido al reto"</text><text fill="#000000" font-family="sans-serif" font-size="13" lengthAdjust="spacing" textLength="183.5234" x="66.6021" y="882.9185">y marcar como Participando</text></g><!--SRC=[TLFRYXf147sVhoWcB-w3g26GH4Z0QrXMLz4r412adIvDxxPTfhidMH4_PhyXdx0_bkfnlCLPHP2gqwTEdJxjbTS8utQj1cMO66KTWe3KW4LFKUIUb5aBArOm5ydJqb9gP8iqMNYt4E5xXd3uAqMJ86mZW8QrzEU0N7pyzE4p5tjgWJrbi4bMedspUpKf-qIxA1A9vyB4fS8g0k5W4l5ihnAr5iP3tBLaF1e9fH4ozYOEc6xd4XJu0wOnl8NIFKciT9xN5ftRmxaSIU75NB0LSP_CajhDhDDlDwDe0kMlJ5c7njmYxvmawlMl0OamOiTSrEq409FKuLld0IesguPPN6Q6EZHJbmWBdYGvqFpB8C1wrM-6CWRA1ugUSbu4yZEQVFxxQXK6Tx3DEhjyxgGEVNBUChyEHoMT3f-aZr47tMHEDrqekx9LSbUaFNHXpLUXvANUDdgXzNxYcseBnChyd4IT9-yeTfXg9o0-P7FVZyy53mVZ2yMLHr8cEkZE8D-5LfBdf7bqDcSAyzLQj5fRcZF8ATW8m6Ss4ATcQ6d9wQ1PkDzPdhtBhKVeKXtCveHg3p_ui0i1OdSL5m6AdDY8sJ6MEyPSUHBlULvV7A09_p1V7JKRSK-5G_9bRer3wvcaKFtKbDQ7kZAiW5tz0jKR9hdOQt1tfRq6BOl2euJj_nI5IwpGEF783-a1uIU_eKpiyHQdPWChOKEa4beH38_lb3VYD_eF]--></g></svg>