<svg xmlns="http://www.w3.org/2000/svg" xmlns:xlink="http://www.w3.org/1999/xlink" contentStyleType="text/css" data-diagram-type="SEQUENCE" height="600px" preserveAspectRatio="none" style="width:1007px;height:600px;background:#FAFAFA;" version="1.1" viewBox="0 0 1007 600" width="1007px" zoomAndPan="magnify"><title>SD3 - Onboarding inicial</title><defs/><g><rect fill="#FAFAFA" height="600" style="stroke:none;stroke-width:1;" width="1007" x="0" y="0"/><text fill="#000000" font-family="sans-serif" font-size="14" font-weight="bold" lengthAdjust="spacing" textLength="191.4541" x="406.2112" y="27.9951">SD3 - Onboarding inicial</text><g><title>Usuario</title><rect fill="#000000" fill-opacity="0.00000" height="401.125" width="8" x="30.6021" y="118.5938"/><line style="stroke:#FF7849;stroke-width:0.5;stroke-dasharray:5,5;" x1="34" x2="34" y1="118.5938" y2="519.7188"/></g><g><title>Frontend .React.</title><rect fill="#000000" fill-opacity="0.00000" height="401.125" width="8" x="256.832" y="118.5938"/><line style="stroke:#FF7849;stroke-width:0.5;stroke-dasharray:5,5;" x1="260.5371" x2="260.5371" y1="118.5938" y2="519.7188"/></g><g><title>Backend API .Node.Express.</title><rect fill="#000000" fill-opacity="0.00000" height="401.125" width="8" x="658.105" y="118.5938"/><line style="stroke:#FF7849;stroke-width:0.5;stroke-dasharray:5,5;" x1="661.8232" x2="661.8232" y1="118.5938" y2="519.7188"/></g><g><title>MySQL</title><rect fill="#000000" fill-opacity="0.00000" height="401.125" width="8" x="968.8413" y="118.5938"/><line style="stroke:#FF7849;stroke-width:0.5;stroke-dasharray:5,5;" x1="972.8062" x2="972.8062" y1="118.5938" y2="519.7188"/></g><g class="participant participant-head" data-participant="U"><text fill="#000000" font-family="sans-serif" font-size="14" lengthAdjust="spacing" textLength="53.2041" x="5" y="115.292">Usuario</text><ellipse cx="34.6021" cy="50.7969" fill="#E2E2F0" rx="8" ry="8" style="stroke:#181818;stroke-width:0.5;"/><path d="M34.6021,58.7969 L34.6021,85.7969 M21.6021,66.7969 L47.6021,66.7969 M34.6021,85.7969 L21.6021,100.7969 M34.6021,85.7969 L47.6021,100.7969" fill="none" style="stroke:#181818;stroke-width:0.5;"/></g><g class="participant participant-tail" data-participant="U"><text fill="#000000" font-family="sans-serif" font-size="14" lengthAdjust="spacing" textLength="53.2041" x="5" y="531.7139">Usuario</text><ellipse cx="34.6021" cy="543.5156" fill="#E2E2F0" rx="8" ry="8" style="stroke:#181818;stroke-width:0.5;"/><path d="M34.6021,551.5156 L34.6021,578.5156 M21.6021,559.5156 L47.6021,559.5156 M34.6021,578.5156 L21.6021,593.5156 M34.6021,578.5156 L47.6021,593.5156" fill="none" style="stroke:#181818;stroke-width:0.5;"/></g><g class="participant participant-head" data-participant="FE"><rect fill="#E2E2F0" height="30.2969" rx="2.5" ry="2.5" style="stroke:#181818;stroke-width:0.5;" width="132.5898" x="194.5371" y="87.2969"/><text fill="#000000" font-family="sans-serif" font-size="14" lengthAdjust="spacing" textLength="118.5898" x="201.5371" y="107.292">Frontend (React)</text></g><g class="participant participant-tail" data-participant="FE"><rect fill="#E2E2F0" height="30.2969" rx="2.5" ry="2.5" style="stroke:#181818;stroke-width:0.5;" width="132.5898" x="194.5371" y="518.7188"/><text fill="#000000" font-family="sans-serif" font-size="14" lengthAdjust="spacing" textLength="118.5898" x="201.5371" y="538.7139">Frontend (React)</text></g><g class="participant participant-head" data-participant="API"><rect fill="#E2E2F0" height="30.2969" rx="2.5" ry="2.5" style="stroke:#181818;stroke-width:0.5;" width="212.5635" x="555.8232" y="87.2969"/><text fill="#000000" font-family="sans-serif" font-size="14" lengthAdjust="spacing" textLength="198.5635" x="562.8232" y="107.292">Backend API (Node/Express)</text></g><g class="participant participant-tail" data-participant="API"><rect fill="#E2E2F0" height="30.2969" rx="2.5" ry="2.5" style="stroke:#181818;stroke-width:0.5;" width="212.5635" x="555.8232" y="518.7188"/><text fill="#000000" font-family="sans-serif" font-size="14" lengthAdjust="spacing" textLength="198.5635" x="562.8232" y="538.7139">Backend API (Node/Express)</text></g><g class="participant participant-head" data-participant="SQL"><text fill="#000000" font-family="sans-serif" font-size="14" lengthAdjust="spacing" textLength="48.0703" x="945.8062" y="115.292">MySQL</text><path d="M954.8413,66.2969 C954.8413,56.2969 972.8413,56.2969 972.8413,56.2969 C972.8413,56.2969 990.8413,56.2969 990.8413,66.2969 L990.8413,92.2969 C990.8413,102.2969 972.8413,102.2969 972.8413,102.2969 C972.8413,102.2969 954.8413,102.2969 954.8413,92.2969 L954.8413,66.2969" fill="#E2E2F0" style="stroke:#181818;stroke-width:0.5;"/><path d="M954.8413,66.2969 C954.8413,76.2969 972.8413,76.2969 972.8413,76.2969 C972.8413,76.2969 990.8413,76.2969 990.8413,66.2969" fill="none" style="stroke:#181818;stroke-width:0.5;"/></g><g class="participant participant-tail" data-participant="SQL"><text fill="#000000" font-family="sans-serif" font-size="14" lengthAdjust="spacing" textLength="48.0703" x="945.8062" y="531.7139">MySQL</text><path d="M954.8413,545.0156 C954.8413,535.0156 972.8413,535.0156 972.8413,535.0156 C972.8413,535.0156 990.8413,535.0156 990.8413,545.0156 L990.8413,571.0156 C990.8413,581.0156 972.8413,581.0156 972.8413,581.0156 C972.8413,581.0156 954.8413,581.0156 954.8413,571.0156 L954.8413,545.0156" fill="#E2E2F0" style="stroke:#181818;stroke-width:0.5;"/><path d="M954.8413,545.0156 C954.8413,555.0156 972.8413,555.0156 972.8413,555.0156 C972.8413,555.0156 990.8413,555.0156 990.8413,545.0156" fill="none" style="stroke:#181818;stroke-width:0.5;"/></g><g class="message" data-participant-1="U" data-participant-2="FE"><polygon fill="#FF7849" points="248.832,160.8594,258.832,164.8594,248.832,168.8594,252.832,164.8594" style="stroke:#FF7849;stroke-width:1;"/><line style="stroke:#FF7849;stroke-width:1;" x1="34.6021" x2="254.832" y1="164.8594" y2="164.8594"/><text fill="#000000" font-family="sans-serif" font-size="13" lengthAdjust="spacing" textLength="159.8975" x="41.6021" y="144.6606">Accede tras primer login</text><text fill="#000000" font-family="sans-serif" font-size="13" lengthAdjust="spacing" textLength="202.23" x="41.6021" y="159.7935">(onboarding_pendiente = true)</text></g><g class="message" data-participant-1="FE" data-participant-2="U"><polygon fill="#FF7849" points="45.6021,205.125,35.6021,209.125,45.6021,213.125,41.6021,209.125" style="stroke:#FF7849;stroke-width:1;"/><line style="stroke:#FF7849;stroke-width:1;" x1="39.6021" x2="259.832" y1="209.125" y2="209.125"/><text fill="#000000" font-family="sans-serif" font-size="13" lengthAdjust="spacing" textLength="192.4038" x="51.6021" y="188.9263">Mostrar pasos de Onboarding</text><text fill="#000000" font-family="sans-serif" font-size="13" lengthAdjust="spacing" textLength="190.6201" x="51.6021" y="204.0591">(datos f&#237;sicos, nivel, objetivo)</text></g><g class="message" data-participant-1="U" data-participant-2="FE"><polygon fill="#FF7849" points="248.832,234.2578,258.832,238.2578,248.832,242.2578,252.832,238.2578" style="stroke:#FF7849;stroke-width:1;"/><line style="stroke:#FF7849;stroke-width:1;" x1="34.6021" x2="254.832" y1="238.2578" y2="238.2578"/><text fill="#000000" font-family="sans-serif" font-size="13" lengthAdjust="spacing" textLength="160.9448" x="41.6021" y="233.1919">Rellena steps y confirma</text></g><g class="message" data-participant-1="FE" data-participant-2="FE"><line style="stroke:#FF7849;stroke-width:1;" x1="260.832" x2="302.832" y1="267.3906" y2="267.3906"/><line style="stroke:#FF7849;stroke-width:1;" x1="302.832" x2="302.832" y1="267.3906" y2="280.3906"/><line style="stroke:#FF7849;stroke-width:1;" x1="261.832" x2="302.832" y1="280.3906" y2="280.3906"/><polygon fill="#FF7849" points="271.832,276.3906,261.832,280.3906,271.832,284.3906,267.832,280.3906" style="stroke:#FF7849;stroke-width:1;"/><text fill="#000000" font-family="sans-serif" font-size="13" lengthAdjust="spacing" textLength="113.8516" x="267.832" y="262.3247">Validar en cliente</text></g><g class="message" data-participant-1="FE" data-participant-2="API"><polygon fill="#FF7849" points="650.105,305.5234,660.105,309.5234,650.105,313.5234,654.105,309.5234" style="stroke:#FF7849;stroke-width:1;"/><line style="stroke:#FF7849;stroke-width:1;" x1="260.832" x2="656.105" y1="309.5234" y2="309.5234"/><text fill="#000000" font-family="sans-serif" font-size="13" lengthAdjust="spacing" textLength="377.2729" x="267.832" y="304.4575">POST /usuarios/onboarding {datos f&#237;sicos, nivel, objetivo}</text></g><g class="message" data-participant-1="API" data-participant-2="SQL"><polygon fill="#FF7849" points="960.8413,395.1875,970.8413,399.1875,960.8413,403.1875,964.8413,399.1875" style="stroke:#FF7849;stroke-width:1;"/><line style="stroke:#FF7849;stroke-width:1;" x1="662.105" x2="966.8413" y1="399.1875" y2="399.1875"/><text fill="#000000" font-family="sans-serif" font-size="13" lengthAdjust="spacing" textLength="112.7217" x="669.105" y="333.5903">UPDATE Usuarios</text><text fill="#000000" font-family="sans-serif" font-size="13" lengthAdjust="spacing" textLength="286.7363" x="669.105" y="348.7231">SET altura=?, peso=?, fecha_nacimiento=?,</text><text fill="#000000" font-family="sans-serif" font-size="13" lengthAdjust="spacing" textLength="193.8447" x="685.6343" y="363.856">nivel=?, objetivo_principal=?,</text><text fill="#000000" font-family="sans-serif" font-size="13" lengthAdjust="spacing" textLength="188.0684" x="685.6343" y="378.9888">onboarding_pendiente=false</text><text fill="#000000" font-family="sans-serif" font-size="13" lengthAdjust="spacing" textLength="149.7349" x="669.105" y="394.1216">WHERE id = usuario_id</text></g><g class="message" data-participant-1="SQL" data-participant-2="API"><polygon fill="#FF7849" points="673.105,424.3203,663.105,428.3203,673.105,432.3203,669.105,428.3203" style="stroke:#FF7849;stroke-width:1;"/><line style="stroke:#FF7849;stroke-width:1;stroke-dasharray:2,2;" x1="667.105" x2="971.8413" y1="428.3203" y2="428.3203"/><text fill="#000000" font-family="sans-serif" font-size="13" lengthAdjust="spacing" textLength="18.7573" x="679.105" y="423.2544">OK</text></g><g class="message" data-participant-1="API" data-participant-2="FE"><polygon fill="#FF7849" points="271.832,453.4531,261.832,457.4531,271.832,461.4531,267.832,457.4531" style="stroke:#FF7849;stroke-width:1;"/><line style="stroke:#FF7849;stroke-width:1;stroke-dasharray:2,2;" x1="265.832" x2="661.105" y1="457.4531" y2="457.4531"/><text fill="#000000" font-family="sans-serif" font-size="13" lengthAdjust="spacing" textLength="47.7026" x="277.832" y="452.3872">200 OK</text></g><g class="message" data-participant-1="FE" data-participant-2="U"><polygon fill="#FF7849" points="45.6021,497.7188,35.6021,501.7188,45.6021,505.7188,41.6021,501.7188" style="stroke:#FF7849;stroke-width:1;"/><line style="stroke:#FF7849;stroke-width:1;" x1="39.6021" x2="259.832" y1="501.7188" y2="501.7188"/><text fill="#000000" font-family="sans-serif" font-size="13" lengthAdjust="spacing" textLength="145.5645" x="51.6021" y="481.52">Mostrar mensaje &#233;xito</text><text fill="#000000" font-family="sans-serif" font-size="13" lengthAdjust="spacing" textLength="142.0479" x="51.6021" y="496.6528">Redirigir a Dashboard</text></g><!--SRC=[XL7RRXCn47ttLupAIo8bIWL8GAI00ja8H4f2Bl0IAPhipgRJEkF5zfPM5H_40r_H7sES9crHGTWFbiuSdpbp9dAq1BF1CsZ3MDOEVS6o0HRE6QqnuPobGezRM6D-ll6kbkATiyx3anBJVS08zAqcoGck3K3VU_Vzm2nVl7p-Ii4HbpHYeRVE5-J_MNtKQNVC3sCmZmeiGesU7M20XT7UKSrMA16EXjv992cWCINbDeyIPvZzIKhwYTEVV8369rTG9xkiF8LmIrVO51XnZO7WwEHgzdcqm_KrPW7jrohOXNwUKq4GlLOgprloODs6PIaDTvVZgj8-J6e9UagjgMc6ML9OTE741VtieSBW0gZKVVogeGOKBMz-1SvTQ87m1TaMkFKPHRvmpGTEfcGj2KA8L0MuWjn9oNwB-rQ9yWKj5zgB17AxyxClwgnTc8ndS-ZKjw66phrzkFwF3Tr82b65D9mkB2Q3_Zmxh2SiPPRD0MsiFVRUjA2YuD9RKdwAAy6SjybBmfO2UdRgYN7GNscoajPcxpX_2xTNeWsqbA_lisa6N6ZO-sbMN1Yr1kt3hEEFUylxP9uU7oViqLQs907F26v-Nd9qIvbImPutx05XWE5qP-8t]--></g></svg>