<svg xmlns="http://www.w3.org/2000/svg" xmlns:xlink="http://www.w3.org/1999/xlink" contentStyleType="text/css" data-diagram-type="SEQUENCE" height="685px" preserveAspectRatio="none" style="width:986px;height:685px;background:#FAFAFA;" version="1.1" viewBox="0 0 986 685" width="986px" zoomAndPan="magnify"><title>SD4 - Carga del Dashboard</title><defs/><g><rect fill="#FAFAFA" height="685" style="stroke:none;stroke-width:1;" width="986" x="0" y="0"/><text fill="#000000" font-family="sans-serif" font-size="14" font-weight="bold" lengthAdjust="spacing" textLength="212.543" x="388.304" y="27.9951">SD4 - Carga del Dashboard</text><g><title>Usuario</title><rect fill="#000000" fill-opacity="0.00000" height="486.3906" width="8" x="30.6021" y="118.5938"/><line style="stroke:#FF7849;stroke-width:0.5;stroke-dasharray:5,5;" x1="34" x2="34" y1="118.5938" y2="604.9844"/></g><g><title>Frontend .React.</title><rect fill="#000000" fill-opacity="0.00000" height="486.3906" width="8" x="267.2422" y="118.5938"/><line style="stroke:#FF7849;stroke-width:0.5;stroke-dasharray:5,5;" x1="270.9473" x2="270.9473" y1="118.5938" y2="604.9844"/></g><g><title>Backend API .Node.Express.</title><rect fill="#000000" fill-opacity="0.00000" height="486.3906" width="8" x="574.627" y="118.5938"/><line style="stroke:#FF7849;stroke-width:0.5;stroke-dasharray:5,5;" x1="578.3452" x2="578.3452" y1="118.5938" y2="604.9844"/></g><g><title>MySQL</title><rect fill="#000000" fill-opacity="0.00000" height="486.3906" width="8" x="870.7612" y="118.5938"/><line style="stroke:#FF7849;stroke-width:0.5;stroke-dasharray:5,5;" x1="874.7261" x2="874.7261" y1="118.5938" y2="604.9844"/></g><g><title>MongoDB</title><rect fill="#000000" fill-opacity="0.00000" height="486.3906" width="8" x="944.4736" y="118.5938"/><line style="stroke:#FF7849;stroke-width:0.5;stroke-dasharray:5,5;" x1="947.7964" x2="947.7964" y1="118.5938" y2="604.9844"/></g><g class="participant participant-head" data-participant="U"><text fill="#000000" font-family="sans-serif" font-size="14" lengthAdjust="spacing" textLength="53.2041" x="5" y="115.292">Usuario</text><ellipse cx="34.6021" cy="50.7969" fill="#E2E2F0" rx="8" ry="8" style="stroke:#181818;stroke-width:0.5;"/><path d="M34.6021,58.7969 L34.6021,85.7969 M21.6021,66.7969 L47.6021,66.7969 M34.6021,85.7969 L21.6021,100.7969 M34.6021,85.7969 L47.6021,100.7969" fill="none" style="stroke:#181818;stroke-width:0.5;"/></g><g class="participant participant-tail" data-participant="U"><text fill="#000000" font-family="sans-serif" font-size="14" lengthAdjust="spacing" textLength="53.2041" x="5" y="616.9795">Usuario</text><ellipse cx="34.6021" cy="628.7813" fill="#E2E2F0" rx="8" ry="8" style="stroke:#181818;stroke-width:0.5;"/><path d="M34.6021,636.7813 L34.6021,663.7813 M21.6021,644.7813 L47.6021,644.7813 M34.6021,663.7813 L21.6021,678.7813 M34.6021,663.7813 L47.6021,678.7813" fill="none" style="stroke:#181818;stroke-width:0.5;"/></g><g class="participant participant-head" data-participant="FE"><rect fill="#E2E2F0" height="30.2969" rx="2.5" ry="2.5" style="stroke:#181818;stroke-width:0.5;" width="132.5898" x="204.9473" y="87.2969"/><text fill="#000000" font-family="sans-serif" font-size="14" lengthAdjust="spacing" textLength="118.5898" x="211.9473" y="107.292">Frontend (React)</text></g><g class="participant participant-tail" data-participant="FE"><rect fill="#E2E2F0" height="30.2969" rx="2.5" ry="2.5" style="stroke:#181818;stroke-width:0.5;" width="132.5898" x="204.9473" y="603.9844"/><text fill="#000000" font-family="sans-serif" font-size="14" lengthAdjust="spacing" textLength="118.5898" x="211.9473" y="623.9795">Frontend (React)</text></g><g class="participant participant-head" data-participant="API"><rect fill="#E2E2F0" height="30.2969" rx="2.5" ry="2.5" style="stroke:#181818;stroke-width:0.5;" width="212.5635" x="472.3452" y="87.2969"/><text fill="#000000" font-family="sans-serif" font-size="14" lengthAdjust="spacing" textLength="198.5635" x="479.3452" y="107.292">Backend API (Node/Express)</text></g><g class="participant participant-tail" data-participant="API"><rect fill="#E2E2F0" height="30.2969" rx="2.5" ry="2.5" style="stroke:#181818;stroke-width:0.5;" width="212.5635" x="472.3452" y="603.9844"/><text fill="#000000" font-family="sans-serif" font-size="14" lengthAdjust="spacing" textLength="198.5635" x="479.3452" y="623.9795">Backend API (Node/Express)</text></g><g class="participant participant-head" data-participant="SQL"><text fill="#000000" font-family="sans-serif" font-size="14" lengthAdjust="spacing" textLength="48.0703" x="847.7261" y="115.292">MySQL</text><path d="M856.7612,66.2969 C856.7612,56.2969 874.7612,56.2969 874.7612,56.2969 C874.7612,56.2969 892.7612,56.2969 892.7612,66.2969 L892.7612,92.2969 C892.7612,102.2969 874.7612,102.2969 874.7612,102.2969 C874.7612,102.2969 856.7612,102.2969 856.7612,92.2969 L856.7612,66.2969" fill="#E2E2F0" style="stroke:#181818;stroke-width:0.5;"/><path d="M856.7612,66.2969 C856.7612,76.2969 874.7612,76.2969 874.7612,76.2969 C874.7612,76.2969 892.7612,76.2969 892.7612,66.2969" fill="none" style="stroke:#181818;stroke-width:0.5;"/></g><g class="participant participant-tail" data-participant="SQL"><text fill="#000000" font-family="sans-serif" font-size="14" lengthAdjust="spacing" textLength="48.0703" x="847.7261" y="616.9795">MySQL</text><path d="M856.7612,630.2813 C856.7612,620.2813 874.7612,620.2813 874.7612,620.2813 C874.7612,620.2813 892.7612,620.2813 892.7612,630.2813 L892.7612,656.2813 C892.7612,666.2813 874.7612,666.2813 874.7612,666.2813 C874.7612,666.2813 856.7612,666.2813 856.7612,656.2813 L856.7612,630.2813" fill="#E2E2F0" style="stroke:#181818;stroke-width:0.5;"/><path d="M856.7612,630.2813 C856.7612,640.2813 874.7612,640.2813 874.7612,640.2813 C874.7612,640.2813 892.7612,640.2813 892.7612,630.2813" fill="none" style="stroke:#181818;stroke-width:0.5;"/></g><g class="participant participant-head" data-participant="MDB"><text fill="#000000" font-family="sans-serif" font-size="14" lengthAdjust="spacing" textLength="67.3545" x="911.7964" y="115.292">MongoDB</text><path d="M930.4736,66.2969 C930.4736,56.2969 948.4736,56.2969 948.4736,56.2969 C948.4736,56.2969 966.4736,56.2969 966.4736,66.2969 L966.4736,92.2969 C966.4736,102.2969 948.4736,102.2969 948.4736,102.2969 C948.4736,102.2969 930.4736,102.2969 930.4736,92.2969 L930.4736,66.2969" fill="#E2E2F0" style="stroke:#181818;stroke-width:0.5;"/><path d="M930.4736,66.2969 C930.4736,76.2969 948.4736,76.2969 948.4736,76.2969 C948.4736,76.2969 966.4736,76.2969 966.4736,66.2969" fill="none" style="stroke:#181818;stroke-width:0.5;"/></g><g class="participant participant-tail" data-participant="MDB"><text fill="#000000" font-family="sans-serif" font-size="14" lengthAdjust="spacing" textLength="67.3545" x="911.7964" y="616.9795">MongoDB</text><path d="M930.4736,630.2813 C930.4736,620.2813 948.4736,620.2813 948.4736,620.2813 C948.4736,620.2813 966.4736,620.2813 966.4736,630.2813 L966.4736,656.2813 C966.4736,666.2813 948.4736,666.2813 948.4736,666.2813 C948.4736,666.2813 930.4736,666.2813 930.4736,656.2813 L930.4736,630.2813" fill="#E2E2F0" style="stroke:#181818;stroke-width:0.5;"/><path d="M930.4736,630.2813 C930.4736,640.2813 948.4736,640.2813 948.4736,640.2813 C948.4736,640.2813 966.4736,640.2813 966.4736,630.2813" fill="none" style="stroke:#181818;stroke-width:0.5;"/></g><g class="message" data-participant-1="U" data-participant-2="FE"><polygon fill="#FF7849" points="259.2422,145.7266,269.2422,149.7266,259.2422,153.7266,263.2422,149.7266" style="stroke:#FF7849;stroke-width:1;"/><line style="stroke:#FF7849;stroke-width:1;" x1="34.6021" x2="265.2422" y1="149.7266" y2="149.7266"/><text fill="#000000" font-family="sans-serif" font-size="13" lengthAdjust="spacing" textLength="134.4243" x="41.6021" y="144.6606">Accede a Dashboard</text></g><g class="message" data-participant-1="FE" data-participant-2="API"><polygon fill="#FF7849" points="566.627,174.8594,576.627,178.8594,566.627,182.8594,570.627,178.8594" style="stroke:#FF7849;stroke-width:1;"/><line style="stroke:#FF7849;stroke-width:1;" x1="271.2422" x2="572.627" y1="178.8594" y2="178.8594"/><text fill="#000000" font-family="sans-serif" font-size="13" lengthAdjust="spacing" textLength="236.1519" x="278.2422" y="173.7935">GET /dashboard-summary (con JWT)</text></g><g class="message" data-participant-1="API" data-participant-2="API"><line style="stroke:#FF7849;stroke-width:1;" x1="578.627" x2="620.627" y1="207.9922" y2="207.9922"/><line style="stroke:#FF7849;stroke-width:1;" x1="620.627" x2="620.627" y1="207.9922" y2="220.9922"/><line style="stroke:#FF7849;stroke-width:1;" x1="579.627" x2="620.627" y1="220.9922" y2="220.9922"/><polygon fill="#FF7849" points="589.627,216.9922,579.627,220.9922,589.627,224.9922,585.627,220.9922" style="stroke:#FF7849;stroke-width:1;"/><text fill="#000000" font-family="sans-serif" font-size="13" lengthAdjust="spacing" textLength="224.0596" x="585.627" y="202.9263">Validar token y obtener usuario_id</text></g><g class="message" data-participant-1="API" data-participant-2="MDB"><polygon fill="#FF7849" points="936.4736,261.2578,946.4736,265.2578,936.4736,269.2578,940.4736,265.2578" style="stroke:#FF7849;stroke-width:1;"/><line style="stroke:#FF7849;stroke-width:1;" x1="578.627" x2="942.4736" y1="265.2578" y2="265.2578"/><text fill="#000000" font-family="sans-serif" font-size="13" lengthAdjust="spacing" textLength="168.981" x="585.627" y="245.0591">Buscar sesiones recientes</text><text fill="#000000" font-family="sans-serif" font-size="13" lengthAdjust="spacing" textLength="222.1426" x="585.627" y="260.1919">(Sesiones) para resumen semanal</text></g><g class="message" data-participant-1="MDB" data-participant-2="API"><polygon fill="#FF7849" points="589.627,290.3906,579.627,294.3906,589.627,298.3906,585.627,294.3906" style="stroke:#FF7849;stroke-width:1;"/><line style="stroke:#FF7849;stroke-width:1;stroke-dasharray:2,2;" x1="583.627" x2="947.4736" y1="294.3906" y2="294.3906"/><text fill="#000000" font-family="sans-serif" font-size="13" lengthAdjust="spacing" textLength="111.3252" x="595.627" y="289.3247">Lista de sesiones</text></g><g class="message" data-participant-1="API" data-participant-2="SQL"><polygon fill="#FF7849" points="862.7612,334.6563,872.7612,338.6563,862.7612,342.6563,866.7612,338.6563" style="stroke:#FF7849;stroke-width:1;"/><line style="stroke:#FF7849;stroke-width:1;" x1="578.627" x2="868.7612" y1="338.6563" y2="338.6563"/><text fill="#000000" font-family="sans-serif" font-size="13" lengthAdjust="spacing" textLength="188.4556" x="585.627" y="318.4575">Consultar pr&#243;ximos entrenos</text><text fill="#000000" font-family="sans-serif" font-size="13" lengthAdjust="spacing" textLength="235.2759" x="585.627" y="333.5903">(o sesiones programadas si existen)</text></g><g class="message" data-participant-1="SQL" data-participant-2="API"><polygon fill="#FF7849" points="589.627,363.7891,579.627,367.7891,589.627,371.7891,585.627,367.7891" style="stroke:#FF7849;stroke-width:1;"/><line style="stroke:#FF7849;stroke-width:1;stroke-dasharray:2,2;" x1="583.627" x2="873.7612" y1="367.7891" y2="367.7891"/><text fill="#000000" font-family="sans-serif" font-size="13" lengthAdjust="spacing" textLength="98.5537" x="595.627" y="362.7231">Pr&#243;xima sesi&#243;n</text></g><g class="message" data-participant-1="API" data-participant-2="SQL"><polygon fill="#FF7849" points="862.7612,408.0547,872.7612,412.0547,862.7612,416.0547,866.7612,412.0547" style="stroke:#FF7849;stroke-width:1;"/><line style="stroke:#FF7849;stroke-width:1;" x1="578.627" x2="868.7612" y1="412.0547" y2="412.0547"/><text fill="#000000" font-family="sans-serif" font-size="13" lengthAdjust="spacing" textLength="170.6631" x="585.627" y="391.856">Consultar logros recientes</text><text fill="#000000" font-family="sans-serif" font-size="13" lengthAdjust="spacing" textLength="182.2031" x="585.627" y="406.9888">(Usuario_Logro JOIN Logros)</text></g><g class="message" data-participant-1="SQL" data-participant-2="API"><polygon fill="#FF7849" points="589.627,437.1875,579.627,441.1875,589.627,445.1875,585.627,441.1875" style="stroke:#FF7849;stroke-width:1;"/><line style="stroke:#FF7849;stroke-width:1;stroke-dasharray:2,2;" x1="583.627" x2="873.7612" y1="441.1875" y2="441.1875"/><text fill="#000000" font-family="sans-serif" font-size="13" lengthAdjust="spacing" textLength="95.0942" x="595.627" y="436.1216">Lista de logros</text></g><g class="message" data-participant-1="API" data-participant-2="API"><line style="stroke:#FF7849;stroke-width:1;" x1="578.627" x2="620.627" y1="485.4531" y2="485.4531"/><line style="stroke:#FF7849;stroke-width:1;" x1="620.627" x2="620.627" y1="485.4531" y2="498.4531"/><line style="stroke:#FF7849;stroke-width:1;" x1="579.627" x2="620.627" y1="498.4531" y2="498.4531"/><polygon fill="#FF7849" points="589.627,494.4531,579.627,498.4531,589.627,502.4531,585.627,498.4531" style="stroke:#FF7849;stroke-width:1;"/><text fill="#000000" font-family="sans-serif" font-size="13" lengthAdjust="spacing" textLength="153.3848" x="585.627" y="465.2544">Construir DTO resumen</text><text fill="#000000" font-family="sans-serif" font-size="13" lengthAdjust="spacing" textLength="282.1343" x="585.627" y="480.3872">(resumen semanal, pr&#243;xima sesi&#243;n, logros)</text></g><g class="message" data-participant-1="API" data-participant-2="FE"><polygon fill="#FF7849" points="282.2422,523.5859,272.2422,527.5859,282.2422,531.5859,278.2422,527.5859" style="stroke:#FF7849;stroke-width:1;"/><line style="stroke:#FF7849;stroke-width:1;stroke-dasharray:2,2;" x1="276.2422" x2="577.627" y1="527.5859" y2="527.5859"/><text fill="#000000" font-family="sans-serif" font-size="13" lengthAdjust="spacing" textLength="283.3848" x="288.2422" y="522.52">200 OK {resumen, proxima_sesion, logros}</text></g><g class="message" data-participant-1="FE" data-participant-2="U"><polygon fill="#FF7849" points="45.6021,582.9844,35.6021,586.9844,45.6021,590.9844,41.6021,586.9844" style="stroke:#FF7849;stroke-width:1;"/><line style="stroke:#FF7849;stroke-width:1;" x1="39.6021" x2="270.2422" y1="586.9844" y2="586.9844"/><text fill="#000000" font-family="sans-serif" font-size="13" lengthAdjust="spacing" textLength="150.2998" x="51.6021" y="551.6528">Mostrar dashboard con</text><text fill="#000000" font-family="sans-serif" font-size="13" lengthAdjust="spacing" textLength="212.6401" x="51.6021" y="566.7856">resumen, pr&#243;xima sesi&#243;n, logros</text><text fill="#000000" font-family="sans-serif" font-size="13" lengthAdjust="spacing" textLength="115.8701" x="51.6021" y="581.9185">y accesos r&#225;pidos</text></g><!--SRC=[TLBBRXf14BpFLxJ81IGZMv6b91mYyOpiW74291SarEmqPEHbUZCpgu2iV4o-mP_0ZwM7PTVWnEo1LNTrLNTj1HDIWadl6fhGHRT6q9H23_sF9QFJIla7OpDqk84b9WzhnxdLNKxPmPiLnkS4uUbdJZOXU5G0RUVuLubSlNj__K6AGxEYeR7KOQV9lThzH-dmKx-LmYH8OUPpT8O1FSoKQ0UJc0njWDh0iGraDTI_ac0RjOWPzCz1aJzYslStKBzZJPVzRUR8-m8kPQKnu18zGMsqctmP7khoVrfdk-PUvz0PzJfApQ3vKQHQq4uIqWHuOkEW7vj2t89F_IbSwhBJzFbcWsu7zOGjt7wVDfIAQvNeRvWQZGu2oyQm0rxATUGWBnnO65tXPOaMT7AV2DoJDsp9WwF4a3ZYvxO-EHOR43-Nj4HRI3rjq6AgP1wQfUxG-12pK35LCk922xfiVPu6KShS_cbhDkn1P1nPZahyl43cU2tPGBaOl07Q2Z7PXXAQPxNxWWGFO_id-vfOAbnyVjGn2ejXRC7j-EOE3g_-XKHrKC5nxd9K22ut3dhJSMcCaB-mwAAyjbhquaZNAEYE0NXxTGNZp_1u78zZ7ASMXIlbaCIvoCMi1IEM1UJ2AXWWUPZR4uR_2y_j3b3ovgCj-p-PqUp_0W00]--></g></svg>