<svg xmlns="http://www.w3.org/2000/svg" xmlns:xlink="http://www.w3.org/1999/xlink" contentStyleType="text/css" data-diagram-type="SEQUENCE" height="927px" preserveAspectRatio="none" style="width:1076px;height:927px;background:#FAFAFA;" version="1.1" viewBox="0 0 1076 927" width="1076px" zoomAndPan="magnify"><title>SD5 - Registrar sesi&#243;n de entrenamiento</title><defs/><g><rect fill="#FAFAFA" height="927" style="stroke:none;stroke-width:1;" width="1076" x="0" y="0"/><text fill="#000000" font-family="sans-serif" font-size="14" font-weight="bold" lengthAdjust="spacing" textLength="322.1914" x="378.51" y="27.9951">SD5 - Registrar sesi&#243;n de entrenamiento</text><g><title>Usuario</title><rect fill="#000000" fill-opacity="0.00000" height="728.1875" width="8" x="30.6021" y="118.5938"/><line style="stroke:#FF7849;stroke-width:0.5;stroke-dasharray:5,5;" x1="34" x2="34" y1="118.5938" y2="846.7813"/></g><g><title>Frontend .React.</title><rect fill="#000000" fill-opacity="0.00000" height="728.1875" width="8" x="290.2842" y="118.5938"/><line style="stroke:#FF7849;stroke-width:0.5;stroke-dasharray:5,5;" x1="293.9893" x2="293.9893" y1="118.5938" y2="846.7813"/></g><g><title>Backend API .Node.Express.</title><rect fill="#000000" fill-opacity="0.00000" height="728.1875" width="8" x="629.1914" y="118.5938"/><line style="stroke:#FF7849;stroke-width:0.5;stroke-dasharray:5,5;" x1="632.9097" x2="632.9097" y1="118.5938" y2="846.7813"/></g><g><title>MySQL</title><rect fill="#000000" fill-opacity="0.00000" height="728.1875" width="8" x="960.8218" y="118.5938"/><line style="stroke:#FF7849;stroke-width:0.5;stroke-dasharray:5,5;" x1="964.7866" x2="964.7866" y1="118.5938" y2="846.7813"/></g><g><title>MongoDB</title><rect fill="#000000" fill-opacity="0.00000" height="728.1875" width="8" x="1034.5342" y="118.5938"/><line style="stroke:#FF7849;stroke-width:0.5;stroke-dasharray:5,5;" x1="1037.8569" x2="1037.8569" y1="118.5938" y2="846.7813"/></g><g class="participant participant-head" data-participant="U"><text fill="#000000" font-family="sans-serif" font-size="14" lengthAdjust="spacing" textLength="53.2041" x="5" y="115.292">Usuario</text><ellipse cx="34.6021" cy="50.7969" fill="#E2E2F0" rx="8" ry="8" style="stroke:#181818;stroke-width:0.5;"/><path d="M34.6021,58.7969 L34.6021,85.7969 M21.6021,66.7969 L47.6021,66.7969 M34.6021,85.7969 L21.6021,100.7969 M34.6021,85.7969 L47.6021,100.7969" fill="none" style="stroke:#181818;stroke-width:0.5;"/></g><g class="participant participant-tail" data-participant="U"><text fill="#000000" font-family="sans-serif" font-size="14" lengthAdjust="spacing" textLength="53.2041" x="5" y="858.7764">Usuario</text><ellipse cx="34.6021" cy="870.5781" fill="#E2E2F0" rx="8" ry="8" style="stroke:#181818;stroke-width:0.5;"/><path d="M34.6021,878.5781 L34.6021,905.5781 M21.6021,886.5781 L47.6021,886.5781 M34.6021,905.5781 L21.6021,920.5781 M34.6021,905.5781 L47.6021,920.5781" fill="none" style="stroke:#181818;stroke-width:0.5;"/></g><g class="participant participant-head" data-participant="FE"><rect fill="#E2E2F0" height="30.2969" rx="2.5" ry="2.5" style="stroke:#181818;stroke-width:0.5;" width="132.5898" x="227.9893" y="87.2969"/><text fill="#000000" font-family="sans-serif" font-size="14" lengthAdjust="spacing" textLength="118.5898" x="234.9893" y="107.292">Frontend (React)</text></g><g class="participant participant-tail" data-participant="FE"><rect fill="#E2E2F0" height="30.2969" rx="2.5" ry="2.5" style="stroke:#181818;stroke-width:0.5;" width="132.5898" x="227.9893" y="845.7813"/><text fill="#000000" font-family="sans-serif" font-size="14" lengthAdjust="spacing" textLength="118.5898" x="234.9893" y="865.7764">Frontend (React)</text></g><g class="participant participant-head" data-participant="API"><rect fill="#E2E2F0" height="30.2969" rx="2.5" ry="2.5" style="stroke:#181818;stroke-width:0.5;" width="212.5635" x="526.9097" y="87.2969"/><text fill="#000000" font-family="sans-serif" font-size="14" lengthAdjust="spacing" textLength="198.5635" x="533.9097" y="107.292">Backend API (Node/Express)</text></g><g class="participant participant-tail" data-participant="API"><rect fill="#E2E2F0" height="30.2969" rx="2.5" ry="2.5" style="stroke:#181818;stroke-width:0.5;" width="212.5635" x="526.9097" y="845.7813"/><text fill="#000000" font-family="sans-serif" font-size="14" lengthAdjust="spacing" textLength="198.5635" x="533.9097" y="865.7764">Backend API (Node/Express)</text></g><g class="participant participant-head" data-participant="SQL"><text fill="#000000" font-family="sans-serif" font-size="14" lengthAdjust="spacing" textLength="48.0703" x="937.7866" y="115.292">MySQL</text><path d="M946.8218,66.2969 C946.8218,56.2969 964.8218,56.2969 964.8218,56.2969 C964.8218,56.2969 982.8218,56.2969 982.8218,66.2969 L982.8218,92.2969 C982.8218,102.2969 964.8218,102.2969 964.8218,102.2969 C964.8218,102.2969 946.8218,102.2969 946.8218,92.2969 L946.8218,66.2969" fill="#E2E2F0" style="stroke:#181818;stroke-width:0.5;"/><path d="M946.8218,66.2969 C946.8218,76.2969 964.8218,76.2969 964.8218,76.2969 C964.8218,76.2969 982.8218,76.2969 982.8218,66.2969" fill="none" style="stroke:#181818;stroke-width:0.5;"/></g><g class="participant participant-tail" data-participant="SQL"><text fill="#000000" font-family="sans-serif" font-size="14" lengthAdjust="spacing" textLength="48.0703" x="937.7866" y="858.7764">MySQL</text><path d="M946.8218,872.0781 C946.8218,862.0781 964.8218,862.0781 964.8218,862.0781 C964.8218,862.0781 982.8218,862.0781 982.8218,872.0781 L982.8218,898.0781 C982.8218,908.0781 964.8218,908.0781 964.8218,908.0781 C964.8218,908.0781 946.8218,908.0781 946.8218,898.0781 L946.8218,872.0781" fill="#E2E2F0" style="stroke:#181818;stroke-width:0.5;"/><path d="M946.8218,872.0781 C946.8218,882.0781 964.8218,882.0781 964.8218,882.0781 C964.8218,882.0781 982.8218,882.0781 982.8218,872.0781" fill="none" style="stroke:#181818;stroke-width:0.5;"/></g><g class="participant participant-head" data-participant="MDB"><text fill="#000000" font-family="sans-serif" font-size="14" lengthAdjust="spacing" textLength="67.3545" x="1001.8569" y="115.292">MongoDB</text><path d="M1020.5342,66.2969 C1020.5342,56.2969 1038.5342,56.2969 1038.5342,56.2969 C1038.5342,56.2969 1056.5342,56.2969 1056.5342,66.2969 L1056.5342,92.2969 C1056.5342,102.2969 1038.5342,102.2969 1038.5342,102.2969 C1038.5342,102.2969 1020.5342,102.2969 1020.5342,92.2969 L1020.5342,66.2969" fill="#E2E2F0" style="stroke:#181818;stroke-width:0.5;"/><path d="M1020.5342,66.2969 C1020.5342,76.2969 1038.5342,76.2969 1038.5342,76.2969 C1038.5342,76.2969 1056.5342,76.2969 1056.5342,66.2969" fill="none" style="stroke:#181818;stroke-width:0.5;"/></g><g class="participant participant-tail" data-participant="MDB"><text fill="#000000" font-family="sans-serif" font-size="14" lengthAdjust="spacing" textLength="67.3545" x="1001.8569" y="858.7764">MongoDB</text><path d="M1020.5342,872.0781 C1020.5342,862.0781 1038.5342,862.0781 1038.5342,862.0781 C1038.5342,862.0781 1056.5342,862.0781 1056.5342,872.0781 L1056.5342,898.0781 C1056.5342,908.0781 1038.5342,908.0781 1038.5342,908.0781 C1038.5342,908.0781 1020.5342,908.0781 1020.5342,898.0781 L1020.5342,872.0781" fill="#E2E2F0" style="stroke:#181818;stroke-width:0.5;"/><path d="M1020.5342,872.0781 C1020.5342,882.0781 1038.5342,882.0781 1038.5342,882.0781 C1038.5342,882.0781 1056.5342,882.0781 1056.5342,872.0781" fill="none" style="stroke:#181818;stroke-width:0.5;"/></g><g class="message" data-participant-1="U" data-participant-2="FE"><polygon fill="#FF7849" points="282.2842,145.7266,292.2842,149.7266,282.2842,153.7266,286.2842,149.7266" style="stroke:#FF7849;stroke-width:1;"/><line style="stroke:#FF7849;stroke-width:1;" x1="34.6021" x2="288.2842" y1="149.7266" y2="149.7266"/><text fill="#000000" font-family="sans-serif" font-size="13" lengthAdjust="spacing" textLength="151.4805" x="41.6021" y="144.6606">Abre "Registrar sesi&#243;n"</text></g><g class="message" data-participant-1="FE" data-participant-2="API"><polygon fill="#FF7849" points="621.1914,174.8594,631.1914,178.8594,621.1914,182.8594,625.1914,178.8594" style="stroke:#FF7849;stroke-width:1;"/><line style="stroke:#FF7849;stroke-width:1;" x1="294.2842" x2="627.1914" y1="178.8594" y2="178.8594"/><text fill="#000000" font-family="sans-serif" font-size="13" lengthAdjust="spacing" textLength="166.1626" x="301.2842" y="173.7935">GET /ejercicios (cat&#225;logo)</text></g><g class="message" data-participant-1="API" data-participant-2="SQL"><polygon fill="#FF7849" points="952.8218,203.9922,962.8218,207.9922,952.8218,211.9922,956.8218,207.9922" style="stroke:#FF7849;stroke-width:1;"/><line style="stroke:#FF7849;stroke-width:1;" x1="633.1914" x2="958.8218" y1="207.9922" y2="207.9922"/><text fill="#000000" font-family="sans-serif" font-size="13" lengthAdjust="spacing" textLength="167.21" x="640.1914" y="202.9263">SELECT * FROM Ejercicios</text></g><g class="message" data-participant-1="SQL" data-participant-2="API"><polygon fill="#FF7849" points="644.1914,233.125,634.1914,237.125,644.1914,241.125,640.1914,237.125" style="stroke:#FF7849;stroke-width:1;"/><line style="stroke:#FF7849;stroke-width:1;stroke-dasharray:2,2;" x1="638.1914" x2="963.8218" y1="237.125" y2="237.125"/><text fill="#000000" font-family="sans-serif" font-size="13" lengthAdjust="spacing" textLength="96.021" x="650.1914" y="232.0591">Lista ejercicios</text></g><g class="message" data-participant-1="API" data-participant-2="FE"><polygon fill="#FF7849" points="305.2842,262.2578,295.2842,266.2578,305.2842,270.2578,301.2842,266.2578" style="stroke:#FF7849;stroke-width:1;"/><line style="stroke:#FF7849;stroke-width:1;stroke-dasharray:2,2;" x1="299.2842" x2="632.1914" y1="266.2578" y2="266.2578"/><text fill="#000000" font-family="sans-serif" font-size="13" lengthAdjust="spacing" textLength="96.021" x="311.2842" y="261.1919">Lista ejercicios</text></g><g class="message" data-participant-1="FE" data-participant-2="U"><polygon fill="#FF7849" points="45.6021,291.3906,35.6021,295.3906,45.6021,299.3906,41.6021,295.3906" style="stroke:#FF7849;stroke-width:1;"/><line style="stroke:#FF7849;stroke-width:1;" x1="39.6021" x2="293.2842" y1="295.3906" y2="295.3906"/><text fill="#000000" font-family="sans-serif" font-size="13" lengthAdjust="spacing" textLength="191.4644" x="51.6021" y="290.3247">Mostrar selector de ejercicios</text></g><g class="message" data-participant-1="U" data-participant-2="FE"><polygon fill="#FF7849" points="282.2842,320.5234,292.2842,324.5234,282.2842,328.5234,286.2842,324.5234" style="stroke:#FF7849;stroke-width:1;"/><line style="stroke:#FF7849;stroke-width:1;" x1="34.6021" x2="288.2842" y1="324.5234" y2="324.5234"/><text fill="#000000" font-family="sans-serif" font-size="13" lengthAdjust="spacing" textLength="228.7124" x="41.6021" y="319.4575">Seleccionar ejercicios y a&#241;adir sets</text></g><g class="message" data-participant-1="FE" data-participant-2="FE"><line style="stroke:#FF7849;stroke-width:1;" x1="294.2842" x2="336.2842" y1="353.6563" y2="353.6563"/><line style="stroke:#FF7849;stroke-width:1;" x1="336.2842" x2="336.2842" y1="353.6563" y2="366.6563"/><line style="stroke:#FF7849;stroke-width:1;" x1="295.2842" x2="336.2842" y1="366.6563" y2="366.6563"/><polygon fill="#FF7849" points="305.2842,362.6563,295.2842,366.6563,305.2842,370.6563,301.2842,366.6563" style="stroke:#FF7849;stroke-width:1;"/><text fill="#000000" font-family="sans-serif" font-size="13" lengthAdjust="spacing" textLength="230.7119" x="301.2842" y="348.5903">Validar estructura sesi&#243;n en cliente</text></g><g class="message" data-participant-1="U" data-participant-2="FE"><polygon fill="#FF7849" points="282.2842,391.7891,292.2842,395.7891,282.2842,399.7891,286.2842,395.7891" style="stroke:#FF7849;stroke-width:1;"/><line style="stroke:#FF7849;stroke-width:1;" x1="34.6021" x2="288.2842" y1="395.7891" y2="395.7891"/><text fill="#000000" font-family="sans-serif" font-size="13" lengthAdjust="spacing" textLength="235.6821" x="41.6021" y="390.7231">Confirmar y pulsar "Guardar sesi&#243;n"</text></g><g class="message" data-participant-1="FE" data-participant-2="API"><polygon fill="#FF7849" points="621.1914,420.9219,631.1914,424.9219,621.1914,428.9219,625.1914,424.9219" style="stroke:#FF7849;stroke-width:1;"/><line style="stroke:#FF7849;stroke-width:1;" x1="294.2842" x2="627.1914" y1="424.9219" y2="424.9219"/><text fill="#000000" font-family="sans-serif" font-size="13" lengthAdjust="spacing" textLength="225.7417" x="301.2842" y="419.856">POST /sesiones {sesion completa}</text></g><g class="message" data-participant-1="API" data-participant-2="API"><line style="stroke:#FF7849;stroke-width:1;" x1="633.1914" x2="675.1914" y1="454.0547" y2="454.0547"/><line style="stroke:#FF7849;stroke-width:1;" x1="675.1914" x2="675.1914" y1="454.0547" y2="467.0547"/><line style="stroke:#FF7849;stroke-width:1;" x1="634.1914" x2="675.1914" y1="467.0547" y2="467.0547"/><polygon fill="#FF7849" points="644.1914,463.0547,634.1914,467.0547,644.1914,471.0547,640.1914,467.0547" style="stroke:#FF7849;stroke-width:1;"/><text fill="#000000" font-family="sans-serif" font-size="13" lengthAdjust="spacing" textLength="81.8213" x="640.1914" y="448.9888">Validar JSON</text></g><g class="message" data-participant-1="API" data-participant-2="SQL"><polygon fill="#FF7849" points="952.8218,507.3203,962.8218,511.3203,952.8218,515.3203,956.8218,511.3203" style="stroke:#FF7849;stroke-width:1;"/><line style="stroke:#FF7849;stroke-width:1;" x1="633.1914" x2="958.8218" y1="511.3203" y2="511.3203"/><text fill="#000000" font-family="sans-serif" font-size="13" lengthAdjust="spacing" textLength="131.4155" x="640.1914" y="491.1216">Verificar ejercicio_id</text><text fill="#000000" font-family="sans-serif" font-size="13" lengthAdjust="spacing" textLength="153.1943" x="640.1914" y="506.2544">existentes en Ejercicios</text></g><g class="message" data-participant-1="SQL" data-participant-2="API"><polygon fill="#FF7849" points="644.1914,536.4531,634.1914,540.4531,644.1914,544.4531,640.1914,540.4531" style="stroke:#FF7849;stroke-width:1;"/><line style="stroke:#FF7849;stroke-width:1;stroke-dasharray:2,2;" x1="638.1914" x2="963.8218" y1="540.4531" y2="540.4531"/><text fill="#000000" font-family="sans-serif" font-size="13" lengthAdjust="spacing" textLength="18.7573" x="650.1914" y="535.3872">OK</text></g><g class="message" data-participant-1="API" data-participant-2="MDB"><polygon fill="#FF7849" points="1026.5342,565.5859,1036.5342,569.5859,1026.5342,573.5859,1030.5342,569.5859" style="stroke:#FF7849;stroke-width:1;"/><line style="stroke:#FF7849;stroke-width:1;" x1="633.1914" x2="1032.5342" y1="569.5859" y2="569.5859"/><text fill="#000000" font-family="sans-serif" font-size="13" lengthAdjust="spacing" textLength="210.374" x="640.1914" y="564.52">Insertar documento en Sesiones</text></g><g class="message" data-participant-1="MDB" data-participant-2="API"><polygon fill="#FF7849" points="644.1914,594.7188,634.1914,598.7188,644.1914,602.7188,640.1914,598.7188" style="stroke:#FF7849;stroke-width:1;"/><line style="stroke:#FF7849;stroke-width:1;stroke-dasharray:2,2;" x1="638.1914" x2="1037.5342" y1="598.7188" y2="598.7188"/><text fill="#000000" font-family="sans-serif" font-size="13" lengthAdjust="spacing" textLength="18.7573" x="650.1914" y="593.6528">OK</text></g><g class="message" data-participant-1="API" data-participant-2="API"><line style="stroke:#FF7849;stroke-width:1;" x1="633.1914" x2="675.1914" y1="642.9844" y2="642.9844"/><line style="stroke:#FF7849;stroke-width:1;" x1="675.1914" x2="675.1914" y1="642.9844" y2="655.9844"/><line style="stroke:#FF7849;stroke-width:1;" x1="634.1914" x2="675.1914" y1="655.9844" y2="655.9844"/><polygon fill="#FF7849" points="644.1914,651.9844,634.1914,655.9844,644.1914,659.9844,640.1914,655.9844" style="stroke:#FF7849;stroke-width:1;"/><text fill="#000000" font-family="sans-serif" font-size="13" lengthAdjust="spacing" textLength="210.1646" x="640.1914" y="622.7856">Actualizar progreso de objetivos</text><text fill="#000000" font-family="sans-serif" font-size="13" lengthAdjust="spacing" textLength="317.6304" x="640.1914" y="637.9185">(Progreso_Objetivo_Detalle + Objetivos_Usuario)</text></g><g class="message" data-participant-1="API" data-participant-2="API"><line style="stroke:#FF7849;stroke-width:1;" x1="633.1914" x2="675.1914" y1="700.25" y2="700.25"/><line style="stroke:#FF7849;stroke-width:1;" x1="675.1914" x2="675.1914" y1="700.25" y2="713.25"/><line style="stroke:#FF7849;stroke-width:1;" x1="634.1914" x2="675.1914" y1="713.25" y2="713.25"/><polygon fill="#FF7849" points="644.1914,709.25,634.1914,713.25,644.1914,717.25,640.1914,713.25" style="stroke:#FF7849;stroke-width:1;"/><text fill="#000000" font-family="sans-serif" font-size="13" lengthAdjust="spacing" textLength="184.3867" x="640.1914" y="680.0513">Actualizar progreso de retos</text><text fill="#000000" font-family="sans-serif" font-size="13" lengthAdjust="spacing" textLength="160.0879" x="640.1914" y="695.1841">(Progreso_Reto_Usuario)</text></g><g class="message" data-participant-1="API" data-participant-2="API"><line style="stroke:#FF7849;stroke-width:1;" x1="633.1914" x2="675.1914" y1="742.3828" y2="742.3828"/><line style="stroke:#FF7849;stroke-width:1;" x1="675.1914" x2="675.1914" y1="742.3828" y2="755.3828"/><line style="stroke:#FF7849;stroke-width:1;" x1="634.1914" x2="675.1914" y1="755.3828" y2="755.3828"/><polygon fill="#FF7849" points="644.1914,751.3828,634.1914,755.3828,644.1914,759.3828,640.1914,755.3828" style="stroke:#FF7849;stroke-width:1;"/><text fill="#000000" font-family="sans-serif" font-size="13" lengthAdjust="spacing" textLength="167.3052" x="640.1914" y="737.3169">Evaluar logros (ver SD10)</text></g><g class="message" data-participant-1="API" data-participant-2="FE"><polygon fill="#FF7849" points="305.2842,780.5156,295.2842,784.5156,305.2842,788.5156,301.2842,784.5156" style="stroke:#FF7849;stroke-width:1;"/><line style="stroke:#FF7849;stroke-width:1;stroke-dasharray:2,2;" x1="299.2842" x2="632.1914" y1="784.5156" y2="784.5156"/><text fill="#000000" font-family="sans-serif" font-size="13" lengthAdjust="spacing" textLength="314.9072" x="311.2842" y="779.4497">201 Created {resumen_sesion, logros_nuevos?}</text></g><g class="message" data-participant-1="FE" data-participant-2="U"><polygon fill="#FF7849" points="45.6021,824.7813,35.6021,828.7813,45.6021,832.7813,41.6021,828.7813" style="stroke:#FF7849;stroke-width:1;"/><line style="stroke:#FF7849;stroke-width:1;" x1="39.6021" x2="293.2842" y1="828.7813" y2="828.7813"/><text fill="#000000" font-family="sans-serif" font-size="13" lengthAdjust="spacing" textLength="212.1704" x="51.6021" y="808.5825">Mostrar confirmaci&#243;n y opciones</text><text fill="#000000" font-family="sans-serif" font-size="13" lengthAdjust="spacing" textLength="230.8389" x="51.6021" y="823.7153">(Ver detalle / Dashboard / Historial)</text></g><!--SRC=[ZLJRRXen47ttLupe2xIDabIjslBGYi2I9eMGiY5FaP3n3jJ9ujdQNXeQvMFw2LK_WH_hU5bk8f4A3vYPCsUEPywkrpv5Y5llu03wED7EMsd1eTEBlmOI13JUef5JpGSImjrfaqahfp2IwcvYAJT9arAoy68imtSBuV17ZaOXF0Y0XhNqSuKSl__mzYC7EtgC7MtmX6o2zjdiNgVY8nw5aCfpOE1oQJM1T30GtDjhfJDfF5JQben7aq2rZuojLGAc7Us20d_0D2xFe7f12Hv6zvb5vvPm3ej4UZcI3g7IdSVVEaMSVxVZP2RKEYaotTQ940Cu-CIjwj0OMSxl3RSYsb60C7qTJgChECHRj8fLaOEgadxnEwK9rKIGnJXkLuSuwaJDAtW9xNwl2z6wG70M3bPi7UuaOKEtf2Zbx2MNCWPrwD9AO8h5NCFwDxZDZU80u9XXy9ReESZ57vdemE1Nl05_BLET12ppvyhdLguTXWPK6ho56_eccR6sKowOGvQdZW-LKzvmyipmBdinJozaoA23X-K954sp5BracvGZBD0hCUTnxs9djjTezLYhxJiDTN9Zy9ud5XIweFQvcVU-hjlm-kjmPXnQpsG9gNmQ7fvG7PSY1MEUh2t-DtX6hF8NLsUM9cn52hkWqIrwFIDtOwgNPNpOAuF35byrvMVv5Qn2RbW-6BN_ORVeTvdx77YQ8Ph9bCF0_hJ1h3Eq_0evFgg97QUzEJg6faNfCO47fWnZ62wNyxgi7PeSMUZdntqNgj85gl3972XJnUXO8c-A5I-lUmWjwRwFYEt1vo-yAh9QfhL_]--></g></svg>