<svg xmlns="http://www.w3.org/2000/svg" xmlns:xlink="http://www.w3.org/1999/xlink" contentStyleType="text/css" data-diagram-type="SEQUENCE" height="582px" preserveAspectRatio="none" style="width:746px;height:582px;background:#FAFAFA;" version="1.1" viewBox="0 0 746 582" width="746px" zoomAndPan="magnify"><title>SD6 - Consultar logros</title><defs/><g><rect fill="#FAFAFA" height="582" style="stroke:none;stroke-width:1;" width="746" x="0" y="0"/><text fill="#000000" font-family="sans-serif" font-size="14" font-weight="bold" lengthAdjust="spacing" textLength="177.1738" x="282.5916" y="27.9951">SD6 - Consultar logros</text><g><title>Usuario</title><rect fill="#000000" fill-opacity="0.00000" height="382.7266" width="8" x="30.6021" y="118.5938"/><line style="stroke:#FF7849;stroke-width:0.5;stroke-dasharray:5,5;" x1="34" x2="34" y1="118.5938" y2="501.3203"/></g><g><title>Frontend .React.</title><rect fill="#000000" fill-opacity="0.00000" height="382.7266" width="8" x="251.4365" y="118.5938"/><line style="stroke:#FF7849;stroke-width:0.5;stroke-dasharray:5,5;" x1="255.1416" x2="255.1416" y1="118.5938" y2="501.3203"/></g><g><title>Backend API .Node.Express.</title><rect fill="#000000" fill-opacity="0.00000" height="382.7266" width="8" x="469.2622" y="118.5938"/><line style="stroke:#FF7849;stroke-width:0.5;stroke-dasharray:5,5;" x1="472.9805" x2="472.9805" y1="118.5938" y2="501.3203"/></g><g><title>MySQL</title><rect fill="#000000" fill-opacity="0.00000" height="382.7266" width="8" x="707.3218" y="118.5938"/><line style="stroke:#FF7849;stroke-width:0.5;stroke-dasharray:5,5;" x1="711.2866" x2="711.2866" y1="118.5938" y2="501.3203"/></g><g class="participant participant-head" data-participant="U"><text fill="#000000" font-family="sans-serif" font-size="14" lengthAdjust="spacing" textLength="53.2041" x="5" y="115.292">Usuario</text><ellipse cx="34.6021" cy="50.7969" fill="#E2E2F0" rx="8" ry="8" style="stroke:#181818;stroke-width:0.5;"/><path d="M34.6021,58.7969 L34.6021,85.7969 M21.6021,66.7969 L47.6021,66.7969 M34.6021,85.7969 L21.6021,100.7969 M34.6021,85.7969 L47.6021,100.7969" fill="none" style="stroke:#181818;stroke-width:0.5;"/></g><g class="participant participant-tail" data-participant="U"><text fill="#000000" font-family="sans-serif" font-size="14" lengthAdjust="spacing" textLength="53.2041" x="5" y="513.3154">Usuario</text><ellipse cx="34.6021" cy="525.1172" fill="#E2E2F0" rx="8" ry="8" style="stroke:#181818;stroke-width:0.5;"/><path d="M34.6021,533.1172 L34.6021,560.1172 M21.6021,541.1172 L47.6021,541.1172 M34.6021,560.1172 L21.6021,575.1172 M34.6021,560.1172 L47.6021,575.1172" fill="none" style="stroke:#181818;stroke-width:0.5;"/></g><g class="participant participant-head" data-participant="FE"><rect fill="#E2E2F0" height="30.2969" rx="2.5" ry="2.5" style="stroke:#181818;stroke-width:0.5;" width="132.5898" x="189.1416" y="87.2969"/><text fill="#000000" font-family="sans-serif" font-size="14" lengthAdjust="spacing" textLength="118.5898" x="196.1416" y="107.292">Frontend (React)</text></g><g class="participant participant-tail" data-participant="FE"><rect fill="#E2E2F0" height="30.2969" rx="2.5" ry="2.5" style="stroke:#181818;stroke-width:0.5;" width="132.5898" x="189.1416" y="500.3203"/><text fill="#000000" font-family="sans-serif" font-size="14" lengthAdjust="spacing" textLength="118.5898" x="196.1416" y="520.3154">Frontend (React)</text></g><g class="participant participant-head" data-participant="API"><rect fill="#E2E2F0" height="30.2969" rx="2.5" ry="2.5" style="stroke:#181818;stroke-width:0.5;" width="212.5635" x="366.9805" y="87.2969"/><text fill="#000000" font-family="sans-serif" font-size="14" lengthAdjust="spacing" textLength="198.5635" x="373.9805" y="107.292">Backend API (Node/Express)</text></g><g class="participant participant-tail" data-participant="API"><rect fill="#E2E2F0" height="30.2969" rx="2.5" ry="2.5" style="stroke:#181818;stroke-width:0.5;" width="212.5635" x="366.9805" y="500.3203"/><text fill="#000000" font-family="sans-serif" font-size="14" lengthAdjust="spacing" textLength="198.5635" x="373.9805" y="520.3154">Backend API (Node/Express)</text></g><g class="participant participant-head" data-participant="SQL"><text fill="#000000" font-family="sans-serif" font-size="14" lengthAdjust="spacing" textLength="48.0703" x="684.2866" y="115.292">MySQL</text><path d="M693.3218,66.2969 C693.3218,56.2969 711.3218,56.2969 711.3218,56.2969 C711.3218,56.2969 729.3218,56.2969 729.3218,66.2969 L729.3218,92.2969 C729.3218,102.2969 711.3218,102.2969 711.3218,102.2969 C711.3218,102.2969 693.3218,102.2969 693.3218,92.2969 L693.3218,66.2969" fill="#E2E2F0" style="stroke:#181818;stroke-width:0.5;"/><path d="M693.3218,66.2969 C693.3218,76.2969 711.3218,76.2969 711.3218,76.2969 C711.3218,76.2969 729.3218,76.2969 729.3218,66.2969" fill="none" style="stroke:#181818;stroke-width:0.5;"/></g><g class="participant participant-tail" data-participant="SQL"><text fill="#000000" font-family="sans-serif" font-size="14" lengthAdjust="spacing" textLength="48.0703" x="684.2866" y="513.3154">MySQL</text><path d="M693.3218,526.6172 C693.3218,516.6172 711.3218,516.6172 711.3218,516.6172 C711.3218,516.6172 729.3218,516.6172 729.3218,526.6172 L729.3218,552.6172 C729.3218,562.6172 711.3218,562.6172 711.3218,562.6172 C711.3218,562.6172 693.3218,562.6172 693.3218,552.6172 L693.3218,526.6172" fill="#E2E2F0" style="stroke:#181818;stroke-width:0.5;"/><path d="M693.3218,526.6172 C693.3218,536.6172 711.3218,536.6172 711.3218,536.6172 C711.3218,536.6172 729.3218,536.6172 729.3218,526.6172" fill="none" style="stroke:#181818;stroke-width:0.5;"/></g><g class="message" data-participant-1="U" data-participant-2="FE"><polygon fill="#FF7849" points="243.4365,145.7266,253.4365,149.7266,243.4365,153.7266,247.4365,149.7266" style="stroke:#FF7849;stroke-width:1;"/><line style="stroke:#FF7849;stroke-width:1;" x1="34.6021" x2="249.4365" y1="149.7266" y2="149.7266"/><text fill="#000000" font-family="sans-serif" font-size="13" lengthAdjust="spacing" textLength="119.1455" x="41.6021" y="144.6606">Accede a "Logros"</text></g><g class="message" data-participant-1="FE" data-participant-2="API"><polygon fill="#FF7849" points="461.2622,174.8594,471.2622,178.8594,461.2622,182.8594,465.2622,178.8594" style="stroke:#FF7849;stroke-width:1;"/><line style="stroke:#FF7849;stroke-width:1;" x1="255.4365" x2="467.2622" y1="178.8594" y2="178.8594"/><text fill="#000000" font-family="sans-serif" font-size="13" lengthAdjust="spacing" textLength="193.8257" x="262.4365" y="173.7935">GET /logros-usuario (con JWT)</text></g><g class="message" data-participant-1="API" data-participant-2="API"><line style="stroke:#FF7849;stroke-width:1;" x1="473.2622" x2="515.2622" y1="207.9922" y2="207.9922"/><line style="stroke:#FF7849;stroke-width:1;" x1="515.2622" x2="515.2622" y1="207.9922" y2="220.9922"/><line style="stroke:#FF7849;stroke-width:1;" x1="474.2622" x2="515.2622" y1="220.9922" y2="220.9922"/><polygon fill="#FF7849" points="484.2622,216.9922,474.2622,220.9922,484.2622,224.9922,480.2622,220.9922" style="stroke:#FF7849;stroke-width:1;"/><text fill="#000000" font-family="sans-serif" font-size="13" lengthAdjust="spacing" textLength="224.0596" x="480.2622" y="202.9263">Validar token y obtener usuario_id</text></g><g class="message" data-participant-1="API" data-participant-2="SQL"><polygon fill="#FF7849" points="699.3218,246.125,709.3218,250.125,699.3218,254.125,703.3218,250.125" style="stroke:#FF7849;stroke-width:1;"/><line style="stroke:#FF7849;stroke-width:1;" x1="473.2622" x2="705.3218" y1="250.125" y2="250.125"/><text fill="#000000" font-family="sans-serif" font-size="13" lengthAdjust="spacing" textLength="149.3159" x="480.2622" y="245.0591">SELECT * FROM Logros</text></g><g class="message" data-participant-1="SQL" data-participant-2="API"><polygon fill="#FF7849" points="484.2622,275.2578,474.2622,279.2578,484.2622,283.2578,480.2622,279.2578" style="stroke:#FF7849;stroke-width:1;"/><line style="stroke:#FF7849;stroke-width:1;stroke-dasharray:2,2;" x1="478.2622" x2="710.3218" y1="279.2578" y2="279.2578"/><text fill="#000000" font-family="sans-serif" font-size="13" lengthAdjust="spacing" textLength="158.4946" x="490.2622" y="274.1919">Lista de logros definidos</text></g><g class="message" data-participant-1="API" data-participant-2="SQL"><polygon fill="#FF7849" points="699.3218,319.5234,709.3218,323.5234,699.3218,327.5234,703.3218,323.5234" style="stroke:#FF7849;stroke-width:1;"/><line style="stroke:#FF7849;stroke-width:1;" x1="473.2622" x2="705.3218" y1="323.5234" y2="323.5234"/><text fill="#000000" font-family="sans-serif" font-size="13" lengthAdjust="spacing" textLength="198.4468" x="480.2622" y="303.3247">SELECT * FROM Usuario_Logro</text><text fill="#000000" font-family="sans-serif" font-size="13" lengthAdjust="spacing" textLength="144.771" x="480.2622" y="318.4575">WHERE usuario_id = ?</text></g><g class="message" data-participant-1="SQL" data-participant-2="API"><polygon fill="#FF7849" points="484.2622,348.6563,474.2622,352.6563,484.2622,356.6563,480.2622,352.6563" style="stroke:#FF7849;stroke-width:1;"/><line style="stroke:#FF7849;stroke-width:1;stroke-dasharray:2,2;" x1="478.2622" x2="710.3218" y1="352.6563" y2="352.6563"/><text fill="#000000" font-family="sans-serif" font-size="13" lengthAdjust="spacing" textLength="197.501" x="490.2622" y="347.5903">Lista de logros desbloqueados</text></g><g class="message" data-participant-1="API" data-participant-2="API"><line style="stroke:#FF7849;stroke-width:1;" x1="473.2622" x2="515.2622" y1="396.9219" y2="396.9219"/><line style="stroke:#FF7849;stroke-width:1;" x1="515.2622" x2="515.2622" y1="396.9219" y2="409.9219"/><line style="stroke:#FF7849;stroke-width:1;" x1="474.2622" x2="515.2622" y1="409.9219" y2="409.9219"/><polygon fill="#FF7849" points="484.2622,405.9219,474.2622,409.9219,484.2622,413.9219,480.2622,409.9219" style="stroke:#FF7849;stroke-width:1;"/><text fill="#000000" font-family="sans-serif" font-size="13" lengthAdjust="spacing" textLength="157.5488" x="480.2622" y="376.7231">Marcar cada logro como</text><text fill="#000000" font-family="sans-serif" font-size="13" lengthAdjust="spacing" textLength="172.6245" x="480.2622" y="391.856">bloqueado / desbloqueado</text></g><g class="message" data-participant-1="API" data-participant-2="FE"><polygon fill="#FF7849" points="266.4365,435.0547,256.4365,439.0547,266.4365,443.0547,262.4365,439.0547" style="stroke:#FF7849;stroke-width:1;"/><line style="stroke:#FF7849;stroke-width:1;stroke-dasharray:2,2;" x1="260.4365" x2="472.2622" y1="439.0547" y2="439.0547"/><text fill="#000000" font-family="sans-serif" font-size="13" lengthAdjust="spacing" textLength="188.646" x="272.4365" y="433.9888">200 OK {logros_con_estado}</text></g><g class="message" data-participant-1="FE" data-participant-2="U"><polygon fill="#FF7849" points="45.6021,479.3203,35.6021,483.3203,45.6021,487.3203,41.6021,483.3203" style="stroke:#FF7849;stroke-width:1;"/><line style="stroke:#FF7849;stroke-width:1;" x1="39.6021" x2="254.4365" y1="483.3203" y2="483.3203"/><text fill="#000000" font-family="sans-serif" font-size="13" lengthAdjust="spacing" textLength="162.9824" x="51.6021" y="463.1216">Mostrar galer&#237;a de logros</text><text fill="#000000" font-family="sans-serif" font-size="13" lengthAdjust="spacing" textLength="196.8345" x="51.6021" y="478.2544">(desbloqueados y pendientes)</text></g><!--SRC=[XPBTQXin48NlzHI7pOrTC0uXj8sXAOwpxj-wQVtJt0JCM1e7aOtaIbhQ4F98VOg-M6TtxM9JGdSlLepEp7VsICccaZ6xV8aUHjx5gamKKFhRuADIySww3GMwnuhqdTGgPqQ-z057QwhVFKNaxnKxpNXKm304_sEdNBzwVNecnSAkkR2EBtmm79xT_OVKFEf9AT992ejOKR0U5B5GmavMsmsvX6mSl4li33fJ5cqtgpNZ_51KpwyrmoyVqFdi3VVpdvl0CRPoAIj3YLOK6TdaOVQrQEhoLMg1thaC762eDHi68IkQg38rpkizwHxWNJv7lusmLstDThHt-7WzxofLWtVIRrHQ8u4dBvxm0ByI_nomRLjQivCBVu1PNkIZELvWFBsQe4KhsK5lDx2mCH74MikNrTewQ-h3V7xGDj5bC_36NR_Ff_cU1Rp1s_zHughqSlwqJsga4mfQVb2JeLODxUy5ybUF_a5xsxoD-UJu65UVyDXYbfBXaeLil5o6Dl2547nCGH2tL7Bu_MlFruth73YJW3Toz9RbbiJk7m00]--></g></svg>