<svg xmlns="http://www.w3.org/2000/svg" xmlns:xlink="http://www.w3.org/1999/xlink" contentStyleType="text/css" data-diagram-type="SEQUENCE" height="555px" preserveAspectRatio="none" style="width:856px;height:555px;background:#FAFAFA;" version="1.1" viewBox="0 0 856 555" width="856px" zoomAndPan="magnify"><title>SD7 - Ver feed de publicaciones (Fitgram)</title><defs/><g><rect fill="#FAFAFA" height="555" style="stroke:none;stroke-width:1;" width="856" x="0" y="0"/><text fill="#000000" font-family="sans-serif" font-size="14" font-weight="bold" lengthAdjust="spacing" textLength="331.0303" x="260.8909" y="27.9951">SD7 - Ver feed de publicaciones (Fitgram)</text><g><title>Usuario</title><rect fill="#000000" fill-opacity="0.00000" height="355.7266" width="8" x="30.6021" y="118.5938"/><line style="stroke:#FF7849;stroke-width:0.5;stroke-dasharray:5,5;" x1="34" x2="34" y1="118.5938" y2="474.3203"/></g><g><title>Frontend .React.</title><rect fill="#000000" fill-opacity="0.00000" height="355.7266" width="8" x="265.0142" y="118.5938"/><line style="stroke:#FF7849;stroke-width:0.5;stroke-dasharray:5,5;" x1="268.7192" x2="268.7192" y1="118.5938" y2="474.3203"/></g><g><title>Backend API .Node.Express.</title><rect fill="#000000" fill-opacity="0.00000" height="355.7266" width="8" x="482.9097" y="118.5938"/><line style="stroke:#FF7849;stroke-width:0.5;stroke-dasharray:5,5;" x1="486.6279" x2="486.6279" y1="118.5938" y2="474.3203"/></g><g><title>MongoDB</title><rect fill="#000000" fill-opacity="0.00000" height="355.7266" width="8" x="744.0645" y="118.5938"/><line style="stroke:#FF7849;stroke-width:0.5;stroke-dasharray:5,5;" x1="747.3872" x2="747.3872" y1="118.5938" y2="474.3203"/></g><g><title>MySQL</title><rect fill="#000000" fill-opacity="0.00000" height="355.7266" width="8" x="817.7769" y="118.5938"/><line style="stroke:#FF7849;stroke-width:0.5;stroke-dasharray:5,5;" x1="821.7417" x2="821.7417" y1="118.5938" y2="474.3203"/></g><g class="participant participant-head" data-participant="U"><text fill="#000000" font-family="sans-serif" font-size="14" lengthAdjust="spacing" textLength="53.2041" x="5" y="115.292">Usuario</text><ellipse cx="34.6021" cy="50.7969" fill="#E2E2F0" rx="8" ry="8" style="stroke:#181818;stroke-width:0.5;"/><path d="M34.6021,58.7969 L34.6021,85.7969 M21.6021,66.7969 L47.6021,66.7969 M34.6021,85.7969 L21.6021,100.7969 M34.6021,85.7969 L47.6021,100.7969" fill="none" style="stroke:#181818;stroke-width:0.5;"/></g><g class="participant participant-tail" data-participant="U"><text fill="#000000" font-family="sans-serif" font-size="14" lengthAdjust="spacing" textLength="53.2041" x="5" y="486.3154">Usuario</text><ellipse cx="34.6021" cy="498.1172" fill="#E2E2F0" rx="8" ry="8" style="stroke:#181818;stroke-width:0.5;"/><path d="M34.6021,506.1172 L34.6021,533.1172 M21.6021,514.1172 L47.6021,514.1172 M34.6021,533.1172 L21.6021,548.1172 M34.6021,533.1172 L47.6021,548.1172" fill="none" style="stroke:#181818;stroke-width:0.5;"/></g><g class="participant participant-head" data-participant="FE"><rect fill="#E2E2F0" height="30.2969" rx="2.5" ry="2.5" style="stroke:#181818;stroke-width:0.5;" width="132.5898" x="202.7192" y="87.2969"/><text fill="#000000" font-family="sans-serif" font-size="14" lengthAdjust="spacing" textLength="118.5898" x="209.7192" y="107.292">Frontend (React)</text></g><g class="participant participant-tail" data-participant="FE"><rect fill="#E2E2F0" height="30.2969" rx="2.5" ry="2.5" style="stroke:#181818;stroke-width:0.5;" width="132.5898" x="202.7192" y="473.3203"/><text fill="#000000" font-family="sans-serif" font-size="14" lengthAdjust="spacing" textLength="118.5898" x="209.7192" y="493.3154">Frontend (React)</text></g><g class="participant participant-head" data-participant="API"><rect fill="#E2E2F0" height="30.2969" rx="2.5" ry="2.5" style="stroke:#181818;stroke-width:0.5;" width="212.5635" x="380.6279" y="87.2969"/><text fill="#000000" font-family="sans-serif" font-size="14" lengthAdjust="spacing" textLength="198.5635" x="387.6279" y="107.292">Backend API (Node/Express)</text></g><g class="participant participant-tail" data-participant="API"><rect fill="#E2E2F0" height="30.2969" rx="2.5" ry="2.5" style="stroke:#181818;stroke-width:0.5;" width="212.5635" x="380.6279" y="473.3203"/><text fill="#000000" font-family="sans-serif" font-size="14" lengthAdjust="spacing" textLength="198.5635" x="387.6279" y="493.3154">Backend API (Node/Express)</text></g><g class="participant participant-head" data-participant="MDB"><text fill="#000000" font-family="sans-serif" font-size="14" lengthAdjust="spacing" textLength="67.3545" x="711.3872" y="115.292">MongoDB</text><path d="M730.0645,66.2969 C730.0645,56.2969 748.0645,56.2969 748.0645,56.2969 C748.0645,56.2969 766.0645,56.2969 766.0645,66.2969 L766.0645,92.2969 C766.0645,102.2969 748.0645,102.2969 748.0645,102.2969 C748.0645,102.2969 730.0645,102.2969 730.0645,92.2969 L730.0645,66.2969" fill="#E2E2F0" style="stroke:#181818;stroke-width:0.5;"/><path d="M730.0645,66.2969 C730.0645,76.2969 748.0645,76.2969 748.0645,76.2969 C748.0645,76.2969 766.0645,76.2969 766.0645,66.2969" fill="none" style="stroke:#181818;stroke-width:0.5;"/></g><g class="participant participant-tail" data-participant="MDB"><text fill="#000000" font-family="sans-serif" font-size="14" lengthAdjust="spacing" textLength="67.3545" x="711.3872" y="486.3154">MongoDB</text><path d="M730.0645,499.6172 C730.0645,489.6172 748.0645,489.6172 748.0645,489.6172 C748.0645,489.6172 766.0645,489.6172 766.0645,499.6172 L766.0645,525.6172 C766.0645,535.6172 748.0645,535.6172 748.0645,535.6172 C748.0645,535.6172 730.0645,535.6172 730.0645,525.6172 L730.0645,499.6172" fill="#E2E2F0" style="stroke:#181818;stroke-width:0.5;"/><path d="M730.0645,499.6172 C730.0645,509.6172 748.0645,509.6172 748.0645,509.6172 C748.0645,509.6172 766.0645,509.6172 766.0645,499.6172" fill="none" style="stroke:#181818;stroke-width:0.5;"/></g><g class="participant participant-head" data-participant="SQL"><text fill="#000000" font-family="sans-serif" font-size="14" lengthAdjust="spacing" textLength="48.0703" x="794.7417" y="115.292">MySQL</text><path d="M803.7769,66.2969 C803.7769,56.2969 821.7769,56.2969 821.7769,56.2969 C821.7769,56.2969 839.7769,56.2969 839.7769,66.2969 L839.7769,92.2969 C839.7769,102.2969 821.7769,102.2969 821.7769,102.2969 C821.7769,102.2969 803.7769,102.2969 803.7769,92.2969 L803.7769,66.2969" fill="#E2E2F0" style="stroke:#181818;stroke-width:0.5;"/><path d="M803.7769,66.2969 C803.7769,76.2969 821.7769,76.2969 821.7769,76.2969 C821.7769,76.2969 839.7769,76.2969 839.7769,66.2969" fill="none" style="stroke:#181818;stroke-width:0.5;"/></g><g class="participant participant-tail" data-participant="SQL"><text fill="#000000" font-family="sans-serif" font-size="14" lengthAdjust="spacing" textLength="48.0703" x="794.7417" y="486.3154">MySQL</text><path d="M803.7769,499.6172 C803.7769,489.6172 821.7769,489.6172 821.7769,489.6172 C821.7769,489.6172 839.7769,489.6172 839.7769,499.6172 L839.7769,525.6172 C839.7769,535.6172 821.7769,535.6172 821.7769,535.6172 C821.7769,535.6172 803.7769,535.6172 803.7769,525.6172 L803.7769,499.6172" fill="#E2E2F0" style="stroke:#181818;stroke-width:0.5;"/><path d="M803.7769,499.6172 C803.7769,509.6172 821.7769,509.6172 821.7769,509.6172 C821.7769,509.6172 839.7769,509.6172 839.7769,499.6172" fill="none" style="stroke:#181818;stroke-width:0.5;"/></g><g class="message" data-participant-1="U" data-participant-2="FE"><polygon fill="#FF7849" points="257.0142,145.7266,267.0142,149.7266,257.0142,153.7266,261.0142,149.7266" style="stroke:#FF7849;stroke-width:1;"/><line style="stroke:#FF7849;stroke-width:1;" x1="34.6021" x2="263.0142" y1="149.7266" y2="149.7266"/><text fill="#000000" font-family="sans-serif" font-size="13" lengthAdjust="spacing" textLength="128.1338" x="41.6021" y="144.6606">Abre Fitgram (feed)</text></g><g class="message" data-participant-1="FE" data-participant-2="API"><polygon fill="#FF7849" points="474.9097,174.8594,484.9097,178.8594,474.9097,182.8594,478.9097,178.8594" style="stroke:#FF7849;stroke-width:1;"/><line style="stroke:#FF7849;stroke-width:1;" x1="269.0142" x2="480.9097" y1="178.8594" y2="178.8594"/><text fill="#000000" font-family="sans-serif" font-size="13" lengthAdjust="spacing" textLength="193.8955" x="276.0142" y="173.7935">GET /publicaciones?pagina=1</text></g><g class="message" data-participant-1="API" data-participant-2="MDB"><polygon fill="#FF7849" points="736.0645,219.125,746.0645,223.125,736.0645,227.125,740.0645,223.125" style="stroke:#FF7849;stroke-width:1;"/><line style="stroke:#FF7849;stroke-width:1;" x1="486.9097" x2="742.0645" y1="223.125" y2="223.125"/><text fill="#000000" font-family="sans-serif" font-size="13" lengthAdjust="spacing" textLength="137.3252" x="493.9097" y="202.9263">Buscar publicaciones</text><text fill="#000000" font-family="sans-serif" font-size="13" lengthAdjust="spacing" textLength="237.1548" x="493.9097" y="218.0591">ordenadas por fecha (Publicaciones)</text></g><g class="message" data-participant-1="MDB" data-participant-2="API"><polygon fill="#FF7849" points="497.9097,248.2578,487.9097,252.2578,497.9097,256.2578,493.9097,252.2578" style="stroke:#FF7849;stroke-width:1;"/><line style="stroke:#FF7849;stroke-width:1;stroke-dasharray:2,2;" x1="491.9097" x2="747.0645" y1="252.2578" y2="252.2578"/><text fill="#000000" font-family="sans-serif" font-size="13" lengthAdjust="spacing" textLength="123.627" x="503.9097" y="247.1919">Lista publicaciones</text></g><g class="message" data-participant-1="API" data-participant-2="SQL"><polygon fill="#FF7849" points="809.7769,292.5234,819.7769,296.5234,809.7769,300.5234,813.7769,296.5234" style="stroke:#FF7849;stroke-width:1;"/><line style="stroke:#FF7849;stroke-width:1;" x1="486.9097" x2="815.7769" y1="296.5234" y2="296.5234"/><text fill="#000000" font-family="sans-serif" font-size="13" lengthAdjust="spacing" textLength="206.9399" x="493.9097" y="276.3247">Obtener info b&#225;sica de usuarios</text><text fill="#000000" font-family="sans-serif" font-size="13" lengthAdjust="spacing" textLength="135.6177" x="493.9097" y="291.4575">para cada usuario_id</text></g><g class="message" data-participant-1="SQL" data-participant-2="API"><polygon fill="#FF7849" points="497.9097,321.6563,487.9097,325.6563,497.9097,329.6563,493.9097,325.6563" style="stroke:#FF7849;stroke-width:1;"/><line style="stroke:#FF7849;stroke-width:1;stroke-dasharray:2,2;" x1="491.9097" x2="820.7769" y1="325.6563" y2="325.6563"/><text fill="#000000" font-family="sans-serif" font-size="13" lengthAdjust="spacing" textLength="117.2158" x="503.9097" y="320.5903">Datos de usuarios</text></g><g class="message" data-participant-1="API" data-participant-2="API"><line style="stroke:#FF7849;stroke-width:1;" x1="486.9097" x2="528.9097" y1="369.9219" y2="369.9219"/><line style="stroke:#FF7849;stroke-width:1;" x1="528.9097" x2="528.9097" y1="369.9219" y2="382.9219"/><line style="stroke:#FF7849;stroke-width:1;" x1="487.9097" x2="528.9097" y1="382.9219" y2="382.9219"/><polygon fill="#FF7849" points="497.9097,378.9219,487.9097,382.9219,497.9097,386.9219,493.9097,382.9219" style="stroke:#FF7849;stroke-width:1;"/><text fill="#000000" font-family="sans-serif" font-size="13" lengthAdjust="spacing" textLength="145.3359" x="493.9097" y="349.7231">Construir DTO de feed</text><text fill="#000000" font-family="sans-serif" font-size="13" lengthAdjust="spacing" textLength="229.8169" x="493.9097" y="364.856">(publicaci&#243;n + autor + contadores)</text></g><g class="message" data-participant-1="API" data-participant-2="FE"><polygon fill="#FF7849" points="280.0142,408.0547,270.0142,412.0547,280.0142,416.0547,276.0142,412.0547" style="stroke:#FF7849;stroke-width:1;"/><line style="stroke:#FF7849;stroke-width:1;stroke-dasharray:2,2;" x1="274.0142" x2="485.9097" y1="412.0547" y2="412.0547"/><text fill="#000000" font-family="sans-serif" font-size="13" lengthAdjust="spacing" textLength="97.2017" x="286.0142" y="406.9888">200 OK {feed}</text></g><g class="message" data-participant-1="FE" data-participant-2="U"><polygon fill="#FF7849" points="45.6021,452.3203,35.6021,456.3203,45.6021,460.3203,41.6021,456.3203" style="stroke:#FF7849;stroke-width:1;"/><line style="stroke:#FF7849;stroke-width:1;" x1="39.6021" x2="268.0142" y1="456.3203" y2="456.3203"/><text fill="#000000" font-family="sans-serif" font-size="13" lengthAdjust="spacing" textLength="210.4121" x="51.6021" y="436.1216">Mostrar listado de publicaciones</text><text fill="#000000" font-family="sans-serif" font-size="13" lengthAdjust="spacing" textLength="153.7021" x="51.6021" y="451.2544">con likes y comentarios</text></g><!--SRC=[TLBHRXCn47ptLup2oqLLr8AG2YS1Ide9GYIaq8QdI6Zll1UifFPX-qIhYe_X6_Y4_XZhInCILVWUVDgTdLdFRZHnmxWgpZ70L_QecJKqesdBZQceCivoG3OnSUNffgzKM1lRaFoZf6gzygwr-i9jdCUpcj9tW0ZyesLRCUuLCFJU_TmXw_DNBrzBS6fgdXhB8-Sr-_zcdoXrH_rIYgeeWKLeoHi72bWeqOwcCWtPYDx4EnlPQcHVMB3zNi9CniUWn9ymmyiFo3uvpQVZsyPp25kuX9McI2K5Hc_cxCeLeoupAqQ7cRkhpzCkBhTI2mpUYbIEOUaPZmuYImxtrMISiiASu_tu6gT7VhzhQ6KilNckL6f9W2AKOzI6YlpnQ9OsEMT9YshZqlogxuJiyX3JLrAEmKvlQaAaOvQzZZIUOrwAOx8BnjOEvSFl8BYq4-tMPT5CuqKbehlODwELrFuJAIYwS5Yqb-ZI5yw6w5lZKLpF4oovihJPlgk7FnOde3PDzmIL396qy-aj7SsZio_EpZ3_YFjKBSkmDNMHO-Q4NQpQfATgzsIXbrOO9RkMtRuJzXiM_jJbNm00]--></g></svg>