<svg xmlns="http://www.w3.org/2000/svg" xmlns:xlink="http://www.w3.org/1999/xlink" contentStyleType="text/css" data-diagram-type="SEQUENCE" height="593px" preserveAspectRatio="none" style="width:1027px;height:593px;background:#FAFAFA;" version="1.1" viewBox="0 0 1027 593" width="1027px" zoomAndPan="magnify"><title>SD8 - Crear publicaci&#243;n en Fitgram</title><defs/><g><rect fill="#FAFAFA" height="593" style="stroke:none;stroke-width:1;" width="1027" x="0" y="0"/><text fill="#000000" font-family="sans-serif" font-size="14" font-weight="bold" lengthAdjust="spacing" textLength="276.165" x="377.135" y="27.9951">SD8 - Crear publicaci&#243;n en Fitgram</text><g><title>Usuario</title><rect fill="#000000" fill-opacity="0.00000" height="394.5938" width="8" x="30.6021" y="118.5938"/><line style="stroke:#FF7849;stroke-width:0.5;stroke-dasharray:5,5;" x1="34" x2="34" y1="118.5938" y2="513.1875"/></g><g><title>Frontend .React.</title><rect fill="#000000" fill-opacity="0.00000" height="394.5938" width="8" x="348.3779" y="118.5938"/><line style="stroke:#FF7849;stroke-width:0.5;stroke-dasharray:5,5;" x1="352.083" x2="352.083" y1="118.5938" y2="513.1875"/></g><g><title>Backend API .Node.Express.</title><rect fill="#000000" fill-opacity="0.00000" height="394.5938" width="8" x="720.5913" y="118.5938"/><line style="stroke:#FF7849;stroke-width:0.5;stroke-dasharray:5,5;" x1="724.3096" x2="724.3096" y1="118.5938" y2="513.1875"/></g><g><title>MongoDB</title><rect fill="#000000" fill-opacity="0.00000" height="394.5938" width="8" x="985.7578" y="118.5938"/><line style="stroke:#FF7849;stroke-width:0.5;stroke-dasharray:5,5;" x1="989.0806" x2="989.0806" y1="118.5938" y2="513.1875"/></g><g class="participant participant-head" data-participant="U"><text fill="#000000" font-family="sans-serif" font-size="14" lengthAdjust="spacing" textLength="53.2041" x="5" y="115.292">Usuario</text><ellipse cx="34.6021" cy="50.7969" fill="#E2E2F0" rx="8" ry="8" style="stroke:#181818;stroke-width:0.5;"/><path d="M34.6021,58.7969 L34.6021,85.7969 M21.6021,66.7969 L47.6021,66.7969 M34.6021,85.7969 L21.6021,100.7969 M34.6021,85.7969 L47.6021,100.7969" fill="none" style="stroke:#181818;stroke-width:0.5;"/></g><g class="participant participant-tail" data-participant="U"><text fill="#000000" font-family="sans-serif" font-size="14" lengthAdjust="spacing" textLength="53.2041" x="5" y="525.1826">Usuario</text><ellipse cx="34.6021" cy="536.9844" fill="#E2E2F0" rx="8" ry="8" style="stroke:#181818;stroke-width:0.5;"/><path d="M34.6021,544.9844 L34.6021,571.9844 M21.6021,552.9844 L47.6021,552.9844 M34.6021,571.9844 L21.6021,586.9844 M34.6021,571.9844 L47.6021,586.9844" fill="none" style="stroke:#181818;stroke-width:0.5;"/></g><g class="participant participant-head" data-participant="FE"><rect fill="#E2E2F0" height="30.2969" rx="2.5" ry="2.5" style="stroke:#181818;stroke-width:0.5;" width="132.5898" x="286.083" y="87.2969"/><text fill="#000000" font-family="sans-serif" font-size="14" lengthAdjust="spacing" textLength="118.5898" x="293.083" y="107.292">Frontend (React)</text></g><g class="participant participant-tail" data-participant="FE"><rect fill="#E2E2F0" height="30.2969" rx="2.5" ry="2.5" style="stroke:#181818;stroke-width:0.5;" width="132.5898" x="286.083" y="512.1875"/><text fill="#000000" font-family="sans-serif" font-size="14" lengthAdjust="spacing" textLength="118.5898" x="293.083" y="532.1826">Frontend (React)</text></g><g class="participant participant-head" data-participant="API"><rect fill="#E2E2F0" height="30.2969" rx="2.5" ry="2.5" style="stroke:#181818;stroke-width:0.5;" width="212.5635" x="618.3096" y="87.2969"/><text fill="#000000" font-family="sans-serif" font-size="14" lengthAdjust="spacing" textLength="198.5635" x="625.3096" y="107.292">Backend API (Node/Express)</text></g><g class="participant participant-tail" data-participant="API"><rect fill="#E2E2F0" height="30.2969" rx="2.5" ry="2.5" style="stroke:#181818;stroke-width:0.5;" width="212.5635" x="618.3096" y="512.1875"/><text fill="#000000" font-family="sans-serif" font-size="14" lengthAdjust="spacing" textLength="198.5635" x="625.3096" y="532.1826">Backend API (Node/Express)</text></g><g class="participant participant-head" data-participant="MDB"><text fill="#000000" font-family="sans-serif" font-size="14" lengthAdjust="spacing" textLength="67.3545" x="953.0806" y="115.292">MongoDB</text><path d="M971.7578,66.2969 C971.7578,56.2969 989.7578,56.2969 989.7578,56.2969 C989.7578,56.2969 1007.7578,56.2969 1007.7578,66.2969 L1007.7578,92.2969 C1007.7578,102.2969 989.7578,102.2969 989.7578,102.2969 C989.7578,102.2969 971.7578,102.2969 971.7578,92.2969 L971.7578,66.2969" fill="#E2E2F0" style="stroke:#181818;stroke-width:0.5;"/><path d="M971.7578,66.2969 C971.7578,76.2969 989.7578,76.2969 989.7578,76.2969 C989.7578,76.2969 1007.7578,76.2969 1007.7578,66.2969" fill="none" style="stroke:#181818;stroke-width:0.5;"/></g><g class="participant participant-tail" data-participant="MDB"><text fill="#000000" font-family="sans-serif" font-size="14" lengthAdjust="spacing" textLength="67.3545" x="953.0806" y="525.1826">MongoDB</text><path d="M971.7578,538.4844 C971.7578,528.4844 989.7578,528.4844 989.7578,528.4844 C989.7578,528.4844 1007.7578,528.4844 1007.7578,538.4844 L1007.7578,564.4844 C1007.7578,574.4844 989.7578,574.4844 989.7578,574.4844 C989.7578,574.4844 971.7578,574.4844 971.7578,564.4844 L971.7578,538.4844" fill="#E2E2F0" style="stroke:#181818;stroke-width:0.5;"/><path d="M971.7578,538.4844 C971.7578,548.4844 989.7578,548.4844 989.7578,548.4844 C989.7578,548.4844 1007.7578,548.4844 1007.7578,538.4844" fill="none" style="stroke:#181818;stroke-width:0.5;"/></g><g class="message" data-participant-1="U" data-participant-2="FE"><polygon fill="#FF7849" points="340.3779,145.7266,350.3779,149.7266,340.3779,153.7266,344.3779,149.7266" style="stroke:#FF7849;stroke-width:1;"/><line style="stroke:#FF7849;stroke-width:1;" x1="34.6021" x2="346.3779" y1="149.7266" y2="149.7266"/><text fill="#000000" font-family="sans-serif" font-size="13" lengthAdjust="spacing" textLength="160.4751" x="41.6021" y="144.6606">Abre "Crear publicaci&#243;n"</text></g><g class="message" data-participant-1="FE" data-participant-2="U"><polygon fill="#FF7849" points="45.6021,174.8594,35.6021,178.8594,45.6021,182.8594,41.6021,178.8594" style="stroke:#FF7849;stroke-width:1;"/><line style="stroke:#FF7849;stroke-width:1;" x1="39.6021" x2="351.3779" y1="178.8594" y2="178.8594"/><text fill="#000000" font-family="sans-serif" font-size="13" lengthAdjust="spacing" textLength="293.7759" x="51.6021" y="173.7935">Mostrar formulario (texto, imagen, hashtags)</text></g><g class="message" data-participant-1="U" data-participant-2="FE"><polygon fill="#FF7849" points="340.3779,203.9922,350.3779,207.9922,340.3779,211.9922,344.3779,207.9922" style="stroke:#FF7849;stroke-width:1;"/><line style="stroke:#FF7849;stroke-width:1;" x1="34.6021" x2="346.3779" y1="207.9922" y2="207.9922"/><text fill="#000000" font-family="sans-serif" font-size="13" lengthAdjust="spacing" textLength="221.6982" x="41.6021" y="202.9263">Completa datos y pulsa "Publicar"</text></g><g class="message" data-participant-1="FE" data-participant-2="FE"><line style="stroke:#FF7849;stroke-width:1;" x1="352.3779" x2="394.3779" y1="237.125" y2="237.125"/><line style="stroke:#FF7849;stroke-width:1;" x1="394.3779" x2="394.3779" y1="237.125" y2="250.125"/><line style="stroke:#FF7849;stroke-width:1;" x1="353.3779" x2="394.3779" y1="250.125" y2="250.125"/><polygon fill="#FF7849" points="363.3779,246.125,353.3779,250.125,363.3779,254.125,359.3779,250.125" style="stroke:#FF7849;stroke-width:1;"/><text fill="#000000" font-family="sans-serif" font-size="13" lengthAdjust="spacing" textLength="154.0259" x="359.3779" y="232.0591">Validar datos en cliente</text></g><g class="message" data-participant-1="FE" data-participant-2="API"><polygon fill="#FF7849" points="712.5913,275.2578,722.5913,279.2578,712.5913,283.2578,716.5913,279.2578" style="stroke:#FF7849;stroke-width:1;"/><line style="stroke:#FF7849;stroke-width:1;" x1="352.3779" x2="718.5913" y1="279.2578" y2="279.2578"/><text fill="#000000" font-family="sans-serif" font-size="13" lengthAdjust="spacing" textLength="348.2134" x="359.3779" y="274.1919">POST /publicaciones {contenido, hashtags, imagen?}</text></g><g class="message" data-participant-1="API" data-participant-2="API"><line style="stroke:#FF7849;stroke-width:1;" x1="724.5913" x2="766.5913" y1="308.3906" y2="308.3906"/><line style="stroke:#FF7849;stroke-width:1;" x1="766.5913" x2="766.5913" y1="308.3906" y2="321.3906"/><line style="stroke:#FF7849;stroke-width:1;" x1="725.5913" x2="766.5913" y1="321.3906" y2="321.3906"/><polygon fill="#FF7849" points="735.5913,317.3906,725.5913,321.3906,735.5913,325.3906,731.5913,321.3906" style="stroke:#FF7849;stroke-width:1;"/><text fill="#000000" font-family="sans-serif" font-size="13" lengthAdjust="spacing" textLength="99.4805" x="731.5913" y="303.3247">Validar request</text></g><g class="message" data-participant-1="API" data-participant-2="MDB"><polygon fill="#FF7849" points="977.7578,346.5234,987.7578,350.5234,977.7578,354.5234,981.7578,350.5234" style="stroke:#FF7849;stroke-width:1;"/><line style="stroke:#FF7849;stroke-width:1;" x1="724.5913" x2="983.7578" y1="350.5234" y2="350.5234"/><text fill="#000000" font-family="sans-serif" font-size="13" lengthAdjust="spacing" textLength="241.1665" x="731.5913" y="345.4575">Insertar documento en Publicaciones</text></g><g class="message" data-participant-1="MDB" data-participant-2="API"><polygon fill="#FF7849" points="735.5913,375.6563,725.5913,379.6563,735.5913,383.6563,731.5913,379.6563" style="stroke:#FF7849;stroke-width:1;"/><line style="stroke:#FF7849;stroke-width:1;stroke-dasharray:2,2;" x1="729.5913" x2="988.7578" y1="379.6563" y2="379.6563"/><text fill="#000000" font-family="sans-serif" font-size="13" lengthAdjust="spacing" textLength="18.7573" x="741.5913" y="374.5903">OK</text></g><g class="message" data-participant-1="API" data-participant-2="FE"><polygon fill="#FF7849" points="363.3779,404.7891,353.3779,408.7891,363.3779,412.7891,359.3779,408.7891" style="stroke:#FF7849;stroke-width:1;"/><line style="stroke:#FF7849;stroke-width:1;stroke-dasharray:2,2;" x1="357.3779" x2="723.5913" y1="408.7891" y2="408.7891"/><text fill="#000000" font-family="sans-serif" font-size="13" lengthAdjust="spacing" textLength="226.5605" x="369.3779" y="403.7231">201 Created {publicacion_creada}</text></g><g class="message" data-participant-1="FE" data-participant-2="FE"><line style="stroke:#FF7849;stroke-width:1;" x1="352.3779" x2="394.3779" y1="453.0547" y2="453.0547"/><line style="stroke:#FF7849;stroke-width:1;" x1="394.3779" x2="394.3779" y1="453.0547" y2="466.0547"/><line style="stroke:#FF7849;stroke-width:1;" x1="353.3779" x2="394.3779" y1="466.0547" y2="466.0547"/><polygon fill="#FF7849" points="363.3779,462.0547,353.3779,466.0547,363.3779,470.0547,359.3779,466.0547" style="stroke:#FF7849;stroke-width:1;"/><text fill="#000000" font-family="sans-serif" font-size="13" lengthAdjust="spacing" textLength="169.1396" x="359.3779" y="432.856">A&#241;adir publicaci&#243;n al feed</text><text fill="#000000" font-family="sans-serif" font-size="13" lengthAdjust="spacing" textLength="78.1206" x="359.3779" y="447.9888">sin recargar</text></g><g class="message" data-participant-1="FE" data-participant-2="U"><polygon fill="#FF7849" points="45.6021,491.1875,35.6021,495.1875,45.6021,499.1875,41.6021,495.1875" style="stroke:#FF7849;stroke-width:1;"/><line style="stroke:#FF7849;stroke-width:1;" x1="39.6021" x2="351.3779" y1="495.1875" y2="495.1875"/><text fill="#000000" font-family="sans-serif" font-size="13" lengthAdjust="spacing" textLength="247.5967" x="51.6021" y="490.1216">Mostrar mensaje "Publicaci&#243;n creada"</text></g><!--SRC=[TLBRRjGm47ttLup2orRgge2GAFi0sgjKqQKholA4X6RjIMgQs67iYA9LFwhY4_fZZ9DD2Qo8NwAPutFEd76qiIIuNfp36EPCo50tkz9grFRnbmDoiBAnOAoK2hVMrIY_i4DzMx1ld9dxqZCyop6T0IBGzuQS9jWhW2cp_z4ZyzVdhzv8yTBcT6aTpJmRulzsZvJQJzqhXJfAOHiQPEi10soLQ4UhROqkGhPYxo8v0wEF9DYJB65Moxz1YJzXffiB67tmXiwMTpLJ21rSoifWn1q6WcpjNU4NixQpNioKsiBuhL1EOBfZwH_dbwdLCc6s4rZx45dQkUUgALlFeqXtqP-2hR0WTmet66uY5k5am3ptLLrIH10RFi1FeIy3GhRfLBXNIDZFM5eZ4XrKLgTBIvB10IB3J61pTVq9pfuyUaS1zhfDoXh_nqFlwfqadSBfx_SQd1OSOj-JE2PmuG9nJ0QyRYfHzid4PgYb10ZZdkpg_O7yCC3Bvo_QHnZ9m7xWyQkMei7xmQpJnmSqzf_NYYNaHEQB2zQ9GucdG3vUWLWB-8sUGkmkTnhPRm00]--></g></svg>