<svg xmlns="http://www.w3.org/2000/svg" xmlns:xlink="http://www.w3.org/1999/xlink" contentStyleType="text/css" data-diagram-type="SEQUENCE" height="667px" preserveAspectRatio="none" style="width:892px;height:667px;background:#FAFAFA;" version="1.1" viewBox="0 0 892 667" width="892px" zoomAndPan="magnify"><title>SD9 - Comentar en una publicaci&#243;n</title><defs/><g><rect fill="#FAFAFA" height="667" style="stroke:none;stroke-width:1;" width="892" x="0" y="0"/><text fill="#000000" font-family="sans-serif" font-size="14" font-weight="bold" lengthAdjust="spacing" textLength="277.4912" x="308.8916" y="27.9951">SD9 - Comentar en una publicaci&#243;n</text><g><title>Usuario</title><rect fill="#000000" fill-opacity="0.00000" height="467.9922" width="8" x="30.6021" y="118.5938"/><line style="stroke:#FF7849;stroke-width:0.5;stroke-dasharray:5,5;" x1="34" x2="34" y1="118.5938" y2="586.5859"/></g><g><title>Frontend .React.</title><rect fill="#000000" fill-opacity="0.00000" height="467.9922" width="8" x="288.0117" y="118.5938"/><line style="stroke:#FF7849;stroke-width:0.5;stroke-dasharray:5,5;" x1="291.7168" x2="291.7168" y1="118.5938" y2="586.5859"/></g><g><title>Backend API .Node.Express.</title><rect fill="#000000" fill-opacity="0.00000" height="467.9922" width="8" x="590.7119" y="118.5938"/><line style="stroke:#FF7849;stroke-width:0.5;stroke-dasharray:5,5;" x1="594.4302" x2="594.4302" y1="118.5938" y2="586.5859"/></g><g><title>MongoDB</title><rect fill="#000000" fill-opacity="0.00000" height="467.9922" width="8" x="850.5972" y="118.5938"/><line style="stroke:#FF7849;stroke-width:0.5;stroke-dasharray:5,5;" x1="853.9199" x2="853.9199" y1="118.5938" y2="586.5859"/></g><g class="participant participant-head" data-participant="U"><text fill="#000000" font-family="sans-serif" font-size="14" lengthAdjust="spacing" textLength="53.2041" x="5" y="115.292">Usuario</text><ellipse cx="34.6021" cy="50.7969" fill="#E2E2F0" rx="8" ry="8" style="stroke:#181818;stroke-width:0.5;"/><path d="M34.6021,58.7969 L34.6021,85.7969 M21.6021,66.7969 L47.6021,66.7969 M34.6021,85.7969 L21.6021,100.7969 M34.6021,85.7969 L47.6021,100.7969" fill="none" style="stroke:#181818;stroke-width:0.5;"/></g><g class="participant participant-tail" data-participant="U"><text fill="#000000" font-family="sans-serif" font-size="14" lengthAdjust="spacing" textLength="53.2041" x="5" y="598.5811">Usuario</text><ellipse cx="34.6021" cy="610.3828" fill="#E2E2F0" rx="8" ry="8" style="stroke:#181818;stroke-width:0.5;"/><path d="M34.6021,618.3828 L34.6021,645.3828 M21.6021,626.3828 L47.6021,626.3828 M34.6021,645.3828 L21.6021,660.3828 M34.6021,645.3828 L47.6021,660.3828" fill="none" style="stroke:#181818;stroke-width:0.5;"/></g><g class="participant participant-head" data-participant="FE"><rect fill="#E2E2F0" height="30.2969" rx="2.5" ry="2.5" style="stroke:#181818;stroke-width:0.5;" width="132.5898" x="225.7168" y="87.2969"/><text fill="#000000" font-family="sans-serif" font-size="14" lengthAdjust="spacing" textLength="118.5898" x="232.7168" y="107.292">Frontend (React)</text></g><g class="participant participant-tail" data-participant="FE"><rect fill="#E2E2F0" height="30.2969" rx="2.5" ry="2.5" style="stroke:#181818;stroke-width:0.5;" width="132.5898" x="225.7168" y="585.5859"/><text fill="#000000" font-family="sans-serif" font-size="14" lengthAdjust="spacing" textLength="118.5898" x="232.7168" y="605.5811">Frontend (React)</text></g><g class="participant participant-head" data-participant="API"><rect fill="#E2E2F0" height="30.2969" rx="2.5" ry="2.5" style="stroke:#181818;stroke-width:0.5;" width="212.5635" x="488.4302" y="87.2969"/><text fill="#000000" font-family="sans-serif" font-size="14" lengthAdjust="spacing" textLength="198.5635" x="495.4302" y="107.292">Backend API (Node/Express)</text></g><g class="participant participant-tail" data-participant="API"><rect fill="#E2E2F0" height="30.2969" rx="2.5" ry="2.5" style="stroke:#181818;stroke-width:0.5;" width="212.5635" x="488.4302" y="585.5859"/><text fill="#000000" font-family="sans-serif" font-size="14" lengthAdjust="spacing" textLength="198.5635" x="495.4302" y="605.5811">Backend API (Node/Express)</text></g><g class="participant participant-head" data-participant="MDB"><text fill="#000000" font-family="sans-serif" font-size="14" lengthAdjust="spacing" textLength="67.3545" x="817.9199" y="115.292">MongoDB</text><path d="M836.5972,66.2969 C836.5972,56.2969 854.5972,56.2969 854.5972,56.2969 C854.5972,56.2969 872.5972,56.2969 872.5972,66.2969 L872.5972,92.2969 C872.5972,102.2969 854.5972,102.2969 854.5972,102.2969 C854.5972,102.2969 836.5972,102.2969 836.5972,92.2969 L836.5972,66.2969" fill="#E2E2F0" style="stroke:#181818;stroke-width:0.5;"/><path d="M836.5972,66.2969 C836.5972,76.2969 854.5972,76.2969 854.5972,76.2969 C854.5972,76.2969 872.5972,76.2969 872.5972,66.2969" fill="none" style="stroke:#181818;stroke-width:0.5;"/></g><g class="participant participant-tail" data-participant="MDB"><text fill="#000000" font-family="sans-serif" font-size="14" lengthAdjust="spacing" textLength="67.3545" x="817.9199" y="598.5811">MongoDB</text><path d="M836.5972,611.8828 C836.5972,601.8828 854.5972,601.8828 854.5972,601.8828 C854.5972,601.8828 872.5972,601.8828 872.5972,611.8828 L872.5972,637.8828 C872.5972,647.8828 854.5972,647.8828 854.5972,647.8828 C854.5972,647.8828 836.5972,647.8828 836.5972,637.8828 L836.5972,611.8828" fill="#E2E2F0" style="stroke:#181818;stroke-width:0.5;"/><path d="M836.5972,611.8828 C836.5972,621.8828 854.5972,621.8828 854.5972,621.8828 C854.5972,621.8828 872.5972,621.8828 872.5972,611.8828" fill="none" style="stroke:#181818;stroke-width:0.5;"/></g><g class="message" data-participant-1="U" data-participant-2="FE"><polygon fill="#FF7849" points="280.0117,160.8594,290.0117,164.8594,280.0117,168.8594,284.0117,164.8594" style="stroke:#FF7849;stroke-width:1;"/><line style="stroke:#FF7849;stroke-width:1;" x1="34.6021" x2="286.0117" y1="164.8594" y2="164.8594"/><text fill="#000000" font-family="sans-serif" font-size="13" lengthAdjust="spacing" textLength="177.7026" x="41.6021" y="144.6606">Abre detalle de publicaci&#243;n</text><text fill="#000000" font-family="sans-serif" font-size="13" lengthAdjust="spacing" textLength="181.7271" x="41.6021" y="159.7935">o ve comentarios en el feed</text></g><g class="message" data-participant-1="FE" data-participant-2="U"><polygon fill="#FF7849" points="45.6021,189.9922,35.6021,193.9922,45.6021,197.9922,41.6021,193.9922" style="stroke:#FF7849;stroke-width:1;"/><line style="stroke:#FF7849;stroke-width:1;" x1="39.6021" x2="291.0117" y1="193.9922" y2="193.9922"/><text fill="#000000" font-family="sans-serif" font-size="13" lengthAdjust="spacing" textLength="186.1514" x="51.6021" y="188.9263">Mostrar lista de comentarios</text></g><g class="message" data-participant-1="U" data-participant-2="FE"><polygon fill="#FF7849" points="280.0117,219.125,290.0117,223.125,280.0117,227.125,284.0117,223.125" style="stroke:#FF7849;stroke-width:1;"/><line style="stroke:#FF7849;stroke-width:1;" x1="34.6021" x2="286.0117" y1="223.125" y2="223.125"/><text fill="#000000" font-family="sans-serif" font-size="13" lengthAdjust="spacing" textLength="233.4097" x="41.6021" y="218.0591">Escribe comentario y pulsa "Enviar"</text></g><g class="message" data-participant-1="FE" data-participant-2="FE"><line style="stroke:#FF7849;stroke-width:1;" x1="292.0117" x2="334.0117" y1="252.2578" y2="252.2578"/><line style="stroke:#FF7849;stroke-width:1;" x1="334.0117" x2="334.0117" y1="252.2578" y2="265.2578"/><line style="stroke:#FF7849;stroke-width:1;" x1="293.0117" x2="334.0117" y1="265.2578" y2="265.2578"/><polygon fill="#FF7849" points="303.0117,261.2578,293.0117,265.2578,303.0117,269.2578,299.0117,265.2578" style="stroke:#FF7849;stroke-width:1;"/><text fill="#000000" font-family="sans-serif" font-size="13" lengthAdjust="spacing" textLength="192.7275" x="299.0117" y="247.1919">Validar comentario (no vac&#237;o)</text></g><g class="message" data-participant-1="FE" data-participant-2="API"><polygon fill="#FF7849" points="582.7119,290.3906,592.7119,294.3906,582.7119,298.3906,586.7119,294.3906" style="stroke:#FF7849;stroke-width:1;"/><line style="stroke:#FF7849;stroke-width:1;" x1="292.0117" x2="588.7119" y1="294.3906" y2="294.3906"/><text fill="#000000" font-family="sans-serif" font-size="13" lengthAdjust="spacing" textLength="278.7002" x="299.0117" y="289.3247">POST /comentarios {publicacion_id, texto}</text></g><g class="message" data-participant-1="API" data-participant-2="API"><line style="stroke:#FF7849;stroke-width:1;" x1="594.7119" x2="636.7119" y1="323.5234" y2="323.5234"/><line style="stroke:#FF7849;stroke-width:1;" x1="636.7119" x2="636.7119" y1="323.5234" y2="336.5234"/><line style="stroke:#FF7849;stroke-width:1;" x1="595.7119" x2="636.7119" y1="336.5234" y2="336.5234"/><polygon fill="#FF7849" points="605.7119,332.5234,595.7119,336.5234,605.7119,340.5234,601.7119,336.5234" style="stroke:#FF7849;stroke-width:1;"/><text fill="#000000" font-family="sans-serif" font-size="13" lengthAdjust="spacing" textLength="85.8203" x="601.7119" y="318.4575">Validar datos</text></g><g class="message" data-participant-1="API" data-participant-2="MDB"><polygon fill="#FF7849" points="842.5972,361.6563,852.5972,365.6563,842.5972,369.6563,846.5972,365.6563" style="stroke:#FF7849;stroke-width:1;"/><line style="stroke:#FF7849;stroke-width:1;" x1="594.7119" x2="848.5972" y1="365.6563" y2="365.6563"/><text fill="#000000" font-family="sans-serif" font-size="13" lengthAdjust="spacing" textLength="235.8853" x="601.7119" y="360.5903">Insertar comentario en Comentarios</text></g><g class="message" data-participant-1="MDB" data-participant-2="API"><polygon fill="#FF7849" points="605.7119,390.7891,595.7119,394.7891,605.7119,398.7891,601.7119,394.7891" style="stroke:#FF7849;stroke-width:1;"/><line style="stroke:#FF7849;stroke-width:1;stroke-dasharray:2,2;" x1="599.7119" x2="853.5972" y1="394.7891" y2="394.7891"/><text fill="#000000" font-family="sans-serif" font-size="13" lengthAdjust="spacing" textLength="18.7573" x="611.7119" y="389.7231">OK</text></g><g class="message" data-participant-1="API" data-participant-2="MDB"><polygon fill="#FF7849" points="842.5972,435.0547,852.5972,439.0547,842.5972,443.0547,846.5972,439.0547" style="stroke:#FF7849;stroke-width:1;"/><line style="stroke:#FF7849;stroke-width:1;" x1="594.7119" x2="848.5972" y1="439.0547" y2="439.0547"/><text fill="#000000" font-family="sans-serif" font-size="13" lengthAdjust="spacing" textLength="213.2495" x="601.7119" y="418.856">(Opcional) Incrementar contador</text><text fill="#000000" font-family="sans-serif" font-size="13" lengthAdjust="spacing" textLength="193.6416" x="601.7119" y="433.9888">comentarios en Publicaciones</text></g><g class="message" data-participant-1="MDB" data-participant-2="API"><polygon fill="#FF7849" points="605.7119,464.1875,595.7119,468.1875,605.7119,472.1875,601.7119,468.1875" style="stroke:#FF7849;stroke-width:1;"/><line style="stroke:#FF7849;stroke-width:1;stroke-dasharray:2,2;" x1="599.7119" x2="853.5972" y1="468.1875" y2="468.1875"/><text fill="#000000" font-family="sans-serif" font-size="13" lengthAdjust="spacing" textLength="18.7573" x="611.7119" y="463.1216">OK</text></g><g class="message" data-participant-1="API" data-participant-2="FE"><polygon fill="#FF7849" points="303.0117,493.3203,293.0117,497.3203,303.0117,501.3203,299.0117,497.3203" style="stroke:#FF7849;stroke-width:1;"/><line style="stroke:#FF7849;stroke-width:1;stroke-dasharray:2,2;" x1="297.0117" x2="593.7119" y1="497.3203" y2="497.3203"/><text fill="#000000" font-family="sans-serif" font-size="13" lengthAdjust="spacing" textLength="226.4907" x="309.0117" y="492.2544">201 Created {comentario_creado}</text></g><g class="message" data-participant-1="FE" data-participant-2="FE"><line style="stroke:#FF7849;stroke-width:1;" x1="292.0117" x2="334.0117" y1="526.4531" y2="526.4531"/><line style="stroke:#FF7849;stroke-width:1;" x1="334.0117" x2="334.0117" y1="526.4531" y2="539.4531"/><line style="stroke:#FF7849;stroke-width:1;" x1="293.0117" x2="334.0117" y1="539.4531" y2="539.4531"/><polygon fill="#FF7849" points="303.0117,535.4531,293.0117,539.4531,303.0117,543.4531,299.0117,539.4531" style="stroke:#FF7849;stroke-width:1;"/><text fill="#000000" font-family="sans-serif" font-size="13" lengthAdjust="spacing" textLength="179.4165" x="299.0117" y="521.3872">A&#241;adir comentario a la lista</text></g><g class="message" data-participant-1="FE" data-participant-2="U"><polygon fill="#FF7849" points="45.6021,564.5859,35.6021,568.5859,45.6021,572.5859,41.6021,568.5859" style="stroke:#FF7849;stroke-width:1;"/><line style="stroke:#FF7849;stroke-width:1;" x1="39.6021" x2="291.0117" y1="568.5859" y2="568.5859"/><text fill="#000000" font-family="sans-serif" font-size="13" lengthAdjust="spacing" textLength="195.2222" x="51.6021" y="563.52">Mostrar comentario publicado</text></g><!--SRC=[TPBFQXin4CRlUeh1lTXGaxOKslXGy9yrXCQrQUgS0c5M6WSHHRELj6cAoIFrKFe8Vh6EudMoMzFTmyBCf- -R-McJJOxWOdOAGvZo7Vc40SX3xH6gkdHMexQxFrwfU6jzXG7le4HzUnEuzcRAZWEysc1-Muf8tslocc2h0COXy8-3SlFXu_jJAPxR3PrRJnCEXi9_kqT9JuzwL0frai8wrXWi0qPOAybELjiAVOBUFB1Fv0tqlv9e1xsicHTTKVRFcl7g3FfVsD19yL05Yd4lbx8ocB34ID1RiB_XsUIfivXDb5h3y9DOZc1S1W932PtBtmwuAyzmJw0RjfPZnaiEDaH6pOliiHx1WcCAWjxPc31xj0wqaegeWotRNVWfSIuYz0f_Rp7q6i-ilaHdZPYsrFqy3khTBnuqGbbo1AlbnJSuQG-vVLw2_RKrho7HGs81draTZXq219ACsNI4pGZEVAIGkjcozxIrbUXWU71QVkuSxo-h78nk84uwKFDZQhbJD1ok_3yyLo_3qh7pthg1ykxDMvW6maG6jYysrv8YreyjVEFTRpIsimA2m_qT7LzTIzQmC_mN]--></g></svg>