<svg xmlns="http://www.w3.org/2000/svg" xmlns:xlink="http://www.w3.org/1999/xlink" contentStyleType="text/css" data-diagram-type="DESCRIPTION" height="2863px" preserveAspectRatio="none" style="width:715px;height:2863px;background:#FFFFFF;" version="1.1" viewBox="0 0 715 2863" width="715px" zoomAndPan="magnify"><defs/><g><!--cluster Autenticaci?n y Onboarding--><g class="cluster" data-entity="Autenticaci.n y Onboarding" data-source-line="6" data-uid="ent0003" id="cluster_Autenticaci.n y Onboarding"><rect fill="none" height="239" rx="2.5" ry="2.5" style="stroke:#181818;stroke-width:1;" width="547.56" x="124.62" y="7"/><text fill="#000000" font-family="sans-serif" font-size="14" font-weight="bold" lengthAdjust="spacing" textLength="220.418" x="288.191" y="21.9951">Autenticaci&#243;n y Onboarding</text></g><!--cluster Dashboard--><g class="cluster" data-entity="Dashboard" data-source-line="13" data-uid="ent0008" id="cluster_Dashboard"><rect fill="none" height="556" rx="2.5" ry="2.5" style="stroke:#181818;stroke-width:1;" width="230.04" x="127.77" y="317"/><text fill="#000000" font-family="sans-serif" font-size="14" font-weight="bold" lengthAdjust="spacing" textLength="85.3809" x="200.0996" y="331.9951">Dashboard</text></g><!--cluster Entrenamientos--><g class="cluster" data-entity="Entrenamientos" data-source-line="22" data-uid="ent0015" id="cluster_Entrenamientos"><rect fill="none" height="188" rx="2.5" ry="2.5" style="stroke:#181818;stroke-width:1;" width="576.11" x="133.12" y="897"/><text fill="#000000" font-family="sans-serif" font-size="14" font-weight="bold" lengthAdjust="spacing" textLength="125.5283" x="358.4108" y="911.9951">Entrenamientos</text></g><!--cluster Calendario--><g class="cluster" data-entity="Calendario" data-source-line="29" data-uid="ent0020" id="cluster_Calendario"><rect fill="none" height="103" rx="2.5" ry="2.5" style="stroke:#181818;stroke-width:1;" width="574.8" x="121.38" y="1109"/><text fill="#000000" font-family="sans-serif" font-size="14" font-weight="bold" lengthAdjust="spacing" textLength="84.7725" x="366.3938" y="1123.9951">Calendario</text></g><!--cluster Objetivos y Logros--><g class="cluster" data-entity="Objetivos y Logros" data-source-line="34" data-uid="ent0023" id="cluster_Objetivos y Logros"><rect fill="none" height="352" rx="2.5" ry="2.5" style="stroke:#181818;stroke-width:1;" width="273.18" x="106.2" y="1283"/><text fill="#000000" font-family="sans-serif" font-size="14" font-weight="bold" lengthAdjust="spacing" textLength="147.0752" x="169.2524" y="1297.9951">Objetivos y Logros</text></g><!--cluster Comunidad - Fitgram--><g class="cluster" data-entity="Comunidad - Fitgram" data-source-line="41" data-uid="ent0028" id="cluster_Comunidad - Fitgram"><rect fill="none" height="358" rx="2.5" ry="2.5" style="stroke:#181818;stroke-width:1;" width="565.61" x="110.53" y="1659"/><text fill="#000000" font-family="sans-serif" font-size="14" font-weight="bold" lengthAdjust="spacing" textLength="166.2773" x="310.1963" y="1673.9951">Comunidad - Fitgram</text></g><!--cluster Retos--><g class="cluster" data-entity="Retos" data-source-line="49" data-uid="ent0034" id="cluster_Retos"><rect fill="none" height="306" rx="2.5" ry="2.5" style="stroke:#181818;stroke-width:1;" width="237.99" x="123.8" y="2088"/><text fill="#000000" font-family="sans-serif" font-size="14" font-weight="bold" lengthAdjust="spacing" textLength="44.9189" x="220.3355" y="2102.9951">Retos</text></g><!--cluster Perfil y Configuraci?n--><g class="cluster" data-entity="Perfil y Configuraci.n" data-source-line="56" data-uid="ent0039" id="cluster_Perfil y Configuraci.n"><rect fill="none" height="247" rx="2.5" ry="2.5" style="stroke:#181818;stroke-width:1;" width="245.9" x="119.84" y="2418"/><text fill="#000000" font-family="sans-serif" font-size="14" font-weight="bold" lengthAdjust="spacing" textLength="170.9941" x="157.2929" y="2432.9951">Perfil y Configuraci&#243;n</text></g><!--cluster Soporte y Ayuda--><g class="cluster" data-entity="Soporte y Ayuda" data-source-line="62" data-uid="ent0043" id="cluster_Soporte y Ayuda"><rect fill="none" height="168" rx="2.5" ry="2.5" style="stroke:#181818;stroke-width:1;" width="183.31" x="151.14" y="2689"/><text fill="#000000" font-family="sans-serif" font-size="14" font-weight="bold" lengthAdjust="spacing" textLength="130.7031" x="177.4434" y="2703.9951">Soporte y Ayuda</text></g><!--entity UC_Registrarse--><g class="entity" data-entity="UC_Registrarse" data-source-line="7" data-uid="ent0004" id="entity_UC_Registrarse"><ellipse cx="242.7867" cy="139.0036" fill="#F1F1F1" rx="59.4967" ry="14.5236" style="stroke:#181818;stroke-width:0.5;"/><text fill="#000000" font-family="sans-serif" font-size="14" lengthAdjust="spacing" textLength="79.8984" x="202.8375" y="143.6521">Registrarse</text></g><!--entity UC_Login--><g class="entity" data-entity="UC_Login" data-source-line="8" data-uid="ent0005" id="entity_UC_Login"><ellipse cx="591.8111" cy="173.0042" fill="#F1F1F1" rx="64.3711" ry="15.2742" style="stroke:#181818;stroke-width:0.5;"/><text fill="#000000" font-family="sans-serif" font-size="14" lengthAdjust="spacing" textLength="91.793" x="545.9146" y="177.6527">Iniciar sesi&#243;n</text></g><!--entity UC_Forgot--><g class="entity" data-entity="UC_Forgot" data-source-line="9" data-uid="ent0006" id="entity_UC_Forgot"><ellipse cx="242.7869" cy="208.9954" fill="#F1F1F1" rx="90.6769" ry="20.5354" style="stroke:#181818;stroke-width:0.5;"/><text fill="#000000" font-family="sans-serif" font-size="14" lengthAdjust="spacing" textLength="155.2715" x="165.1511" y="213.6438">Recuperar contrase&#241;a</text></g><!--entity UC_Onboarding--><g class="entity" data-entity="UC_Onboarding" data-source-line="10" data-uid="ent0007" id="entity_UC_Onboarding"><ellipse cx="242.7929" cy="65.9958" fill="#F1F1F1" rx="102.1729" ry="23.5358" style="stroke:#181818;stroke-width:0.5;"/><text fill="#000000" font-family="sans-serif" font-size="14" lengthAdjust="spacing" textLength="157.4043" x="164.0907" y="66.2975">Completar onboarding</text><text fill="#000000" font-family="sans-serif" font-size="14" lengthAdjust="spacing" textLength="40.708" x="222.4389" y="82.5943">inicial</text></g><!--entity UC_Dashboard--><g class="entity" data-entity="UC_Dashboard" data-source-line="14" data-uid="ent0009" id="entity_UC_Dashboard"><ellipse cx="242.7884" cy="396.9989" fill="#F1F1F1" rx="90.4584" ry="45.0789" style="stroke:#181818;stroke-width:0.5;"/><text fill="#000000" font-family="sans-serif" font-size="14" lengthAdjust="spacing" textLength="102.7031" x="191.4368" y="375.7339">Ver dashboard</text><text fill="#000000" font-family="sans-serif" font-size="14" lengthAdjust="spacing" textLength="135.4883" x="175.0442" y="392.0308">(resumen semanal,</text><text fill="#000000" font-family="sans-serif" font-size="14" lengthAdjust="spacing" textLength="111.0293" x="187.2737" y="408.3277">pr&#243;xima sesi&#243;n,</text><text fill="#000000" font-family="sans-serif" font-size="14" lengthAdjust="spacing" textLength="117.708" x="183.9344" y="424.6246">logros recientes)</text></g><!--entity UC_GotoEntr--><g class="entity" data-entity="UC_GotoEntr" data-source-line="15" data-uid="ent0010" id="entity_UC_GotoEntr"><ellipse cx="242.7883" cy="501.0014" fill="#F1F1F1" rx="76.0383" ry="24.3714" style="stroke:#181818;stroke-width:0.5;"/><text fill="#000000" font-family="sans-serif" font-size="14" lengthAdjust="spacing" textLength="69.8701" x="207.8532" y="495.0301">Acceder a</text><text fill="#000000" font-family="sans-serif" font-size="14" lengthAdjust="spacing" textLength="111.3916" x="187.0925" y="511.327">Entrenamientos</text></g><!--entity UC_GotoObjetivos--><g class="entity" data-entity="UC_GotoObjetivos" data-source-line="16" data-uid="ent0011" id="entity_UC_GotoObjetivos"><ellipse cx="242.7891" cy="584.0024" fill="#F1F1F1" rx="96.2091" ry="23.9524" style="stroke:#181818;stroke-width:0.5;"/><text fill="#000000" font-family="sans-serif" font-size="14" lengthAdjust="spacing" textLength="69.8701" x="207.8541" y="577.3742">Acceder a</text><text fill="#000000" font-family="sans-serif" font-size="14" lengthAdjust="spacing" textLength="144.9971" x="170.2906" y="593.6711">Objetivos y Progreso</text></g><!--entity UC_GotoFitgram--><g class="entity" data-entity="UC_GotoFitgram" data-source-line="17" data-uid="ent0012" id="entity_UC_GotoFitgram"><ellipse cx="242.7923" cy="666.9962" fill="#F1F1F1" rx="99.0223" ry="23.9162" style="stroke:#181818;stroke-width:0.5;"/><text fill="#000000" font-family="sans-serif" font-size="14" lengthAdjust="spacing" textLength="69.8701" x="207.8572" y="660.3103">Acceder a</text><text fill="#000000" font-family="sans-serif" font-size="14" lengthAdjust="spacing" textLength="149.6318" x="167.9763" y="676.6072">Fitgram (Comunidad)</text></g><!--entity UC_GotoRetos--><g class="entity" data-entity="UC_GotoRetos" data-source-line="18" data-uid="ent0013" id="entity_UC_GotoRetos"><ellipse cx="242.7857" cy="749.996" fill="#F1F1F1" rx="48.4157" ry="24.186" style="stroke:#181818;stroke-width:0.5;"/><text fill="#000000" font-family="sans-serif" font-size="14" lengthAdjust="spacing" textLength="69.8701" x="207.8507" y="749.2556">Acceder a</text><text fill="#000000" font-family="sans-serif" font-size="14" lengthAdjust="spacing" textLength="39.6895" x="222.941" y="765.5524">Retos</text></g><!--entity UC_GotoPerfil--><g class="entity" data-entity="UC_GotoPerfil" data-source-line="19" data-uid="ent0014" id="entity_UC_GotoPerfil"><ellipse cx="242.7893" cy="832.9997" fill="#F1F1F1" rx="48.0593" ry="24.0197" style="stroke:#181818;stroke-width:0.5;"/><text fill="#000000" font-family="sans-serif" font-size="14" lengthAdjust="spacing" textLength="69.8701" x="207.8542" y="832.521">Acceder a</text><text fill="#000000" font-family="sans-serif" font-size="14" lengthAdjust="spacing" textLength="35.5195" x="225.0295" y="848.8179">Perfil</text></g><!--entity UC_RegistrarSesion--><g class="entity" data-entity="UC_RegistrarSesion" data-source-line="23" data-uid="ent0016" id="entity_UC_RegistrarSesion"><ellipse cx="242.7856" cy="956.9951" fill="#F1F1F1" rx="93.6756" ry="24.9051" style="stroke:#181818;stroke-width:0.5;"/><text fill="#000000" font-family="sans-serif" font-size="14" lengthAdjust="spacing" textLength="134.9209" x="175.3252" y="955.1548">Registrar sesi&#243;n de</text><text fill="#000000" font-family="sans-serif" font-size="14" lengthAdjust="spacing" textLength="103.8652" x="190.853" y="971.4517">entrenamiento</text></g><!--entity UC_SeleccionarEjercicios--><g class="entity" data-entity="UC_SeleccionarEjercicios" data-source-line="24" data-uid="ent0017" id="entity_UC_SeleccionarEjercicios"><ellipse cx="591.808" cy="1042.9976" fill="#F1F1F1" rx="101.428" ry="24.1876" style="stroke:#181818;stroke-width:0.5;"/><text fill="#000000" font-family="sans-serif" font-size="14" lengthAdjust="spacing" textLength="151.416" x="516.1" y="1042.2547">Seleccionar ejercicios</text><text fill="#000000" font-family="sans-serif" font-size="14" lengthAdjust="spacing" textLength="86.0918" x="548.7621" y="1058.5516">del cat&#225;logo</text></g><!--entity UC_GestionarSets--><g class="entity" data-entity="UC_GestionarSets" data-source-line="25" data-uid="ent0018" id="entity_UC_GestionarSets"><ellipse cx="591.8139" cy="958.0007" fill="#F1F1F1" rx="72.9439" ry="25.5607" style="stroke:#181818;stroke-width:0.5;"/><text fill="#000000" font-family="sans-serif" font-size="14" lengthAdjust="spacing" textLength="101.0488" x="541.2895" y="955.1964">Gestionar sets</text><text fill="#000000" font-family="sans-serif" font-size="14" lengthAdjust="spacing" textLength="92.0186" x="545.8046" y="971.4933">(reps y peso)</text></g><!--entity UC_HistorialSesiones--><g class="entity" data-entity="UC_HistorialSesiones" data-source-line="26" data-uid="ent0019" id="entity_UC_HistorialSesiones"><ellipse cx="242.7913" cy="1042.9956" fill="#F1F1F1" rx="80.8113" ry="25.8156" style="stroke:#181818;stroke-width:0.5;"/><text fill="#000000" font-family="sans-serif" font-size="14" lengthAdjust="spacing" textLength="106.5723" x="189.5052" y="1039.1663">Ver historial de</text><text fill="#000000" font-family="sans-serif" font-size="14" lengthAdjust="spacing" textLength="111.1592" x="187.2117" y="1055.4632">entrenamientos</text></g><!--entity UC_VerCalendario--><g class="entity" data-entity="UC_VerCalendario" data-source-line="30" data-uid="ent0021" id="entity_UC_VerCalendario"><ellipse cx="591.8072" cy="1170.0005" fill="#F1F1F1" rx="88.3772" ry="25.5005" style="stroke:#181818;stroke-width:0.5;"/><text fill="#000000" font-family="sans-serif" font-size="14" lengthAdjust="spacing" textLength="123.6758" x="529.9693" y="1167.2834">Ver calendario de</text><text fill="#000000" font-family="sans-serif" font-size="14" lengthAdjust="spacing" textLength="111.1592" x="536.2276" y="1183.5803">entrenamientos</text></g><!--entity UC_DetalleSesionCalendario--><g class="entity" data-entity="UC_DetalleSesionCalendario" data-source-line="31" data-uid="ent0022" id="entity_UC_DetalleSesionCalendario"><ellipse cx="242.792" cy="1170.0032" fill="#F1F1F1" rx="105.412" ry="25.6632" style="stroke:#181818;stroke-width:0.5;"/><text fill="#000000" font-family="sans-serif" font-size="14" lengthAdjust="spacing" textLength="147.2871" x="169.1484" y="1167.051">Ver detalle de sesi&#243;n</text><text fill="#000000" font-family="sans-serif" font-size="14" lengthAdjust="spacing" textLength="137.0264" x="174.2788" y="1183.3479">desde el calendario</text></g><!--entity UC_CrearObjetivo--><g class="entity" data-entity="UC_CrearObjetivo" data-source-line="35" data-uid="ent0024" id="entity_UC_CrearObjetivo"><ellipse cx="242.7934" cy="1339.0047" fill="#F1F1F1" rx="94.5734" ry="21.3147" style="stroke:#181818;stroke-width:0.5;"/><text fill="#000000" font-family="sans-serif" font-size="14" lengthAdjust="spacing" textLength="164.0215" x="160.7827" y="1343.6531">Crear objetivo personal</text></g><!--entity UC_ActualizarObjetivo--><g class="entity" data-entity="UC_ActualizarObjetivo" data-source-line="36" data-uid="ent0025" id="entity_UC_ActualizarObjetivo"><ellipse cx="242.7946" cy="1420.0042" fill="#F1F1F1" rx="94.1146" ry="24.7642" style="stroke:#181818;stroke-width:0.5;"/><text fill="#000000" font-family="sans-serif" font-size="14" lengthAdjust="spacing" textLength="136.4521" x="174.5685" y="1418.3757">Actualizar progreso</text><text fill="#000000" font-family="sans-serif" font-size="14" lengthAdjust="spacing" textLength="100.3311" x="192.6291" y="1434.6726">de un objetivo</text></g><!--entity UC_VerObjetivos--><g class="entity" data-entity="UC_VerObjetivos" data-source-line="37" data-uid="ent0026" id="entity_UC_VerObjetivos"><ellipse cx="242.7903" cy="1505.0034" fill="#F1F1F1" rx="73.6203" ry="25.0034" style="stroke:#181818;stroke-width:0.5;"/><text fill="#000000" font-family="sans-serif" font-size="14" lengthAdjust="spacing" textLength="104.6104" x="190.4851" y="1503.0165">Ver objetivos y</text><text fill="#000000" font-family="sans-serif" font-size="14" lengthAdjust="spacing" textLength="82.9404" x="201.32" y="1519.3133">su progreso</text></g><!--entity UC_VerLogros--><g class="entity" data-entity="UC_VerLogros" data-source-line="38" data-uid="ent0027" id="entity_UC_VerLogros"><ellipse cx="242.7871" cy="1591.9974" fill="#F1F1F1" rx="120.5871" ry="26.5174" style="stroke:#181818;stroke-width:0.5;"/><text fill="#000000" font-family="sans-serif" font-size="14" lengthAdjust="spacing" textLength="71.3535" x="207.1103" y="1582.3855">Ver logros</text><text fill="#000000" font-family="sans-serif" font-size="14" lengthAdjust="spacing" textLength="211.9756" x="136.7993" y="1598.6823">(desbloqueados y pendientes)</text></g><!--entity UC_VerFeed--><g class="entity" data-entity="UC_VerFeed" data-source-line="42" data-uid="ent0029" id="entity_UC_VerFeed"><ellipse cx="591.8148" cy="1970.9971" fill="#F1F1F1" rx="68.3348" ry="25.2671" style="stroke:#181818;stroke-width:0.5;"/><text fill="#000000" font-family="sans-serif" font-size="14" lengthAdjust="spacing" textLength="81.3887" x="551.1204" y="1966.3737">Ver feed de</text><text fill="#000000" font-family="sans-serif" font-size="14" lengthAdjust="spacing" textLength="95.6348" x="543.9974" y="1982.6705">publicaciones</text></g><!--entity UC_CrearPublicacion--><g class="entity" data-entity="UC_CrearPublicacion" data-source-line="43" data-uid="ent0030" id="entity_UC_CrearPublicacion"><ellipse cx="242.7877" cy="1720.0015" fill="#F1F1F1" rx="116.2577" ry="25.6515" style="stroke:#181818;stroke-width:0.5;"/><text fill="#000000" font-family="sans-serif" font-size="14" lengthAdjust="spacing" textLength="122.6572" x="181.4591" y="1713.7552">Crear publicaci&#243;n</text><text fill="#000000" font-family="sans-serif" font-size="14" lengthAdjust="spacing" textLength="181.5146" x="152.0304" y="1730.0521">(texto, imagen, hashtags)</text></g><!--entity UC_Comentar--><g class="entity" data-entity="UC_Comentar" data-source-line="44" data-uid="ent0031" id="entity_UC_Comentar"><ellipse cx="242.7886" cy="1806.0034" fill="#F1F1F1" rx="57.6786" ry="25.3534" style="stroke:#181818;stroke-width:0.5;"/><text fill="#000000" font-family="sans-serif" font-size="14" lengthAdjust="spacing" textLength="69.2891" x="208.1441" y="1801.5064">Comentar</text><text fill="#000000" font-family="sans-serif" font-size="14" lengthAdjust="spacing" textLength="79.7275" x="202.9248" y="1817.8033">publicaci&#243;n</text></g><!--entity UC_Like--><g class="entity" data-entity="UC_Like" data-source-line="45" data-uid="ent0032" id="entity_UC_Like"><ellipse cx="242.7919" cy="1891.0041" fill="#F1F1F1" rx="94.2019" ry="24.5241" style="stroke:#181818;stroke-width:0.5;"/><text fill="#000000" font-family="sans-serif" font-size="14" lengthAdjust="spacing" textLength="138.1064" x="173.7387" y="1889.7405">Dar like / quitar like</text><text fill="#000000" font-family="sans-serif" font-size="14" lengthAdjust="spacing" textLength="92.7568" x="196.4135" y="1906.0373">a publicaci&#243;n</text></g><!--entity UC_DetallePublicacion--><g class="entity" data-entity="UC_DetallePublicacion" data-source-line="46" data-uid="ent0033" id="entity_UC_DetallePublicacion"><ellipse cx="242.7877" cy="1976.0045" fill="#F1F1F1" rx="79.1277" ry="25.4545" style="stroke:#181818;stroke-width:0.5;"/><text fill="#000000" font-family="sans-serif" font-size="14" lengthAdjust="spacing" textLength="98.3076" x="193.6339" y="1971.6549">Ver detalle de</text><text fill="#000000" font-family="sans-serif" font-size="14" lengthAdjust="spacing" textLength="110.5029" x="187.5363" y="1987.9517">una publicaci&#243;n</text></g><!--entity UC_VerRetos--><g class="entity" data-entity="UC_VerRetos" data-source-line="50" data-uid="ent0035" id="entity_UC_VerRetos"><ellipse cx="242.79" cy="2143.004" fill="#F1F1F1" rx="87.27" ry="19.854" style="stroke:#181818;stroke-width:0.5;"/><text fill="#000000" font-family="sans-serif" font-size="14" lengthAdjust="spacing" textLength="147.5332" x="169.0234" y="2147.6524">Ver retos disponibles</text></g><!--entity UC_UnirseReto--><g class="entity" data-entity="UC_UnirseReto" data-source-line="51" data-uid="ent0036" id="entity_UC_UnirseReto"><ellipse cx="242.7853" cy="2215.0031" fill="#F1F1F1" rx="72.5653" ry="16.9131" style="stroke:#181818;stroke-width:0.5;"/><text fill="#000000" font-family="sans-serif" font-size="14" lengthAdjust="spacing" textLength="112.7725" x="186.3991" y="2219.6515">Unirse a un reto</text></g><!--entity UC_CrearReto--><g class="entity" data-entity="UC_CrearReto" data-source-line="52" data-uid="ent0037" id="entity_UC_CrearReto"><ellipse cx="242.7946" cy="2281.0036" fill="#F1F1F1" rx="53.4546" ry="14.5236" style="stroke:#181818;stroke-width:0.5;"/><text fill="#000000" font-family="sans-serif" font-size="14" lengthAdjust="spacing" textLength="71.3535" x="207.1178" y="2285.6521">Crear reto</text></g><!--entity UC_ProgresoReto--><g class="entity" data-entity="UC_ProgresoReto" data-source-line="53" data-uid="ent0038" id="entity_UC_ProgresoReto"><ellipse cx="242.7941" cy="2354.0029" fill="#F1F1F1" rx="102.9941" ry="23.9129" style="stroke:#181818;stroke-width:0.5;"/><text fill="#000000" font-family="sans-serif" font-size="14" lengthAdjust="spacing" textLength="155.8457" x="164.8713" y="2353.694">Consultar mi progreso</text><text fill="#000000" font-family="sans-serif" font-size="14" lengthAdjust="spacing" textLength="72.5566" x="206.5158" y="2369.9909">en un reto</text></g><!--entity UC_VerPerfil--><g class="entity" data-entity="UC_VerPerfil" data-source-line="57" data-uid="ent0040" id="entity_UC_VerPerfil"><ellipse cx="242.7896" cy="2468.0036" fill="#F1F1F1" rx="48.5096" ry="14.5236" style="stroke:#181818;stroke-width:0.5;"/><text fill="#000000" font-family="sans-serif" font-size="14" lengthAdjust="spacing" textLength="64.3604" x="210.6095" y="2472.6521">Ver perfil</text></g><!--entity UC_EditarPerfil--><g class="entity" data-entity="UC_EditarPerfil" data-source-line="58" data-uid="ent0041" id="entity_UC_EditarPerfil"><ellipse cx="242.7921" cy="2541.0004" fill="#F1F1F1" rx="106.9521" ry="23.7904" style="stroke:#181818;stroke-width:0.5;"/><text fill="#000000" font-family="sans-serif" font-size="14" lengthAdjust="spacing" textLength="165.5254" x="160.0294" y="2541.2173">Editar datos personales</text><text fill="#000000" font-family="sans-serif" font-size="14" lengthAdjust="spacing" textLength="56.2939" x="214.6452" y="2557.5142">y f&#237;sicos</text></g><!--entity UC_VerEstadisticas--><g class="entity" data-entity="UC_VerEstadisticas" data-source-line="59" data-uid="ent0042" id="entity_UC_VerEstadisticas"><ellipse cx="242.7922" cy="2624.0044" fill="#F1F1F1" rx="76.7322" ry="24.5744" style="stroke:#181818;stroke-width:0.5;"/><text fill="#000000" font-family="sans-serif" font-size="14" lengthAdjust="spacing" textLength="111.3916" x="187.0964" y="2622.6638">Ver estad&#237;sticas</text><text fill="#000000" font-family="sans-serif" font-size="14" lengthAdjust="spacing" textLength="76.3643" x="204.6101" y="2638.9607">personales</text></g><!--entity UC_FAQ--><g class="entity" data-entity="UC_FAQ" data-source-line="63" data-uid="ent0044" id="entity_UC_FAQ"><ellipse cx="242.7915" cy="2739.9983" fill="#F1F1F1" rx="70.4415" ry="16.4883" style="stroke:#181818;stroke-width:0.5;"/><text fill="#000000" font-family="sans-serif" font-size="14" lengthAdjust="spacing" textLength="107.4883" x="189.0474" y="2744.6467">Consultar FAQs</text></g><!--entity UC_Contacto--><g class="entity" data-entity="UC_Contacto" data-source-line="64" data-uid="ent0045" id="entity_UC_Contacto"><ellipse cx="242.7854" cy="2816.0007" fill="#F1F1F1" rx="75.6554" ry="24.8907" style="stroke:#181818;stroke-width:0.5;"/><text fill="#000000" font-family="sans-serif" font-size="14" lengthAdjust="spacing" textLength="108.1787" x="188.696" y="2814.182">Enviar mensaje</text><text fill="#000000" font-family="sans-serif" font-size="14" lengthAdjust="spacing" textLength="82.9063" x="201.3323" y="2830.4789">de contacto</text></g><!--entity U--><g class="entity" data-entity="U" data-source-line="4" data-uid="ent0002" id="entity_U"><ellipse cx="32.6021" cy="1475.35" fill="#F1F1F1" rx="8" ry="8" style="stroke:#181818;stroke-width:0.5;"/><path d="M32.6021,1483.35 L32.6021,1510.35 M19.6021,1491.35 L45.6021,1491.35 M32.6021,1510.35 L19.6021,1525.35 M32.6021,1510.35 L45.6021,1525.35" fill="none" style="stroke:#181818;stroke-width:0.5;"/><text fill="#000000" font-family="sans-serif" font-size="14" lengthAdjust="spacing" textLength="53.2041" x="6" y="1539.8451">Usuario</text></g><!--link U to UC_Registrarse--><g class="link" data-entity-1="U" data-entity-2="UC_Registrarse" data-source-line="68" data-uid="lnk46" id="link_U_UC_Registrarse"><path d="M33.8,1466.59 C34.93,1311.6 42.26,717.18 89.2,231 C91.8,204.16 79.82,190.73 98.2,171 C119.71,147.93 147.8991,140.1486 177.5191,137.7786" fill="none" id="U-to-UC_Registrarse" style="stroke:#181818;stroke-width:1;"/><polygon fill="#181818" points="183.5,137.3,174.2096,134.0306,178.5159,137.6988,174.8477,142.0051,183.5,137.3" style="stroke:#181818;stroke-width:1;"/></g><!--link U to UC_Login--><g class="link" data-entity-1="U" data-entity-2="UC_Login" data-source-line="69" data-uid="lnk47" id="link_U_UC_Login"><path d="M34.49,1466.45 C39.21,1269.31 62.4,381.38 98.2,336 C181.5,230.43 259.89,289.78 387.38,247 C447.24,226.92 510.527,203.4399 550.827,188.2199" fill="none" id="U-to-UC_Login" style="stroke:#181818;stroke-width:1;"/><polygon fill="#181818" points="556.44,186.1,546.6072,185.5378,551.7625,187.8666,549.4337,193.0218,556.44,186.1" style="stroke:#181818;stroke-width:1;"/></g><!--link U to UC_Forgot--><g class="link" data-entity-1="U" data-entity-2="UC_Forgot" data-source-line="70" data-uid="lnk48" id="link_U_UC_Forgot"><path d="M34.08,1466.59 C36.8,1261.83 51.46,306.12 89.2,257 C105.79,235.42 126.2292,224.825 152.3092,218.115" fill="none" id="U-to-UC_Forgot" style="stroke:#181818;stroke-width:1;"/><polygon fill="#181818" points="158.12,216.62,148.4072,214.9887,153.2777,217.8659,150.4005,222.7364,158.12,216.62" style="stroke:#181818;stroke-width:1;"/></g><!--link U to UC_Dashboard--><g class="link" data-entity-1="U" data-entity-2="UC_Dashboard" data-source-line="72" data-uid="lnk49" id="link_U_UC_Dashboard"><path d="M34.92,1466.5 C39.59,1335.55 56.84,895.39 89.2,533 C92.15,500 78.36,485.53 98.2,459 C113.41,438.67 131.0821,427.1307 154.4721,417.8607" fill="none" id="U-to-UC_Dashboard" style="stroke:#181818;stroke-width:1;"/><polygon fill="#181818" points="160.05,415.65,150.2094,415.2474,155.4017,417.4922,153.1569,422.6846,160.05,415.65" style="stroke:#181818;stroke-width:1;"/></g><!--link U to UC_GotoEntr--><g class="link" data-entity-1="U" data-entity-2="UC_GotoEntr" data-source-line="73" data-uid="lnk50" id="link_U_UC_GotoEntr"><path d="M33.53,1466.44 C33.54,1295.84 37.44,614.24 98.2,543 C115.65,522.55 136.5966,513.0429 162.3466,507.4529" fill="none" id="U-to-UC_GotoEntr" style="stroke:#181818;stroke-width:1;"/><polygon fill="#181818" points="168.21,506.18,158.5663,504.1804,163.3238,507.2407,160.2634,511.9983,168.21,506.18" style="stroke:#181818;stroke-width:1;"/></g><!--link U to UC_GotoObjetivos--><g class="link" data-entity-1="U" data-entity-2="UC_GotoObjetivos" data-source-line="74" data-uid="lnk51" id="link_U_UC_GotoObjetivos"><path d="M33.8,1466.57 C34.97,1305.57 43.03,690.69 98.2,626 C112.28,609.5 126.7048,601.0199 147.4948,594.7599" fill="none" id="U-to-UC_GotoObjetivos" style="stroke:#181818;stroke-width:1;"/><polygon fill="#181818" points="153.24,593.03,143.4689,591.7947,148.4523,594.4716,145.7755,599.455,153.24,593.03" style="stroke:#181818;stroke-width:1;"/></g><!--link U to UC_GotoFitgram--><g class="link" data-entity-1="U" data-entity-2="UC_GotoFitgram" data-source-line="75" data-uid="lnk52" id="link_U_UC_GotoFitgram"><path d="M34.12,1466.37 C36.51,1314.8 48.53,766.16 98.2,708 C111.67,692.23 125.021,684.0927 144.881,677.9127" fill="none" id="U-to-UC_GotoFitgram" style="stroke:#181818;stroke-width:1;"/><polygon fill="#181818" points="150.61,676.13,140.828,674.9848,145.8358,677.6156,143.205,682.6235,150.61,676.13" style="stroke:#181818;stroke-width:1;"/></g><!--link U to UC_GotoRetos--><g class="link" data-entity-1="U" data-entity-2="UC_GotoRetos" data-source-line="76" data-uid="lnk53" id="link_U_UC_GotoRetos"><path d="M34.58,1466.41 C38.48,1325.38 54.9,843.31 98.2,791 C121.26,763.14 155.8565,754.0332 187.9965,751.0032" fill="none" id="U-to-UC_GotoRetos" style="stroke:#181818;stroke-width:1;"/><polygon fill="#181818" points="193.97,750.44,184.6343,747.3024,188.9921,750.9093,185.3852,755.2671,193.97,750.44" style="stroke:#181818;stroke-width:1;"/></g><!--link U to UC_GotoPerfil--><g class="link" data-entity-1="U" data-entity-2="UC_GotoPerfil" data-source-line="77" data-uid="lnk54" id="link_U_UC_GotoPerfil"><path d="M33.32,1466.42 C33.14,1350.32 37.86,1006.67 98.2,916 C122.22,879.93 161.9901,859.6547 195.3401,847.3647" fill="none" id="U-to-UC_GotoPerfil" style="stroke:#181818;stroke-width:1;"/><polygon fill="#181818" points="200.97,845.29,191.142,844.6488,196.2784,847.0189,193.9083,852.1553,200.97,845.29" style="stroke:#181818;stroke-width:1;"/></g><!--link U to UC_RegistrarSesion--><g class="link" data-entity-1="U" data-entity-2="UC_RegistrarSesion" data-source-line="79" data-uid="lnk55" id="link_U_UC_RegistrarSesion"><path d="M33.29,1466.55 C33.23,1361.06 38.59,1070.27 98.2,1000 C112.68,982.93 127.887,974.1839 149.327,967.8339" fill="none" id="U-to-UC_RegistrarSesion" style="stroke:#181818;stroke-width:1;"/><polygon fill="#181818" points="155.08,966.13,145.3146,964.8505,150.2859,967.5499,147.5865,972.5212,155.08,966.13" style="stroke:#181818;stroke-width:1;"/></g><!--link U to UC_HistorialSesiones--><g class="link" data-entity-1="U" data-entity-2="UC_HistorialSesiones" data-source-line="80" data-uid="lnk56" id="link_U_UC_HistorialSesiones"><path d="M36.12,1466.62 C42.3,1382.03 60.54,1182.69 98.2,1128 C119.56,1096.98 150.7666,1077.9629 181.7066,1064.3729" fill="none" id="U-to-UC_HistorialSesiones" style="stroke:#181818;stroke-width:1;"/><polygon fill="#181818" points="187.2,1061.96,177.3512,1061.9171,182.6221,1063.9708,180.5685,1069.2417,187.2,1061.96" style="stroke:#181818;stroke-width:1;"/></g><!--link U to UC_VerCalendario--><g class="link" data-entity-1="U" data-entity-2="UC_VerCalendario" data-source-line="81" data-uid="lnk57" id="link_U_UC_VerCalendario"><path d="M35.18,1466.36 C39.16,1420.69 52.73,1345.42 98.2,1302 C128.94,1272.65 384.7963,1214.3515 513.7363,1186.3915" fill="none" id="U-to-UC_VerCalendario" style="stroke:#181818;stroke-width:1;"/><polygon fill="#181818" points="519.6,1185.12,509.9567,1183.1181,514.7136,1186.1796,511.6521,1190.9364,519.6,1185.12" style="stroke:#181818;stroke-width:1;"/></g><!--link U to UC_DetalleSesionCalendario--><g class="link" data-entity-1="U" data-entity-2="UC_DetalleSesionCalendario" data-source-line="82" data-uid="lnk58" id="link_U_UC_DetalleSesionCalendario"><path d="M36.51,1466.38 C42.42,1397.88 57.98,1258.92 89.2,1223 C105.76,1203.95 123.8382,1193.618 147.7082,1185.798" fill="none" id="U-to-UC_DetalleSesionCalendario" style="stroke:#181818;stroke-width:1;"/><polygon fill="#181818" points="153.41,1183.93,143.612,1182.9307,148.6585,1185.4866,146.1026,1190.5332,153.41,1183.93" style="stroke:#181818;stroke-width:1;"/></g><!--link U to UC_CrearObjetivo--><g class="link" data-entity-1="U" data-entity-2="UC_CrearObjetivo" data-source-line="84" data-uid="lnk59" id="link_U_UC_CrearObjetivo"><path d="M43.91,1466.54 C53.46,1438.11 70.47,1400.55 98.2,1378 C115.54,1363.9 131.754,1356.4312 153.314,1350.6612" fill="none" id="U-to-UC_CrearObjetivo" style="stroke:#181818;stroke-width:1;"/><polygon fill="#181818" points="159.11,1349.11,149.3819,1347.5727,154.28,1350.4026,151.4501,1355.3008,159.11,1349.11" style="stroke:#181818;stroke-width:1;"/></g><!--link U to UC_ActualizarObjetivo--><g class="link" data-entity-1="U" data-entity-2="UC_ActualizarObjetivo" data-source-line="85" data-uid="lnk60" id="link_U_UC_ActualizarObjetivo"><path d="M59.56,1485.1 C70.95,1477.08 84.77,1468.26 98.2,1462 C120.92,1451.42 141.1403,1444.451 164.7103,1437.881" fill="none" id="U-to-UC_ActualizarObjetivo" style="stroke:#181818;stroke-width:1;"/><polygon fill="#181818" points="170.49,1436.27,160.7465,1434.8335,165.6736,1437.6125,162.8945,1442.5397,170.49,1436.27" style="stroke:#181818;stroke-width:1;"/></g><!--link U to UC_VerObjetivos--><g class="link" data-entity-1="U" data-entity-2="UC_VerObjetivos" data-source-line="86" data-uid="lnk61" id="link_U_UC_VerObjetivos"><path d="M59.55,1505 C86.8,1505 124.89,1505 162.87,1505" fill="none" id="U-to-UC_VerObjetivos" style="stroke:#181818;stroke-width:1;"/><polygon fill="#181818" points="168.87,1505,159.87,1501,163.87,1505,159.87,1509,168.87,1505" style="stroke:#181818;stroke-width:1;"/></g><!--link U to UC_VerLogros--><g class="link" data-entity-1="U" data-entity-2="UC_VerLogros" data-source-line="87" data-uid="lnk62" id="link_U_UC_VerLogros"><path d="M59.6,1524.82 C71,1532.83 84.81,1541.66 98.2,1548 C118.23,1557.49 135.0543,1563.7587 156.2543,1570.2687" fill="none" id="U-to-UC_VerLogros" style="stroke:#181818;stroke-width:1;"/><polygon fill="#181818" points="161.99,1572.03,154.5607,1565.5643,157.2103,1570.5623,152.2123,1573.2119,161.99,1572.03" style="stroke:#181818;stroke-width:1;"/></g><!--link U to UC_VerFeed--><g class="link" data-entity-1="U" data-entity-2="UC_VerFeed" data-source-line="89" data-uid="lnk63" id="link_U_UC_VerFeed"><path d="M35.55,1543.34 C41.71,1657.23 62.54,1987.54 98.2,2019 C228.37,2133.83 454.4489,2040.2342 546.2989,1994.5042" fill="none" id="U-to-UC_VerFeed" style="stroke:#181818;stroke-width:1;"/><polygon fill="#181818" points="551.67,1991.83,541.8306,1992.2605,547.1941,1994.0585,545.3961,1999.422,551.67,1991.83" style="stroke:#181818;stroke-width:1;"/></g><!--link U to UC_CrearPublicacion--><g class="link" data-entity-1="U" data-entity-2="UC_CrearPublicacion" data-source-line="90" data-uid="lnk64" id="link_U_UC_CrearPublicacion"><path d="M46.02,1543.49 C56.51,1571.39 73.76,1608.69 98.2,1635 C122.95,1661.63 152.5599,1679.924 181.8099,1694.364" fill="none" id="U-to-UC_CrearPublicacion" style="stroke:#181818;stroke-width:1;"/><polygon fill="#181818" points="187.19,1697.02,180.8905,1689.4492,182.7066,1694.8066,177.3492,1696.6227,187.19,1697.02" style="stroke:#181818;stroke-width:1;"/></g><!--link U to UC_Comentar--><g class="link" data-entity-1="U" data-entity-2="UC_Comentar" data-source-line="91" data-uid="lnk65" id="link_U_UC_Comentar"><path d="M38.54,1543.55 C47.49,1607.52 68.26,1731.66 98.2,1763 C120.76,1786.61 149.7887,1796.4414 179.5587,1801.3114" fill="none" id="U-to-UC_Comentar" style="stroke:#181818;stroke-width:1;"/><polygon fill="#181818" points="185.48,1802.28,177.2438,1796.8795,180.5456,1801.4728,175.9523,1804.7746,185.48,1802.28" style="stroke:#181818;stroke-width:1;"/></g><!--link U to UC_Like--><g class="link" data-entity-1="U" data-entity-2="UC_Like" data-source-line="92" data-uid="lnk66" id="link_U_UC_Like"><path d="M35.85,1543.41 C41.3,1623.47 57.87,1804.47 98.2,1849 C113.02,1865.36 128.0736,1873.7976 149.2636,1880.0276" fill="none" id="U-to-UC_Like" style="stroke:#181818;stroke-width:1;"/><polygon fill="#181818" points="155.02,1881.72,147.5137,1875.3438,150.223,1880.3097,145.2572,1883.019,155.02,1881.72" style="stroke:#181818;stroke-width:1;"/></g><!--link U to UC_DetallePublicacion--><g class="link" data-entity-1="U" data-entity-2="UC_DetallePublicacion" data-source-line="93" data-uid="lnk67" id="link_U_UC_DetallePublicacion"><path d="M34.3,1543.64 C36.77,1637.7 47.96,1875.11 98.2,1933 C115.26,1952.65 135.0635,1962.1188 159.9835,1968.0588" fill="none" id="U-to-UC_DetallePublicacion" style="stroke:#181818;stroke-width:1;"/><polygon fill="#181818" points="165.82,1969.45,157.9927,1963.4722,160.9563,1968.2907,156.1378,1971.2542,165.82,1969.45" style="stroke:#181818;stroke-width:1;"/></g><!--link U to UC_VerRetos--><g class="link" data-entity-1="U" data-entity-2="UC_VerRetos" data-source-line="95" data-uid="lnk68" id="link_U_UC_VerRetos"><path d="M33.16,1543.64 C32.51,1656.66 35.42,1984.3 89.2,2074 C107.14,2103.92 136.0493,2119.2052 167.7993,2128.8552" fill="none" id="U-to-UC_VerRetos" style="stroke:#181818;stroke-width:1;"/><polygon fill="#181818" points="173.54,2130.6,166.0922,2124.1557,168.7561,2129.146,163.7657,2131.8099,173.54,2130.6" style="stroke:#181818;stroke-width:1;"/></g><!--link U to UC_UnirseReto--><g class="link" data-entity-1="U" data-entity-2="UC_UnirseReto" data-source-line="96" data-uid="lnk69" id="link_U_UC_UnirseReto"><path d="M36.06,1543.6 C45.12,1683.32 77.21,2155.75 98.2,2180 C116.01,2200.56 137.7518,2209.1746 164.0818,2213.2846" fill="none" id="U-to-UC_UnirseReto" style="stroke:#181818;stroke-width:1;"/><polygon fill="#181818" points="170.01,2214.21,161.7346,2208.8698,165.0698,2213.4389,160.5008,2216.7741,170.01,2214.21" style="stroke:#181818;stroke-width:1;"/></g><!--link U to UC_CrearReto--><g class="link" data-entity-1="U" data-entity-2="UC_CrearReto" data-source-line="97" data-uid="lnk70" id="link_U_UC_CrearReto"><path d="M36.32,1543.44 C47.04,1693.94 86.36,2235.63 98.2,2249 C120.73,2274.42 152.6167,2281.7875 183.8067,2283.2575" fill="none" id="U-to-UC_CrearReto" style="stroke:#181818;stroke-width:1;"/><polygon fill="#181818" points="189.8,2283.54,180.9983,2279.1207,184.8055,2283.3046,180.6217,2287.1119,189.8,2283.54" style="stroke:#181818;stroke-width:1;"/></g><!--link U to UC_ProgresoReto--><g class="link" data-entity-1="U" data-entity-2="UC_ProgresoReto" data-source-line="98" data-uid="lnk71" id="link_U_UC_ProgresoReto"><path d="M36.39,1543.57 C47.97,1703.37 92,2305.46 98.2,2313 C110.89,2328.41 123.2387,2336.3905 142.2687,2342.6305" fill="none" id="U-to-UC_ProgresoReto" style="stroke:#181818;stroke-width:1;"/><polygon fill="#181818" points="147.97,2344.5,140.6643,2337.8949,143.2189,2342.9421,138.1717,2345.4967,147.97,2344.5" style="stroke:#181818;stroke-width:1;"/></g><!--link U to UC_VerPerfil--><g class="link" data-entity-1="U" data-entity-2="UC_VerPerfil" data-source-line="100" data-uid="lnk72" id="link_U_UC_VerPerfil"><path d="M36.15,1543.63 C47.4,1713.35 92.24,2384.98 98.2,2394 C122.01,2430.04 163.3667,2447.8314 197.1467,2457.6114" fill="none" id="U-to-UC_VerPerfil" style="stroke:#181818;stroke-width:1;"/><polygon fill="#181818" points="202.91,2459.28,195.3774,2452.9349,198.1072,2457.8895,193.1526,2460.6193,202.91,2459.28" style="stroke:#181818;stroke-width:1;"/></g><!--link U to UC_EditarPerfil--><g class="link" data-entity-1="U" data-entity-2="UC_EditarPerfil" data-source-line="101" data-uid="lnk73" id="link_U_UC_EditarPerfil"><path d="M35.95,1543.5 C47.11,1725.98 94.37,2495.25 98.2,2500 C110.25,2514.93 121.6585,2522.7019 139.8485,2528.9819" fill="none" id="U-to-UC_EditarPerfil" style="stroke:#181818;stroke-width:1;"/><polygon fill="#181818" points="145.52,2530.94,138.3181,2524.2219,140.7937,2529.3083,135.7074,2531.7839,145.52,2530.94" style="stroke:#181818;stroke-width:1;"/></g><!--link U to UC_VerEstadisticas--><g class="link" data-entity-1="U" data-entity-2="UC_VerEstadisticas" data-source-line="102" data-uid="lnk74" id="link_U_UC_VerEstadisticas"><path d="M35.31,1543.47 C43.78,1733.22 81.66,2561.25 98.2,2582 C114.88,2602.92 135.5145,2612.5366 161.2345,2618.0766" fill="none" id="U-to-UC_VerEstadisticas" style="stroke:#181818;stroke-width:1;"/><polygon fill="#181818" points="167.1,2619.34,159.1441,2613.5346,162.2121,2618.2872,157.4595,2621.3552,167.1,2619.34" style="stroke:#181818;stroke-width:1;"/></g><!--link U to UC_FAQ--><g class="link" data-entity-1="U" data-entity-2="UC_FAQ" data-source-line="104" data-uid="lnk75" id="link_U_UC_FAQ"><path d="M33.49,1543.54 C33.23,1733.98 35.7,2569.33 98.2,2665 C119.66,2697.84 154.6737,2715.2752 187.2837,2726.0652" fill="none" id="U-to-UC_FAQ" style="stroke:#181818;stroke-width:1;"/><polygon fill="#181818" points="192.98,2727.95,185.6921,2721.3253,188.2331,2726.3793,183.1791,2728.9203,192.98,2727.95" style="stroke:#181818;stroke-width:1;"/></g><!--link U to UC_Contacto--><g class="link" data-entity-1="U" data-entity-2="UC_Contacto" data-source-line="105" data-uid="lnk76" id="link_U_UC_Contacto"><path d="M35.06,1543.27 C40.69,1688.48 62,2219.22 89.2,2656 C92.47,2708.5 65.08,2733.14 98.2,2774 C115.21,2794.98 136.231,2804.6029 162.161,2810.1129" fill="none" id="U-to-UC_Contacto" style="stroke:#181818;stroke-width:1;"/><polygon fill="#181818" points="168.03,2811.36,160.058,2805.5767,163.1392,2810.3207,158.3951,2813.402,168.03,2811.36" style="stroke:#181818;stroke-width:1;"/></g><!--link UC_Onboarding to UC_Login--><g class="link" data-entity-1="UC_Onboarding" data-entity-2="UC_Login" data-source-line="110" data-uid="lnk77" id="link_UC_Onboarding_UC_Login"><path d="M309.34,84.19 C333.88,91.13 361.96,99.25 387.38,107 C445.62,124.76 507.0387,144.9501 547.7487,158.5401" fill="none" id="UC_Onboarding-to-UC_Login" style="stroke:#181818;stroke-width:1;stroke-dasharray:7,7;"/><polygon fill="#181818" points="553.44,160.44,546.1697,153.796,548.6973,158.8568,543.6365,161.3843,553.44,160.44" style="stroke:#181818;stroke-width:1;"/><text fill="#000000" font-family="sans-serif" font-size="13" lengthAdjust="spacing" textLength="61.1851" x="397.38" y="106.4369">&#171;extend&#187;</text></g><!--link UC_RegistrarSesion to UC_SeleccionarEjercicios--><g class="link" data-entity-1="UC_RegistrarSesion" data-entity-2="UC_SeleccionarEjercicios" data-source-line="113" data-uid="lnk78" id="link_UC_RegistrarSesion_UC_SeleccionarEjercicios"><path d="M312.35,973.99 C372.5,988.9 453.7662,1009.0365 514.4862,1024.0865" fill="none" id="UC_RegistrarSesion-to-UC_SeleccionarEjercicios" style="stroke:#181818;stroke-width:1;stroke-dasharray:7,7;"/><polygon fill="#181818" points="520.31,1025.53,512.5367,1019.4823,515.4569,1024.3271,510.612,1027.2473,520.31,1025.53" style="stroke:#181818;stroke-width:1;"/><text fill="#000000" font-family="sans-serif" font-size="13" lengthAdjust="spacing" textLength="63.0068" x="396.38" y="990.9169">&#171;include&#187;</text></g><!--link UC_RegistrarSesion to UC_GestionarSets--><g class="link" data-entity-1="UC_RegistrarSesion" data-entity-2="UC_GestionarSets" data-source-line="114" data-uid="lnk79" id="link_UC_RegistrarSesion_UC_GestionarSets"><path d="M336.78,957.27 C393.8,957.43 459.72,957.6229 512.47,957.7729" fill="none" id="UC_RegistrarSesion-to-UC_GestionarSets" style="stroke:#181818;stroke-width:1;stroke-dasharray:7,7;"/><polygon fill="#181818" points="518.47,957.79,509.4814,953.7644,513.47,957.7758,509.4587,961.7644,518.47,957.79" style="stroke:#181818;stroke-width:1;"/><text fill="#000000" font-family="sans-serif" font-size="13" lengthAdjust="spacing" textLength="63.0068" x="396.38" y="953.5069">&#171;include&#187;</text></g><!--link UC_DetalleSesionCalendario to UC_VerCalendario--><g class="link" data-entity-1="UC_DetalleSesionCalendario" data-entity-2="UC_VerCalendario" data-source-line="117" data-uid="lnk80" id="link_UC_DetalleSesionCalendario_UC_VerCalendario"><path d="M348.38,1170 C397.77,1170 450.06,1170 497.1,1170" fill="none" id="UC_DetalleSesionCalendario-to-UC_VerCalendario" style="stroke:#181818;stroke-width:1;stroke-dasharray:7,7;"/><polygon fill="#181818" points="503.1,1170,494.1,1166,498.1,1170,494.1,1174,503.1,1170" style="stroke:#181818;stroke-width:1;"/><text fill="#000000" font-family="sans-serif" font-size="13" lengthAdjust="spacing" textLength="61.1851" x="397.38" y="1166.0669">&#171;extend&#187;</text></g><!--link UC_DetallePublicacion to UC_VerFeed--><g class="link" data-entity-1="UC_DetallePublicacion" data-entity-2="UC_VerFeed" data-source-line="120" data-uid="lnk81" id="link_UC_DetallePublicacion_UC_VerFeed"><path d="M322.1,1974.87 C382.57,1974 459.3806,1972.8964 517.0306,1972.0664" fill="none" id="UC_DetallePublicacion-to-UC_VerFeed" style="stroke:#181818;stroke-width:1;stroke-dasharray:7,7;"/><polygon fill="#181818" points="523.03,1971.98,513.9733,1968.11,518.0305,1972.052,514.0885,1976.1091,523.03,1971.98" style="stroke:#181818;stroke-width:1;"/><text fill="#000000" font-family="sans-serif" font-size="13" lengthAdjust="spacing" textLength="61.1851" x="397.38" y="1968.9769">&#171;extend&#187;</text></g><!--SRC=[VLRDRjms4BxlKmnygGFOoRq831YEdHOm4DSBzxH0mPLcPTfSKY4f8zkY3vC7wA788-oBTKYAVvAsDsdupI-_6Ox0dGMhGFFksKBBDJQMAxaohrpsJBCzzAnvPHskxK4Wk6CcEu6h5Mkiqd3sP0QckJe3Pk1fjHhHS7OzM9IMDwpXnnyI3l15RXNJBPVT6Vor0XWCDimGyX4xRgncsc2mSlD78IgHlqhUSAR1e7568_fUTLpM5fkXHrA7HaaoO_3uBuleEwKxPKluZTht0Yt1LOfn8xbt9g9Q3d_rTv7c9sQU_S4agTzHGnlFDl9SendsA2dqFPDCN6nahuy_ll4zYzcGIAXEA-EApAbsQDv5vybBwUAwQR0bDsmZRobBb6plr9I9Mf-LLUxaXDANxGjQ_aOE3_2WoJKQLQgcynFwTznsZY3dLBz1yfQrxqhryVY4yYDE0lM24-07r3ikIdIGL3SnhS4onsAreSMDn59bnhqr8LN5gpKAR1eIaXryGTqGGvJPo1O5DCmUlzC59Zi5-3PXIskVqTXWow0rdYEzkukUxY5NCeBMX9aIx9a2LPf8EiycrVQNY0dfeAcATiC4oZOqy8o_JJhy7_i4p4Pc7K1T9MXij1ZhxefbwDTNBFiUQHxW8TB2QXbnoTfxto-Jo6yqkauUOLHDRQX-YJt-E1gf-MO79lYVfDoFtU22XK4cOz56XYuPSech7EL6cY5PBAgss5vEDqm1uWDLQYlKrm5Pgm8nP3iP38GFHQXlDJOaNCBOXWlNkqDi_SNsmrRuGUteKLY-8y2yiWdjR_FSuZUhBe06MOVo0fvfKbdMvGYzqaFsC1cyb0xJHGZ5M8-dfSOd2a3mLuGFy7NWTlpRI0PB5kxfx3GbDt8ueJVoi8owBEyuksO5rKvERwZfbUHRKTLoDjwU9AVN3PZZbrECs21ty7dfIvoNp62Ao2PSMVQyO36zEnClSTvx0sLkOR0IsSZKZdU3ZfMPPTjNGvaauqmkOBUjlwAMkRh4HaIYzW5sntyCR_8O2T2v2UU9HY1h2U-s2LBEXWhdjmx30wHAQArwfIrIHjU7eMNJOP4ATdVzMx97trKQyirj7SH6mrxG3mMtLxW5A7Cr_3lNFy4ZYh6RO7lyRbnCCEv9r94tp3YQq6GnQlK4bvTNqvKd2SDcatx7rIKBybwGHEdHhoHvs5JY-4PNma3LIZJUoqAquoEP3kRFJJggNugSmucXdn7ro4xYXIbS-bf8EK_BIkRdNEsjRFry4WTIlXytOAQPbBgLdqbXYqwldTUYgbKhU-Ej957LGoMmQew2JaJp8hcHmJL_YQPSDc88IzC7e6bFRU1-730lnM2KKE1sRPexV1-UCSVTSdE6z-yphU5d-FZHcsklheBNwOxcFH_Sxh2qTr5BTzKAjPeJCtfSNCPy1Dv7YnJ2QUrg2PjeKU3Bcmw4HQTOeYXPUhv9zbOjLwlJJH03g5fdLhY9__95gttkFD6NY5euSjrGkVWF]--></g></svg>